<svg width="547" height="453" viewBox="0 0 547 453" fill="none" xmlns="http://www.w3.org/2000/svg">
<path d="M22 135C22 122.85 31.8497 113 44 113H503C515.15 113 525 122.85 525 135V403H22V135Z" fill="#3269A1"/>
<rect y="402" width="547" height="51" rx="23" fill="#D0D4D6"/>
<path d="M76 55C76 42.8497 85.8497 33 98 33H448C460.15 33 470 42.8497 470 55V402H76V55Z" fill="#3E8CC7"/>
<path d="M268.5 215.344L431.936 40.6792C445.569 26.1091 470 35.7566 470 55.7106V403H76L268.5 215.344Z" fill="#98C7EB"/>
<rect x="343" y="63" width="53" height="17" fill="#6C86E0"/>
<rect x="414" y="63" width="18" height="17" fill="#6C86E0"/>
<circle cx="383" cy="153" r="31" fill="#6C86E0"/>
<circle cx="278" cy="153" r="31" fill="#6C86E0"/>
<circle cx="155" cy="153" r="31" fill="#6C86E0"/>
<circle cx="383" cy="231" r="31" fill="#6C86E0"/>
<circle cx="278" cy="231" r="31" fill="#6C86E0"/>
<circle cx="155" cy="231" r="31" fill="#6C86E0"/>
<circle cx="383" cy="313" r="31" fill="#6C86E0"/>
<circle cx="278" cy="313" r="31" fill="#6C86E0"/>
<circle cx="155" cy="313" r="31" fill="#6C86E0"/>
<ellipse cx="383" cy="144.5" rx="8" ry="8.5" fill="#345B82"/>
<ellipse cx="278" cy="144.5" rx="8" ry="8.5" fill="#345B82"/>
<ellipse cx="155" cy="144.5" rx="8" ry="8.5" fill="#345B82"/>
<ellipse cx="383" cy="222.5" rx="8" ry="8.5" fill="#345B82"/>
<ellipse cx="278" cy="222.5" rx="8" ry="8.5" fill="#345B82"/>
<ellipse cx="155" cy="222.5" rx="8" ry="8.5" fill="#345B82"/>
<ellipse cx="383" cy="304.5" rx="8" ry="8.5" fill="#345B82"/>
<ellipse cx="278" cy="304.5" rx="8" ry="8.5" fill="#345B82"/>
<ellipse cx="155" cy="304.5" rx="8" ry="8.5" fill="#345B82"/>
<path d="M371 165.5C371 158.596 376.596 153 383.5 153V153C390.404 153 396 158.596 396 165.5V180H371V165.5Z" fill="#345B82"/>
<path d="M266 165.5C266 158.596 271.596 153 278.5 153V153C285.404 153 291 158.596 291 165.5V180H266V165.5Z" fill="#345B82"/>
<path d="M143 165.5C143 158.596 148.596 153 155.5 153V153C162.404 153 168 158.596 168 165.5V180H143V165.5Z" fill="#345B82"/>
<path d="M371 243.5C371 236.596 376.596 231 383.5 231V231C390.404 231 396 236.596 396 243.5V258H371V243.5Z" fill="#345B82"/>
<path d="M266 243.5C266 236.596 271.596 231 278.5 231V231C285.404 231 291 236.596 291 243.5V258H266V243.5Z" fill="#345B82"/>
<path d="M143 243.5C143 236.596 148.596 231 155.5 231V231C162.404 231 168 236.596 168 243.5V258H143V243.5Z" fill="#345B82"/>
<path d="M371 325.5C371 318.596 376.596 313 383.5 313V313C390.404 313 396 318.596 396 325.5V340H371V325.5Z" fill="#345B82"/>
<path d="M266 325.5C266 318.596 271.596 313 278.5 313V313C285.404 313 291 318.596 291 325.5V340H266V325.5Z" fill="#345B82"/>
<path d="M143 325.5C143 318.596 148.596 313 155.5 313V313C162.404 313 168 318.596 168 325.5V340H143V325.5Z" fill="#345B82"/>
<path d="M300.12 190.629C299.334 188.809 298.201 187.16 296.784 185.774C295.366 184.384 293.694 183.279 291.859 182.52C289.956 181.729 287.915 181.325 285.854 181.329C282.964 181.329 280.143 182.121 277.692 183.616C277.106 183.974 276.549 184.367 276.021 184.795C275.494 184.367 274.937 183.974 274.35 183.616C271.899 182.121 269.079 181.329 266.188 181.329C264.107 181.329 262.09 181.728 260.184 182.52C258.343 183.282 256.683 184.378 255.259 185.774C253.84 187.158 252.706 188.808 251.922 190.629C251.107 192.523 250.691 194.534 250.691 196.604C250.691 198.556 251.09 200.591 251.881 202.661C252.544 204.391 253.494 206.185 254.707 207.997C256.631 210.864 259.275 213.854 262.559 216.886C268 221.911 273.389 225.382 273.617 225.523L275.007 226.414C275.623 226.807 276.414 226.807 277.03 226.414L278.419 225.523C278.648 225.376 284.031 221.911 289.478 216.886C292.762 213.854 295.406 210.864 297.329 207.997C298.543 206.185 299.499 204.391 300.155 202.661C300.947 200.591 301.346 198.556 301.346 196.604C301.352 194.534 300.935 192.523 300.12 190.629V190.629Z" fill="#DC0000"/>
<circle cx="276.251" cy="201.251" r="42.2505" stroke="white" stroke-width="6"/>
<rect x="294.883" y="240.995" width="3.54906" height="15.9708" transform="rotate(-26.6177 294.883 240.995)" fill="white"/>
<rect x="297.738" y="257.006" width="13.6612" height="44.0772" transform="rotate(-26.6177 297.738 257.006)" fill="white"/>
<path d="M300.852 251.745L302.773 255.072L297.746 257.068L300.852 251.745Z" fill="white"/>
<path d="M300.852 251.745L302.773 255.072L297.746 257.068L300.852 251.745Z" fill="white"/>
<path d="M302.424 250.495L309.966 250.939L304.642 253.601L302.424 250.495Z" fill="white"/>
<path d="M302.424 250.495L309.966 250.939L304.642 253.601L302.424 250.495Z" fill="white"/>
<rect x="320.431" y="294.368" width="7.19987" height="2.99317" transform="rotate(-26.7516 320.431 294.368)" fill="white"/>
<path d="M320.319 293.859L321.888 296.964L317.509 296.19L320.319 293.859Z" fill="white"/>
<path d="M325.092 291.627L329.043 290.421L328.156 293.971L325.092 291.627Z" fill="white"/>
</svg>
