<svg width="547" height="386" viewBox="0 0 547 386" fill="none" xmlns="http://www.w3.org/2000/svg">
<path d="M44 22C44 9.84973 53.8497 0 66 0H482C494.15 0 504 9.84974 504 22V335H44V22Z" fill="#3269A1"/>
<path d="M77 56C77 43.8497 86.8497 34 99 34H449C461.15 34 471 43.8497 471 56V335H77V56Z" fill="#3E8CC7"/>
<path d="M269.5 182.5L434.574 39.1352C448.816 26.7664 471 36.8823 471 55.7454V335H77L269.5 182.5Z" fill="#98C7EB"/>
<rect x="351" y="55" width="53" height="17" fill="#DC0000"/>
<rect x="422" y="55" width="18" height="17" fill="#DC0000"/>
<circle cx="273" cy="195" r="115" fill="#6C86E0"/>
<rect y="335" width="547" height="51" rx="23" fill="#E9EEF9"/>
<path d="M170.551 236.307L170.031 236.19C175.828 210.507 190.399 187.185 211.057 170.519C226.676 157.939 245.252 149.525 265.036 146.07C284.82 142.615 305.162 144.233 324.145 150.77C343.129 157.308 360.129 168.55 373.547 183.439C386.964 198.328 396.357 216.374 400.84 235.877L400.321 235.994C388.048 182.317 340.82 144.829 285.471 144.829C230.848 144.829 182.517 183.301 170.551 236.307Z" fill="#3F3D56"/>
<path d="M215.626 143.1H213.254V236.447H215.626V143.1Z" fill="#3F3D56"/>
<path d="M237.522 154.996C237.673 187.637 214.618 214.204 214.618 214.204C214.618 214.204 191.319 187.85 191.167 155.209C191.016 122.567 214.071 96 214.071 96C214.071 96 237.371 122.355 237.522 154.996Z" fill="#6C63FF"/>
<path d="M380.706 197.801H197.094V236.557H380.706V197.801Z" fill="#F2F2F2"/>
<path d="M191.231 202.048L211.218 160.372H370.846L385.769 202.048H191.231Z" fill="#3F3D56"/>
<path d="M315.149 163.027H241.065V187.449H315.149V163.027Z" fill="#F2F2F2"/>
<path d="M245.862 143.118L234.136 167.54H322.078L315.149 143.118H245.862Z" fill="#3F3D56"/>
<path d="M306.088 205.499H247.594V236.557H306.088V205.499Z" fill="#CCCCCC"/>
<path d="M235.468 206.561H204.289V236.557H235.468V206.561Z" fill="#CCCCCC"/>
<path d="M332.338 208.419H316.215V236.557H332.338V208.419Z" fill="#3F3D56"/>
<path d="M440 236.425H137V236.955H440V236.425Z" fill="#3F3D56"/>
<path d="M186.509 174.855H184.943V236.454H186.509V174.855Z" fill="#3F3D56"/>
<path d="M200.957 182.705C201.057 204.245 185.843 221.776 185.843 221.776C185.843 221.776 170.468 204.385 170.368 182.845C170.269 161.306 185.482 143.774 185.482 143.774C185.482 143.774 200.858 161.165 200.957 182.705Z" fill="#6C63FF"/>
<path opacity="0.1" d="M200.957 182.705C201.057 204.245 185.843 221.776 185.843 221.776C185.843 221.776 170.468 204.385 170.368 182.845C170.269 161.306 185.482 143.774 185.482 143.774C185.482 143.774 200.858 161.165 200.957 182.705Z" fill="black"/>
<path d="M166.156 174.855H164.591V236.454H166.156V174.855Z" fill="#3F3D56"/>
<path d="M180.605 182.705C180.704 204.245 165.491 221.776 165.491 221.776C165.491 221.776 150.116 204.385 150.016 182.845C149.916 161.306 165.13 143.774 165.13 143.774C165.13 143.774 180.505 161.165 180.605 182.705Z" fill="#6C63FF"/>
<path d="M357.654 210.012H349.793V217.312H357.654V210.012Z" fill="#3F3D56"/>
<path d="M368.181 210.012H360.319V217.312H368.181V210.012Z" fill="#3F3D56"/>
<path d="M357.654 219.966H349.793V227.532H357.654V219.966Z" fill="#3F3D56"/>
<path d="M368.181 219.966H360.319V227.532H368.181V219.966Z" fill="#3F3D56"/>
<path d="M254.013 169.709H247.86V175.422H254.013V169.709Z" fill="#3F3D56"/>
<path d="M262.251 169.709H256.098V175.422H262.251V169.709Z" fill="#3F3D56"/>
<path d="M254.013 177.5H247.86V183.421H254.013V177.5Z" fill="#3F3D56"/>
<path d="M262.251 177.5H256.098V183.421H262.251V177.5Z" fill="#3F3D56"/>
<path d="M300.116 169.709H293.963V175.422H300.116V169.709Z" fill="#3F3D56"/>
<path d="M308.354 169.709H302.201V175.422H308.354V169.709Z" fill="#3F3D56"/>
<path d="M300.116 177.5H293.963V183.421H300.116V177.5Z" fill="#3F3D56"/>
<path d="M308.354 177.5H302.201V183.421H308.354V177.5Z" fill="#3F3D56"/>
<path d="M277.197 169.709H271.045V175.422H277.197V169.709Z" fill="#3F3D56"/>
<path d="M285.435 169.709H279.283V175.422H285.435V169.709Z" fill="#3F3D56"/>
<path d="M277.197 177.5H271.045V183.421H277.197V177.5Z" fill="#3F3D56"/>
<path d="M285.435 177.5H279.283V183.421H285.435V177.5Z" fill="#3F3D56"/>
<path d="M323.687 211.27H319.813V214.867H323.687V211.27Z" fill="#F2F2F2"/>
<path d="M328.873 211.27H325V214.867H328.873V211.27Z" fill="#F2F2F2"/>
<path d="M323.687 216.175H319.813V219.903H323.687V216.175Z" fill="#F2F2F2"/>
<path d="M328.873 216.175H325V219.903H328.873V216.175Z" fill="#F2F2F2"/>
<path d="M330.206 225.541C330.795 225.541 331.272 225.065 331.272 224.479C331.272 223.893 330.795 223.417 330.206 223.417C329.617 223.417 329.14 223.893 329.14 224.479C329.14 225.065 329.617 225.541 330.206 225.541Z" fill="#F2F2F2"/>
<path d="M306.222 208.817H247.594V209.348H306.222V208.817Z" fill="#F2F2F2"/>
<path d="M306.222 211.207H247.594V211.737H306.222V211.207Z" fill="#F2F2F2"/>
<path d="M306.222 213.595H247.594V214.126H306.222V213.595Z" fill="#F2F2F2"/>
<path d="M306.222 215.985H247.594V216.516H306.222V215.985Z" fill="#F2F2F2"/>
<path d="M306.222 218.374H247.594V218.905H306.222V218.374Z" fill="#F2F2F2"/>
<path d="M306.222 220.763H247.594V221.294H306.222V220.763Z" fill="#F2F2F2"/>
<path d="M306.222 223.152H247.594V223.683H306.222V223.152Z" fill="#F2F2F2"/>
<path d="M306.222 225.541H247.594V226.072H306.222V225.541Z" fill="#F2F2F2"/>
<path d="M306.222 227.93H247.594V228.461H306.222V227.93Z" fill="#F2F2F2"/>
<path d="M306.222 230.319H247.594V230.85H306.222V230.319Z" fill="#F2F2F2"/>
<path d="M306.222 232.708H247.594V233.239H306.222V232.708Z" fill="#F2F2F2"/>
<path d="M235.468 208.817H204.289V209.348H235.468V208.817Z" fill="#F2F2F2"/>
<path d="M235.468 211.207H204.289V211.737H235.468V211.207Z" fill="#F2F2F2"/>
<path d="M235.468 213.595H204.289V214.126H235.468V213.595Z" fill="#F2F2F2"/>
<path d="M235.468 215.985H204.289V216.516H235.468V215.985Z" fill="#F2F2F2"/>
<path d="M235.468 218.374H204.289V218.905H235.468V218.374Z" fill="#F2F2F2"/>
<path d="M235.468 220.763H204.289V221.294H235.468V220.763Z" fill="#F2F2F2"/>
<path d="M235.468 223.152H204.289V223.683H235.468V223.152Z" fill="#F2F2F2"/>
<path d="M235.468 225.541H204.289V226.072H235.468V225.541Z" fill="#F2F2F2"/>
<path d="M235.468 227.93H204.289V228.461H235.468V227.93Z" fill="#F2F2F2"/>
<path d="M235.468 230.319H204.289V230.85H235.468V230.319Z" fill="#F2F2F2"/>
<path d="M235.468 232.708H204.289V233.239H235.468V232.708Z" fill="#F2F2F2"/>
<g clip-path="url(#clip0_144:613)">
<rect x="355" y="147" width="42" height="42" fill="white"/>
</g>
<path d="M368.5 134C371.323 134 374.119 134.556 376.728 135.637C379.336 136.717 381.706 138.301 383.703 140.297C385.699 142.294 387.283 144.664 388.363 147.272C389.444 149.881 390 152.677 390 155.5C390 161.202 387.735 166.671 383.703 170.703C379.671 174.735 374.202 177 368.5 177C365.677 177 362.881 176.444 360.272 175.363C357.664 174.283 355.294 172.699 353.297 170.703C349.265 166.671 347 161.202 347 155.5C347 149.798 349.265 144.329 353.297 140.297C357.329 136.265 362.798 134 368.5 134ZM359.9 146.276V153.458L375.251 155.5L359.9 157.542V164.724L381.4 155.5L359.9 146.276Z" fill="#DC0000"/>
<circle cx="126" cy="87" r="32" fill="#6C86E0"/>
<ellipse cx="126" cy="78.5" rx="9" ry="8.5" fill="#345B82"/>
<path d="M113 100C113 92.8203 118.82 87 126 87C133.18 87 139 92.8203 139 100V114H113V100Z" fill="#345B82"/>
<path fill-rule="evenodd" clip-rule="evenodd" d="M164.302 149.298C165.384 148.926 166.555 148.902 167.651 149.229C168.748 149.556 169.715 150.219 170.417 151.124L208.843 200.623C209.593 201.589 210 202.777 210 204C210 205.224 209.593 206.412 208.843 207.377L170.417 256.877C169.714 257.781 168.748 258.443 167.652 258.769C166.556 259.096 165.385 259.072 164.304 258.7C163.222 258.328 162.284 257.627 161.619 256.695C160.954 255.763 160.597 254.646 160.596 253.5V231.555C131.068 232.171 116.883 237.787 109.758 243.892C102.984 249.694 101.743 256.52 100.453 263.67L100.118 265.512C99.8721 266.83 99.1534 268.013 98.0976 268.838C97.0417 269.662 95.7215 270.072 94.3853 269.99C93.0491 269.907 91.789 269.338 90.8421 268.39C89.8952 267.442 89.3268 266.18 89.2438 264.841C88.2996 249.727 89.7159 227.826 100.371 209.506C110.713 191.725 129.334 178.052 160.596 176.622V154.501C160.596 153.355 160.953 152.237 161.617 151.305C162.281 150.372 163.22 149.67 164.302 149.298V149.298Z" fill="#DC0000"/>
<defs>
<clipPath id="clip0_144:613">
<rect width="70" height="62" fill="white" transform="translate(311 107)"/>
</clipPath>
</defs>
</svg>
