<svg width="548" height="387" viewBox="0 0 548 387" fill="none" xmlns="http://www.w3.org/2000/svg">
<path d="M44.0308 22C44.0308 9.84973 53.8805 0 66.0308 0H482.355C494.505 0 504.355 9.84974 504.355 22V335.236H44.0308V22Z" fill="#3269A1"/>
<path d="M77.0533 56.0247C77.0533 43.8744 86.9031 34.0247 99.0533 34.0247H449.331C461.481 34.0247 471.331 43.8744 471.331 56.0247V335.237H77.0533V56.0247Z" fill="#3E8CC7"/>
<path d="M269.689 182.629L434.905 39.1414C449.147 26.7725 471.331 36.8884 471.331 55.7515V335.237H77.0533L269.689 182.629Z" fill="#98C7EB"/>
<rect x="351.248" y="55.0396" width="53.0374" height="17.012" fill="#DC0000"/>
<rect x="422.298" y="55.0396" width="18.0127" height="17.012" fill="#DC0000"/>
<circle cx="273.192" cy="195.137" r="115.081" fill="#6C86E0"/>
<rect y="335.238" width="547.386" height="51.036" rx="23" fill="#E9EEF9"/>
<g clip-path="url(#clip0_144:614)">
<path d="M170.67 236.474L170.15 236.357C175.952 210.656 190.532 187.318 211.206 170.64C226.835 158.051 245.424 149.632 265.222 146.174C285.021 142.717 305.376 144.335 324.373 150.877C343.37 157.42 360.383 168.67 373.81 183.569C387.236 198.469 396.636 216.527 401.122 236.044L400.602 236.161C388.321 182.447 341.06 144.932 285.672 144.932C231.01 144.932 182.645 183.431 170.67 236.474Z" fill="#3F3D56"/>
<path d="M215.778 143.202H213.403V236.615H215.778V143.202Z" fill="#3F3D56"/>
<path d="M237.688 155.106C237.84 187.77 214.769 214.357 214.769 214.357C214.769 214.357 191.453 187.983 191.302 155.319C191.151 122.655 214.221 96.0688 214.221 96.0688C214.221 96.0688 237.537 122.442 237.688 155.106Z" fill="#6C63FF"/>
<path d="M380.974 197.942H197.232V236.725H380.974V197.942Z" fill="#F2F2F2"/>
<path d="M191.365 202.192L211.366 160.487H371.107L386.041 202.192H191.365Z" fill="#3F3D56"/>
<path d="M315.371 163.143H241.234V187.582H315.371V163.143Z" fill="#F2F2F2"/>
<path d="M246.034 143.22L234.3 167.659H322.304L315.371 143.22H246.034Z" fill="#3F3D56"/>
<path d="M306.304 205.646H247.768V236.726H306.304V205.646Z" fill="#CCCCCC"/>
<path d="M235.634 206.708H204.432V236.725H235.634V206.708Z" fill="#CCCCCC"/>
<path d="M332.572 208.568H316.438V236.726H332.572V208.568Z" fill="#3F3D56"/>
<path d="M440.31 236.592H137.096V237.123H440.31V236.592Z" fill="#3F3D56"/>
<path d="M186.639 174.979H185.073V236.622H186.639V174.979Z" fill="#3F3D56"/>
<path d="M201.098 182.835C201.198 204.39 185.973 221.934 185.973 221.934C185.973 221.934 170.587 204.531 170.488 182.976C170.388 161.421 185.612 143.877 185.612 143.877C185.612 143.877 200.998 161.28 201.098 182.835Z" fill="#6C63FF"/>
<path opacity="0.1" d="M201.098 182.835C201.198 204.39 185.973 221.934 185.973 221.934C185.973 221.934 170.587 204.531 170.488 182.976C170.388 161.421 185.612 143.877 185.612 143.877C185.612 143.877 200.998 161.28 201.098 182.835Z" fill="black"/>
<path d="M166.272 174.979H164.706V236.622H166.272V174.979Z" fill="#3F3D56"/>
<path d="M180.731 182.835C180.831 204.39 165.607 221.934 165.607 221.934C165.607 221.934 150.221 204.531 150.121 182.976C150.021 161.421 165.246 143.877 165.246 143.877C165.246 143.877 180.632 161.28 180.731 182.835Z" fill="#6C63FF"/>
<path d="M357.906 210.162H350.039V217.467H357.906V210.162Z" fill="#3F3D56"/>
<path d="M368.44 210.162H360.573V217.467H368.44V210.162Z" fill="#3F3D56"/>
<path d="M357.906 220.123H350.039V227.694H357.906V220.123Z" fill="#3F3D56"/>
<path d="M368.44 220.123H360.573V227.694H368.44V220.123Z" fill="#3F3D56"/>
<path d="M254.191 169.83H248.034V175.547H254.191V169.83Z" fill="#3F3D56"/>
<path d="M262.435 169.83H256.278V175.547H262.435V169.83Z" fill="#3F3D56"/>
<path d="M254.191 177.626H248.034V183.551H254.191V177.626Z" fill="#3F3D56"/>
<path d="M262.435 177.626H256.278V183.551H262.435V177.626Z" fill="#3F3D56"/>
<path d="M300.326 169.83H294.17V175.547H300.326V169.83Z" fill="#3F3D56"/>
<path d="M308.57 169.83H302.414V175.547H308.57V169.83Z" fill="#3F3D56"/>
<path d="M300.326 177.626H294.17V183.551H300.326V177.626Z" fill="#3F3D56"/>
<path d="M308.57 177.626H302.414V183.551H308.57V177.626Z" fill="#3F3D56"/>
<path d="M277.392 169.83H271.235V175.547H277.392V169.83Z" fill="#3F3D56"/>
<path d="M285.636 169.83H279.479V175.547H285.636V169.83Z" fill="#3F3D56"/>
<path d="M277.392 177.626H271.235V183.551H277.392V177.626Z" fill="#3F3D56"/>
<path d="M285.636 177.626H279.479V183.551H285.636V177.626Z" fill="#3F3D56"/>
<path d="M323.914 211.42H320.037V215.02H323.914V211.42Z" fill="#F2F2F2"/>
<path d="M329.104 211.42H325.228V215.02H329.104V211.42Z" fill="#F2F2F2"/>
<path d="M323.914 216.329H320.037V220.06H323.914V216.329Z" fill="#F2F2F2"/>
<path d="M329.104 216.329H325.228V220.06H329.104V216.329Z" fill="#F2F2F2"/>
<path d="M330.438 225.702C331.027 225.702 331.505 225.226 331.505 224.639C331.505 224.052 331.027 223.577 330.438 223.577C329.849 223.577 329.371 224.052 329.371 224.639C329.371 225.226 329.849 225.702 330.438 225.702Z" fill="#F2F2F2"/>
<path d="M306.437 208.966H247.768V209.497H306.437V208.966Z" fill="#F2F2F2"/>
<path d="M306.437 211.356H247.768V211.888H306.437V211.356Z" fill="#F2F2F2"/>
<path d="M306.437 213.747H247.768V214.278H306.437V213.747Z" fill="#F2F2F2"/>
<path d="M306.437 216.138H247.768V216.67H306.437V216.138Z" fill="#F2F2F2"/>
<path d="M306.437 218.528H247.768V219.059H306.437V218.528Z" fill="#F2F2F2"/>
<path d="M306.437 220.92H247.768V221.451H306.437V220.92Z" fill="#F2F2F2"/>
<path d="M306.437 223.311H247.768V223.842H306.437V223.311Z" fill="#F2F2F2"/>
<path d="M306.437 225.701H247.768V226.232H306.437V225.701Z" fill="#F2F2F2"/>
<path d="M306.437 228.093H247.768V228.624H306.437V228.093Z" fill="#F2F2F2"/>
<path d="M306.437 230.482H247.768V231.013H306.437V230.482Z" fill="#F2F2F2"/>
<path d="M306.437 232.873H247.768V233.405H306.437V232.873Z" fill="#F2F2F2"/>
<path d="M235.634 208.966H204.432V209.497H235.634V208.966Z" fill="#F2F2F2"/>
<path d="M235.634 211.356H204.432V211.888H235.634V211.356Z" fill="#F2F2F2"/>
<path d="M235.634 213.747H204.432V214.278H235.634V213.747Z" fill="#F2F2F2"/>
<path d="M235.634 216.138H204.432V216.67H235.634V216.138Z" fill="#F2F2F2"/>
<path d="M235.634 218.528H204.432V219.059H235.634V218.528Z" fill="#F2F2F2"/>
<path d="M235.634 220.92H204.432V221.451H235.634V220.92Z" fill="#F2F2F2"/>
<path d="M235.634 223.311H204.432V223.842H235.634V223.311Z" fill="#F2F2F2"/>
<path d="M235.634 225.701H204.432V226.232H235.634V225.701Z" fill="#F2F2F2"/>
<path d="M235.634 228.093H204.432V228.624H235.634V228.093Z" fill="#F2F2F2"/>
<path d="M235.634 230.482H204.432V231.013H235.634V230.482Z" fill="#F2F2F2"/>
<path d="M235.634 232.873H204.432V233.405H235.634V232.873Z" fill="#F2F2F2"/>
<path d="M299.292 160.732C298.506 158.912 297.373 157.263 295.956 155.877C294.538 154.487 292.866 153.382 291.031 152.622C289.128 151.832 287.087 151.427 285.027 151.432C282.136 151.432 279.315 152.224 276.865 153.719C276.278 154.077 275.721 154.469 275.193 154.898C274.666 154.469 274.109 154.077 273.522 153.719C271.071 152.224 268.251 151.432 265.36 151.432C263.279 151.432 261.262 151.831 259.356 152.622C257.515 153.385 255.856 154.481 254.431 155.877C253.012 157.261 251.878 158.911 251.094 160.732C250.279 162.626 249.863 164.637 249.863 166.707C249.863 168.659 250.262 170.694 251.053 172.764C251.716 174.493 252.666 176.288 253.88 178.099C255.803 180.967 258.447 183.957 261.731 186.988C267.172 192.013 272.561 195.485 272.789 195.625L274.179 196.517C274.795 196.909 275.586 196.909 276.202 196.517L277.592 195.625C277.82 195.479 283.203 192.013 288.65 186.988C291.934 183.957 294.578 180.967 296.501 178.099C297.715 176.288 298.671 174.493 299.328 172.764C300.119 170.694 300.518 168.659 300.518 166.707C300.524 164.637 300.107 162.626 299.292 160.732V160.732Z" fill="#DC0000"/>
</g>
<rect x="379.677" y="280.201" width="140.099" height="96.0677" fill="#FEC9A3"/>
<rect x="411.7" y="264.187" width="36.0254" height="40.0282" rx="18.0127" fill="#FEC9A3"/>
<rect x="379.677" y="187.133" width="36.0254" height="117.082" rx="18.0127" fill="#FEC9A3"/>
<rect x="312.22" y="324.911" width="36.0254" height="96.673" rx="18" transform="rotate(-52.8179 312.22 324.911)" fill="#FEC9A3"/>
<rect x="447.724" y="264.187" width="36.0254" height="40.0282" rx="18.0127" fill="#FEC9A3"/>
<rect x="483.749" y="264.187" width="36.0254" height="40.0282" rx="18.0127" fill="#FEC9A3"/>
<path d="M468.831 327.734L481.84 316.726L491.847 306.219L519.776 280.201V376.268H379.677L419.296 360.757L440.311 349.249L454.821 339.743L468.831 327.734Z" fill="#FEC093"/>
<circle cx="276.414" cy="170.339" r="42.2505" stroke="white" stroke-width="6"/>
<rect x="295.046" y="210.083" width="3.54906" height="15.9708" transform="rotate(-26.6177 295.046 210.083)" fill="white"/>
<rect x="297.901" y="226.095" width="13.6612" height="44.0772" transform="rotate(-26.6177 297.901 226.095)" fill="white"/>
<path d="M301.015 220.833L302.936 224.161L297.909 226.157L301.015 220.833Z" fill="white"/>
<path d="M301.015 220.833L302.936 224.161L297.909 226.157L301.015 220.833Z" fill="white"/>
<path d="M302.588 219.584L310.129 220.028L304.806 222.689L302.588 219.584Z" fill="white"/>
<path d="M302.588 219.584L310.129 220.028L304.806 222.689L302.588 219.584Z" fill="white"/>
<rect x="320.595" y="263.457" width="7.19987" height="2.99317" transform="rotate(-26.7516 320.595 263.457)" fill="white"/>
<path d="M320.483 262.948L322.051 266.053L317.672 265.279L320.483 262.948Z" fill="white"/>
<path d="M325.255 260.716L329.207 259.51L328.319 263.059L325.255 260.716Z" fill="white"/>
<defs>
<clipPath id="clip0_144:614">
<rect width="303.214" height="141.099" fill="white" transform="translate(137.096 96.0688)"/>
</clipPath>
</defs>
</svg>
