<svg width="296" height="166" viewBox="0 0 296 166" fill="none" xmlns="http://www.w3.org/2000/svg">
<path d="M295.707 8.70711C296.098 8.31658 296.098 7.68342 295.707 7.29289L289.343 0.928932C288.953 0.538408 288.319 0.538408 287.929 0.928932C287.538 1.31946 287.538 1.95262 287.929 2.34315L293.586 8L287.929 13.6569C287.538 14.0474 287.538 14.6805 287.929 15.0711C288.319 15.4616 288.953 15.4616 289.343 15.0711L295.707 8.70711ZM80 9H295V7H80V9Z" fill="#2A614D"/>
<path d="M295.707 158.707C296.098 158.317 296.098 157.683 295.707 157.293L289.343 150.929C288.953 150.538 288.319 150.538 287.929 150.929C287.538 151.319 287.538 151.953 287.929 152.343L293.586 158L287.929 163.657C287.538 164.047 287.538 164.681 287.929 165.071C288.319 165.462 288.953 165.462 289.343 165.071L295.707 158.707ZM80 159H295V157H80V159Z" fill="#2A614D"/>
<line x1="80" y1="158" x2="80" y2="8" stroke="#2A614D" stroke-width="2"/>
<line x1="0.988281" y1="81" x2="81.0133" y2="81" stroke="black" stroke-width="2"/>
</svg>
