<svg width="219" height="24" viewBox="0 0 219 24" fill="none" xmlns="http://www.w3.org/2000/svg">
<path d="M2 10.5C1.17157 10.5 0.5 11.1716 0.5 12C0.5 12.8284 1.17157 13.5 2 13.5V10.5ZM218.061 13.0607C218.646 12.4749 218.646 11.5251 218.061 10.9393L208.515 1.3934C207.929 0.807612 206.979 0.807612 206.393 1.3934C205.808 1.97918 205.808 2.92893 206.393 3.51472L214.879 12L206.393 20.4853C205.808 21.0711 205.808 22.0208 206.393 22.6066C206.979 23.1924 207.929 23.1924 208.515 22.6066L218.061 13.0607ZM2 13.5H217V10.5H2V13.5Z" fill="#2A614D"/>
</svg>
