<svg width="787" height="168" viewBox="0 0 787 168" fill="none" xmlns="http://www.w3.org/2000/svg">
<path d="M216.707 8.70711C217.098 8.31658 217.098 7.68342 216.707 7.29289L210.343 0.928932C209.953 0.538408 209.319 0.538408 208.929 0.928932C208.538 1.31946 208.538 1.95262 208.929 2.34315L214.586 8L208.929 13.6569C208.538 14.0474 208.538 14.6805 208.929 15.0711C209.319 15.4616 209.953 15.4616 210.343 15.0711L216.707 8.70711ZM1 9H216V7H1V9Z" fill="#2A614D"/>
<path d="M785.715 161.207C786.106 160.817 786.106 160.183 785.715 159.793L779.351 153.429C778.961 153.038 778.328 153.038 777.937 153.429C777.547 153.819 777.547 154.453 777.937 154.843L783.594 160.5L777.937 166.157C777.547 166.547 777.547 167.181 777.937 167.571C778.328 167.962 778.961 167.962 779.351 167.571L785.715 161.207ZM0.992188 161.5H785.008V159.5H0.992188V161.5Z" fill="#2A614D"/>
<path d="M785.707 8.70711C786.098 8.31658 786.098 7.68342 785.707 7.29289L779.343 0.928932C778.953 0.538408 778.319 0.538408 777.929 0.928932C777.538 1.31946 777.538 1.95262 777.929 2.34315L783.586 8L777.929 13.6569C777.538 14.0474 777.538 14.6805 777.929 15.0711C778.319 15.4616 778.953 15.4616 779.343 15.0711L785.707 8.70711ZM570 9H785V7H570V9Z" fill="#2A614D"/>
</svg>
