<svg width="216" height="166" viewBox="0 0 216 166" fill="none" xmlns="http://www.w3.org/2000/svg">
<path d="M215.707 8.70711C216.098 8.31658 216.098 7.68342 215.707 7.29289L209.343 0.928932C208.953 0.538408 208.319 0.538408 207.929 0.928932C207.538 1.31946 207.538 1.95262 207.929 2.34315L213.586 8L207.929 13.6569C207.538 14.0474 207.538 14.6805 207.929 15.0711C208.319 15.4616 208.953 15.4616 209.343 15.0711L215.707 8.70711ZM0 9H215V7H0V9Z" fill="#2A614D"/>
<path d="M215.707 158.707C216.098 158.317 216.098 157.683 215.707 157.293L209.343 150.929C208.953 150.538 208.319 150.538 207.929 150.929C207.538 151.319 207.538 151.953 207.929 152.343L213.586 158L207.929 163.657C207.538 164.047 207.538 164.681 207.929 165.071C208.319 165.462 208.953 165.462 209.343 165.071L215.707 158.707ZM0 159H215V157H0V159Z" fill="#2A614D"/>
</svg>
