<svg width="217" height="286" viewBox="0 0 217 286" fill="none" xmlns="http://www.w3.org/2000/svg">
<path d="M1 7C0.447715 7 0 7.44772 0 8C0 8.55228 0.447715 9 1 9V7ZM216.707 8.70711C217.098 8.31658 217.098 7.68342 216.707 7.29289L210.343 0.928932C209.953 0.538408 209.319 0.538408 208.929 0.928932C208.538 1.31946 208.538 1.95262 208.929 2.34315L214.586 8L208.929 13.6569C208.538 14.0474 208.538 14.6805 208.929 15.0711C209.319 15.4616 209.953 15.4616 210.343 15.0711L216.707 8.70711ZM1 9H216V7H1V9Z" fill="#2A614D"/>
<path d="M1 277C0.447715 277 0 277.448 0 278C0 278.552 0.447715 279 1 279V277ZM216.707 278.707C217.098 278.317 217.098 277.683 216.707 277.293L210.343 270.929C209.953 270.538 209.319 270.538 208.929 270.929C208.538 271.319 208.538 271.953 208.929 272.343L214.586 278L208.929 283.657C208.538 284.047 208.538 284.681 208.929 285.071C209.319 285.462 209.953 285.462 210.343 285.071L216.707 278.707ZM1 279H216V277H1V279Z" fill="#2A614D"/>
<path d="M1 142C0.447715 142 0 142.448 0 143C0 143.552 0.447715 144 1 144V142ZM216.707 143.707C217.098 143.317 217.098 142.683 216.707 142.293L210.343 135.929C209.953 135.538 209.319 135.538 208.929 135.929C208.538 136.319 208.538 136.953 208.929 137.343L214.586 143L208.929 148.657C208.538 149.047 208.538 149.681 208.929 150.071C209.319 150.462 209.953 150.462 210.343 150.071L216.707 143.707ZM1 144H216V142H1V144Z" fill="#2A614D"/>
</svg>
