<svg width="1357" height="284" viewBox="0 0 1357 284" fill="none" xmlns="http://www.w3.org/2000/svg">
<path d="M787.707 139.149C788.098 138.758 788.098 138.125 787.707 137.734L781.343 131.37C780.953 130.98 780.319 130.98 779.929 131.37C779.538 131.761 779.538 132.394 779.929 132.785L785.586 138.441L779.929 144.098C779.538 144.489 779.538 145.122 779.929 145.512C780.319 145.903 780.953 145.903 781.343 145.512L787.707 139.149ZM572 139.441H787V137.441H572V139.441Z" fill="#2A614D"/>
<path d="M216.707 139.971C217.098 139.58 217.098 138.947 216.707 138.557L210.343 132.193C209.953 131.802 209.319 131.802 208.929 132.193C208.538 132.583 208.538 133.216 208.929 133.607L214.586 139.264L208.929 144.921C208.538 145.311 208.538 145.944 208.929 146.335C209.319 146.725 209.953 146.725 210.343 146.335L216.707 139.971ZM1 140.264H216V138.264H1V140.264Z" fill="#2A614D"/>
<path d="M216.208 248.881C216.79 248.744 217.169 248.237 217.054 247.747L215.178 239.773C215.063 239.283 214.498 238.998 213.916 239.135C213.334 239.271 212.955 239.779 213.071 240.268L214.738 247.357L206.309 249.34C205.727 249.476 205.349 249.984 205.464 250.473C205.579 250.963 206.144 251.249 206.726 251.112L216.208 248.881ZM0.402387 140.067L215.402 248.797L216.598 247.193L1.59761 138.464L0.402387 140.067Z" fill="#2A614D"/>
<path d="M0.292878 276.707C-0.0976463 276.317 -0.0976463 275.683 0.292878 275.293L6.65684 268.929C7.04736 268.538 7.68053 268.538 8.07105 268.929C8.46158 269.319 8.46158 269.953 8.07105 270.343L2.4142 276L8.07105 281.657C8.46158 282.047 8.46158 282.681 8.07105 283.071C7.68053 283.462 7.04736 283.462 6.65684 283.071L0.292878 276.707ZM216 277H0.999985V275H216V277Z" fill="#2A614D"/>
<path d="M1356.71 135.029C1357.1 134.639 1357.1 134.006 1356.71 133.615L1350.34 127.251C1349.95 126.861 1349.32 126.861 1348.93 127.251C1348.54 127.642 1348.54 128.275 1348.93 128.665L1354.59 134.322L1348.93 139.979C1348.54 140.37 1348.54 141.003 1348.93 141.393C1349.32 141.784 1349.95 141.784 1350.34 141.393L1356.71 135.029ZM1141 135.322H1356V133.322H1141V135.322Z" fill="#2A614D"/>
<path d="M1356.7 9.00365C1357.1 8.61408 1357.1 7.98092 1356.71 7.58945L1350.37 1.21005C1349.98 0.818583 1349.35 0.817044 1348.95 1.20662C1348.56 1.59619 1348.56 2.22935 1348.95 2.62082L1354.59 8.29139L1348.91 13.9345C1348.52 14.324 1348.51 14.9572 1348.9 15.3487C1349.29 15.7401 1349.93 15.7417 1350.32 15.3521L1356.7 9.00365ZM0.996416 5.99999L1356 9.29483L1356 7.29484L1.00358 4.00001L0.996416 5.99999Z" fill="#2A614D"/>
</svg>
