<svg width="66" height="72" viewBox="0 0 66 72" fill="none" xmlns="http://www.w3.org/2000/svg">
<path d="M0 26C0 23.2386 2.23858 21 5 21H61C63.7614 21 66 23.2386 66 26V72H0V26Z" fill="white"/>
<path d="M27.7347 3.08194C31.1118 1.17112 35.2459 1.1809 38.6139 3.10767L60.9656 15.8946C64.079 17.6757 66 20.9878 66 24.5746V31H0V25.1894C0 21.2253 2.13291 17.5678 5.58304 15.6157L27.7347 3.08194Z" fill="white"/>
<rect x="12" y="28" width="42" height="7" rx="3.5" fill="#6C86E0"/>
<rect x="12" y="41" width="42" height="7" rx="3.5" fill="#6C86E0"/>
<rect x="12" y="53" width="42" height="7" rx="3.5" fill="#6C86E0"/>
</svg>
