<svg width="259" height="49" viewBox="0 0 259 49" fill="none" xmlns="http://www.w3.org/2000/svg">
<path d="M2.80566 32V7.82812H10.708C13.3311 7.82812 15.3011 8.37044 16.6182 9.45508C17.9463 10.5397 18.6104 12.1445 18.6104 14.2695C18.6104 15.3984 18.2894 16.4001 17.6475 17.2744C17.0055 18.1377 16.1312 18.8073 15.0244 19.2832C16.3304 19.6484 17.3597 20.3457 18.1123 21.375C18.876 22.3932 19.2578 23.6107 19.2578 25.0273C19.2578 27.1966 18.555 28.901 17.1494 30.1406C15.7438 31.3802 13.7572 32 11.1895 32H2.80566ZM5.99316 20.6943V29.3936H11.2559C12.7389 29.3936 13.9066 29.0117 14.7588 28.248C15.6221 27.4733 16.0537 26.4108 16.0537 25.0605C16.0537 22.1497 14.471 20.6943 11.3057 20.6943H5.99316ZM5.99316 18.1377H10.8076C12.2021 18.1377 13.3145 17.7891 14.1445 17.0918C14.9857 16.3945 15.4062 15.4482 15.4062 14.2529C15.4062 12.9248 15.0189 11.9619 14.2441 11.3643C13.4694 10.7555 12.2907 10.4512 10.708 10.4512H5.99316V18.1377ZM42.7059 7.82812V24.2637C42.6948 26.5436 41.9754 28.4085 40.5477 29.8584C39.131 31.3083 37.2052 32.1217 34.7703 32.2988L33.9236 32.332C31.2785 32.332 29.1701 31.6182 27.5984 30.1904C26.0268 28.7627 25.2299 26.7982 25.2078 24.2969V7.82812H28.3621V24.1973C28.3621 25.946 28.8436 27.3073 29.8064 28.2812C30.7693 29.2441 32.1417 29.7256 33.9236 29.7256C35.7277 29.7256 37.1056 29.2441 38.0574 28.2812C39.0203 27.3184 39.5018 25.9626 39.5018 24.2139V7.82812H42.7059ZM56.5582 21.2256C53.8245 20.4398 51.8323 19.4769 50.5816 18.3369C49.3421 17.1859 48.7223 15.7692 48.7223 14.0869C48.7223 12.1833 49.4804 10.6117 50.9967 9.37207C52.524 8.12142 54.5051 7.49609 56.94 7.49609C58.6002 7.49609 60.0777 7.81706 61.3727 8.45898C62.6786 9.10091 63.6858 9.98633 64.3941 11.1152C65.1135 12.2441 65.4732 13.4782 65.4732 14.8174H62.2691C62.2691 13.3564 61.8043 12.2109 60.8746 11.3809C59.9449 10.5397 58.6334 10.1191 56.94 10.1191C55.3684 10.1191 54.1399 10.4678 53.2545 11.165C52.3801 11.8512 51.943 12.8086 51.943 14.0371C51.943 15.0221 52.358 15.8577 53.1881 16.5439C54.0292 17.2191 55.4514 17.8389 57.4547 18.4033C59.469 18.9678 61.0406 19.5931 62.1695 20.2793C63.3095 20.9544 64.1507 21.7458 64.693 22.6533C65.2464 23.5609 65.523 24.6289 65.523 25.8574C65.523 27.8164 64.7594 29.388 63.232 30.5723C61.7047 31.7454 59.6627 32.332 57.1061 32.332C55.4459 32.332 53.8964 32.0166 52.4576 31.3857C51.0188 30.7438 49.9065 29.8695 49.1207 28.7627C48.346 27.6559 47.9586 26.3997 47.9586 24.9941H51.1627C51.1627 26.4551 51.6995 27.6117 52.773 28.4639C53.8577 29.305 55.302 29.7256 57.1061 29.7256C58.7883 29.7256 60.0777 29.3825 60.9742 28.6963C61.8707 28.0101 62.3189 27.0749 62.3189 25.8906C62.3189 24.7064 61.9039 23.7933 61.0738 23.1514C60.2438 22.4984 58.7385 21.8564 56.5582 21.2256ZM77.4662 20.7607L74.5111 23.832V32H71.3236V7.82812H74.5111V19.7812L85.2523 7.82812H89.1039L79.5912 18.5029L89.851 32H86.0326L77.4662 20.7607ZM107.688 25.6914H97.5607L95.2863 32H91.9992L101.23 7.82812H104.019L113.266 32H109.995L107.688 25.6914ZM98.5236 23.0684H106.741L102.624 11.7627L98.5236 23.0684ZM122.337 7.82812L130.239 27.5508L138.142 7.82812H142.275V32H139.088V22.5869L139.387 12.4268L131.451 32H129.011L121.092 12.4766L121.407 22.5869V32H118.22V7.82812H122.337ZM187.126 21.2256C184.392 20.4398 182.4 19.4769 181.15 18.3369C179.91 17.1859 179.29 15.7692 179.29 14.0869C179.29 12.1833 180.048 10.6117 181.565 9.37207C183.092 8.12142 185.073 7.49609 187.508 7.49609C189.168 7.49609 190.646 7.81706 191.941 8.45898C193.247 9.10091 194.254 9.98633 194.962 11.1152C195.682 12.2441 196.041 13.4782 196.041 14.8174H192.837C192.837 13.3564 192.372 12.2109 191.443 11.3809C190.513 10.5397 189.201 10.1191 187.508 10.1191C185.936 10.1191 184.708 10.4678 183.822 11.165C182.948 11.8512 182.511 12.8086 182.511 14.0371C182.511 15.0221 182.926 15.8577 183.756 16.5439C184.597 17.2191 186.019 17.8389 188.023 18.4033C190.037 18.9678 191.609 19.5931 192.738 20.2793C193.877 20.9544 194.719 21.7458 195.261 22.6533C195.814 23.5609 196.091 24.6289 196.091 25.8574C196.091 27.8164 195.327 29.388 193.8 30.5723C192.273 31.7454 190.231 32.332 187.674 32.332C186.014 32.332 184.464 32.0166 183.026 31.3857C181.587 30.7438 180.474 29.8695 179.689 28.7627C178.914 27.6559 178.527 26.3997 178.527 24.9941H181.731C181.731 26.4551 182.267 27.6117 183.341 28.4639C184.426 29.305 185.87 29.7256 187.674 29.7256C189.356 29.7256 190.646 29.3825 191.542 28.6963C192.439 28.0101 192.887 27.0749 192.887 25.8906C192.887 24.7064 192.472 23.7933 191.642 23.1514C190.812 22.4984 189.307 21.8564 187.126 21.2256Z" fill="white"/>
<rect x="154.284" y="11.1846" width="4.19407" height="8.38813" fill="#DC0000"/>
<rect x="165.974" y="11.1748" width="3.24072" height="11.689" transform="rotate(89.8332 165.974 11.1748)" fill="#DC0000"/>
<rect x="162.295" y="10.9326" width="4.19407" height="8.38813" fill="#DC0000"/>
<path d="M160.156 7.26953L166.028 11.184H154.284L160.156 7.26953Z" fill="#DC0000"/>
<circle cx="160.156" cy="14.2598" r="13.2598" stroke="white" stroke-width="2"/>
<rect x="166.028" y="26.7842" width="1.11842" height="5.03288" transform="rotate(-26.6177 166.028 26.7842)" fill="white"/>
<rect x="166.928" y="31.8301" width="4.30505" height="13.8901" transform="rotate(-26.6177 166.928 31.8301)" fill="white"/>
<path d="M167.909 30.1719L168.515 31.2204L166.931 31.8495L167.909 30.1719Z" fill="white"/>
<path d="M167.909 30.1719L168.515 31.2204L166.931 31.8495L167.909 30.1719Z" fill="white"/>
<path d="M168.404 29.7783L170.781 29.9181L169.103 30.7569L168.404 29.7783Z" fill="white"/>
<path d="M168.404 29.7783L170.781 29.9181L169.103 30.7569L168.404 29.7783Z" fill="white"/>
<rect x="174.079" y="43.6035" width="2.2689" height="0.94324" transform="rotate(-26.7516 174.079 43.6035)" fill="white"/>
<path d="M174.044 43.4434L174.538 44.422L173.158 44.1779L174.044 43.4434Z" fill="white"/>
<path d="M175.547 42.7398L176.793 42.3598L176.513 43.4783L175.547 42.7398Z" fill="white"/>
</svg>
