<svg width="824" height="168" viewBox="0 0 824 168" fill="none" xmlns="http://www.w3.org/2000/svg">
<rect x="653.524" y="42.0339" width="15.7628" height="31.5257" fill="#DC0000"/>
<rect x="697.457" y="41.9982" width="12.1798" height="43.9314" transform="rotate(89.8332 697.457 41.9982)" fill="#DC0000"/>
<rect x="683.631" y="41.0879" width="15.7628" height="31.5257" fill="#DC0000"/>
<path d="M675.592 27.3225L697.66 42.0345H653.524L675.592 27.3225Z" fill="#DC0000"/>
<circle cx="675.594" cy="53.5937" r="50.0937" stroke="white" stroke-width="7"/>
<rect x="697.663" y="100.664" width="4.20343" height="18.9154" transform="rotate(-26.6177 697.663 100.664)" fill="white"/>
<rect x="701.043" y="119.629" width="16.18" height="52.204" transform="rotate(-26.6177 701.043 119.629)" fill="white"/>
<path d="M704.732 113.398L707.007 117.339L701.054 119.703L704.732 113.398Z" fill="white"/>
<path d="M704.732 113.398L707.007 117.339L701.054 119.703L704.732 113.398Z" fill="white"/>
<path d="M706.593 111.916L715.525 112.441L709.22 115.594L706.593 111.916Z" fill="white"/>
<path d="M706.593 111.916L715.525 112.441L709.22 115.594L706.593 111.916Z" fill="white"/>
<rect x="727.921" y="163.878" width="8.52736" height="3.54504" transform="rotate(-26.7516 727.921 163.878)" fill="white"/>
<path d="M727.788 163.275L729.646 166.953L724.459 166.036L727.788 163.275Z" fill="white"/>
<path d="M733.439 160.633L738.12 159.205L737.068 163.408L733.439 160.633Z" fill="white"/>
<path d="M8.82959 104V27.9297H33.6987C41.9536 27.9297 48.1535 29.6364 52.2983 33.0498C56.478 36.4632 58.5679 41.5137 58.5679 48.2012C58.5679 51.7539 57.5578 54.9061 55.5376 57.6577C53.5174 60.3745 50.7658 62.4818 47.2827 63.9795C51.3927 65.1289 54.632 67.3232 57.0005 70.5625C59.4038 73.7669 60.6055 77.5983 60.6055 82.0566C60.6055 88.8835 58.3937 94.2474 53.9702 98.1484C49.5467 102.049 43.2946 104 35.2139 104H8.82959ZM18.8608 68.4204V95.7974H35.4229C40.0902 95.7974 43.7648 94.5957 46.4468 92.1924C49.1636 89.7542 50.522 86.4105 50.522 82.1611C50.522 73.0007 45.5412 68.4204 35.5796 68.4204H18.8608ZM18.8608 60.3745H34.0122C38.4009 60.3745 41.9014 59.2773 44.5137 57.083C47.1608 54.8887 48.4844 51.9106 48.4844 48.1489C48.4844 43.9692 47.2653 40.939 44.8271 39.0581C42.389 37.1424 38.6795 36.1846 33.6987 36.1846H18.8608V60.3745ZM162.753 27.9297V79.6533C162.718 86.8285 160.454 92.6974 155.961 97.2603C151.503 101.823 145.442 104.383 137.779 104.94L135.115 105.045C126.79 105.045 120.155 102.798 115.209 98.3052C110.263 93.812 107.755 87.6296 107.685 79.7578V27.9297H117.612V79.4443C117.612 84.9476 119.127 89.2318 122.158 92.2969C125.188 95.3271 129.507 96.8423 135.115 96.8423C140.792 96.8423 145.129 95.3271 148.124 92.2969C151.154 89.2666 152.669 84.9998 152.669 79.4966V27.9297H162.753ZM234.702 70.0923C226.099 67.6193 219.829 64.589 215.893 61.0015C211.992 57.3791 210.042 52.9207 210.042 47.6265C210.042 41.6356 212.428 36.6896 217.2 32.7886C222.006 28.8527 228.241 26.8848 235.904 26.8848C241.128 26.8848 245.778 27.8949 249.853 29.915C253.963 31.9352 257.133 34.7217 259.362 38.2744C261.626 41.8271 262.758 45.7108 262.758 49.9253H252.675C252.675 45.3276 251.212 41.7227 248.286 39.1104C245.36 36.4632 241.233 35.1396 235.904 35.1396C230.958 35.1396 227.091 36.2368 224.305 38.4312C221.553 40.5907 220.178 43.6035 220.178 47.4697C220.178 50.5697 221.484 53.1994 224.096 55.3589C226.743 57.4836 231.219 59.4341 237.523 61.2104C243.862 62.9868 248.808 64.9548 252.361 67.1143C255.949 69.2389 258.596 71.7293 260.303 74.5854C262.044 77.4416 262.915 80.8027 262.915 84.6689C262.915 90.834 260.512 95.7799 255.705 99.5068C250.898 103.199 244.472 105.045 236.426 105.045C231.202 105.045 226.325 104.052 221.797 102.067C217.269 100.047 213.769 97.2951 211.296 93.812C208.858 90.3289 207.639 86.3757 207.639 81.9521H217.722C217.722 86.5498 219.411 90.1896 222.79 92.8716C226.203 95.5187 230.749 96.8423 236.426 96.8423C241.72 96.8423 245.778 95.7625 248.599 93.603C251.421 91.4435 252.831 88.5003 252.831 84.7734C252.831 81.0465 251.525 78.173 248.913 76.1528C246.301 74.0978 241.564 72.0776 234.702 70.0923ZM328.856 68.6294L319.556 78.2949V104H309.525V27.9297H319.556V65.5469L353.359 27.9297H365.48L335.543 61.5239L367.831 104H355.815L328.856 68.6294ZM452.32 84.1465H420.449L413.292 104H402.947L431.996 27.9297H440.773L469.874 104H459.582L452.32 84.1465ZM423.48 75.8916H449.341L436.384 40.312L423.48 75.8916ZM526.776 27.9297L551.646 89.998L576.515 27.9297H589.524V104H579.493V74.3765L580.433 42.4019L555.46 104H547.779L522.858 42.5586L523.851 74.3765V104H513.819V27.9297H526.776ZM783.846 70.0923C775.243 67.6193 768.973 64.589 765.037 61.0015C761.136 57.3791 759.186 52.9207 759.186 47.6265C759.186 41.6356 761.572 36.6896 766.344 32.7886C771.15 28.8527 777.385 26.8848 785.048 26.8848C790.272 26.8848 794.922 27.8949 798.997 29.915C803.107 31.9352 806.277 34.7217 808.506 38.2744C810.77 41.8271 811.902 45.7108 811.902 49.9253H801.819C801.819 45.3276 800.356 41.7227 797.43 39.1104C794.504 36.4632 790.377 35.1396 785.048 35.1396C780.102 35.1396 776.236 36.2368 773.449 38.4312C770.697 40.5907 769.322 43.6035 769.322 47.4697C769.322 50.5697 770.628 53.1994 773.24 55.3589C775.887 57.4836 780.363 59.4341 786.667 61.2104C793.007 62.9868 797.953 64.9548 801.505 67.1143C805.093 69.2389 807.74 71.7293 809.447 74.5854C811.188 77.4416 812.059 80.8027 812.059 84.6689C812.059 90.834 809.656 95.7799 804.849 99.5068C800.042 103.199 793.616 105.045 785.57 105.045C780.346 105.045 775.469 104.052 770.941 102.067C766.413 100.047 762.913 97.2951 760.44 93.812C758.002 90.3289 756.783 86.3757 756.783 81.9521H766.866C766.866 86.5498 768.555 90.1896 771.934 92.8716C775.347 95.5187 779.893 96.8423 785.57 96.8423C790.864 96.8423 794.922 95.7625 797.744 93.603C800.565 91.4435 801.975 88.5003 801.975 84.7734C801.975 81.0465 800.669 78.173 798.057 76.1528C795.445 74.0978 790.708 72.0776 783.846 70.0923Z" fill="white"/>
</svg>
