<svg width="345" height="88" viewBox="0 0 345 88" fill="none" xmlns="http://www.w3.org/2000/svg">
<path d="M14.048 78.291L14.036 72.171L11 77.271H10.448L7.412 72.207V78.291H6.26V69.891H7.244L10.748 75.795L14.204 69.891H15.188L15.2 78.291H14.048ZM23.3009 75.147C23.3009 75.235 23.2929 75.351 23.2769 75.495H18.1169C18.1889 76.055 18.4329 76.507 18.8489 76.851C19.2729 77.187 19.7969 77.355 20.4209 77.355C21.1809 77.355 21.7929 77.099 22.2569 76.587L22.8929 77.331C22.6049 77.667 22.2449 77.923 21.8129 78.099C21.3889 78.275 20.9129 78.363 20.3849 78.363C19.7129 78.363 19.1169 78.227 18.5969 77.955C18.0769 77.675 17.6729 77.287 17.3849 76.791C17.1049 76.295 16.9649 75.735 16.9649 75.111C16.9649 74.495 17.1009 73.939 17.3729 73.443C17.6529 72.947 18.0329 72.563 18.5129 72.291C19.0009 72.011 19.5489 71.871 20.1569 71.871C20.7649 71.871 21.3049 72.011 21.7769 72.291C22.2569 72.563 22.6289 72.947 22.8929 73.443C23.1649 73.939 23.3009 74.507 23.3009 75.147ZM20.1569 72.843C19.6049 72.843 19.1409 73.011 18.7649 73.347C18.3969 73.683 18.1809 74.123 18.1169 74.667H22.1969C22.1329 74.131 21.9129 73.695 21.5369 73.359C21.1689 73.015 20.7089 72.843 20.1569 72.843ZM30.6486 75.147C30.6486 75.235 30.6406 75.351 30.6246 75.495H25.4646C25.5366 76.055 25.7806 76.507 26.1966 76.851C26.6206 77.187 27.1446 77.355 27.7686 77.355C28.5286 77.355 29.1406 77.099 29.6046 76.587L30.2406 77.331C29.9526 77.667 29.5926 77.923 29.1606 78.099C28.7366 78.275 28.2606 78.363 27.7326 78.363C27.0606 78.363 26.4646 78.227 25.9446 77.955C25.4246 77.675 25.0206 77.287 24.7326 76.791C24.4526 76.295 24.3126 75.735 24.3126 75.111C24.3126 74.495 24.4486 73.939 24.7206 73.443C25.0006 72.947 25.3806 72.563 25.8606 72.291C26.3486 72.011 26.8966 71.871 27.5046 71.871C28.1126 71.871 28.6526 72.011 29.1246 72.291C29.6046 72.563 29.9766 72.947 30.2406 73.443C30.5126 73.939 30.6486 74.507 30.6486 75.147ZM27.5046 72.843C26.9526 72.843 26.4886 73.011 26.1126 73.347C25.7446 73.683 25.5286 74.123 25.4646 74.667H29.5446C29.4806 74.131 29.2606 73.695 28.8846 73.359C28.5166 73.015 28.0566 72.843 27.5046 72.843ZM35.8243 77.919C35.6563 78.063 35.4483 78.175 35.2003 78.255C34.9523 78.327 34.6963 78.363 34.4323 78.363C33.7923 78.363 33.2963 78.191 32.9443 77.847C32.5923 77.503 32.4163 77.011 32.4163 76.371V72.879H31.3363V71.931H32.4163V70.539H33.5683V71.931H35.3923V72.879H33.5683V76.323C33.5683 76.667 33.6523 76.931 33.8203 77.115C33.9963 77.299 34.2443 77.391 34.5643 77.391C34.9163 77.391 35.2163 77.291 35.4643 77.091L35.8243 77.919ZM37.217 71.931H38.369V78.291H37.217V71.931ZM37.793 70.707C37.569 70.707 37.381 70.635 37.229 70.491C37.085 70.347 37.013 70.171 37.013 69.963C37.013 69.755 37.085 69.579 37.229 69.435C37.381 69.283 37.569 69.207 37.793 69.207C38.017 69.207 38.201 69.279 38.345 69.423C38.497 69.559 38.573 69.731 38.573 69.939C38.573 70.155 38.497 70.339 38.345 70.491C38.201 70.635 38.017 70.707 37.793 70.707ZM43.9646 71.871C44.7726 71.871 45.4126 72.107 45.8846 72.579C46.3646 73.043 46.6046 73.727 46.6046 74.631V78.291H45.4526V74.763C45.4526 74.147 45.3046 73.683 45.0086 73.371C44.7126 73.059 44.2886 72.903 43.7366 72.903C43.1126 72.903 42.6206 73.087 42.2606 73.455C41.9006 73.815 41.7206 74.335 41.7206 75.015V78.291H40.5686V71.931H41.6726V72.891C41.9046 72.563 42.2166 72.311 42.6086 72.135C43.0086 71.959 43.4606 71.871 43.9646 71.871ZM54.8557 71.931V77.427C54.8557 78.539 54.5797 79.359 54.0277 79.887C53.4757 80.423 52.6517 80.691 51.5557 80.691C50.9557 80.691 50.3837 80.607 49.8397 80.439C49.2957 80.279 48.8557 80.047 48.5197 79.743L49.0717 78.855C49.3677 79.111 49.7317 79.311 50.1637 79.455C50.6037 79.607 51.0557 79.683 51.5197 79.683C52.2637 79.683 52.8117 79.507 53.1637 79.155C53.5237 78.803 53.7037 78.267 53.7037 77.547V77.043C53.4317 77.371 53.0957 77.619 52.6957 77.787C52.3037 77.947 51.8757 78.027 51.4117 78.027C50.8037 78.027 50.2517 77.899 49.7557 77.643C49.2677 77.379 48.8837 77.015 48.6037 76.551C48.3237 76.079 48.1837 75.543 48.1837 74.943C48.1837 74.343 48.3237 73.811 48.6037 73.347C48.8837 72.875 49.2677 72.511 49.7557 72.255C50.2517 71.999 50.8037 71.871 51.4117 71.871C51.8917 71.871 52.3357 71.959 52.7437 72.135C53.1597 72.311 53.4997 72.571 53.7637 72.915V71.931H54.8557ZM51.5437 77.019C51.9597 77.019 52.3317 76.931 52.6597 76.755C52.9957 76.579 53.2557 76.335 53.4397 76.023C53.6317 75.703 53.7277 75.343 53.7277 74.943C53.7277 74.327 53.5237 73.831 53.1157 73.455C52.7077 73.071 52.1837 72.879 51.5437 72.879C50.8957 72.879 50.3677 73.071 49.9597 73.455C49.5517 73.831 49.3477 74.327 49.3477 74.943C49.3477 75.343 49.4397 75.703 49.6237 76.023C49.8157 76.335 50.0757 76.579 50.4037 76.755C50.7397 76.931 51.1197 77.019 51.5437 77.019ZM63.7235 69.891C64.8115 69.891 65.6675 70.151 66.2915 70.671C66.9155 71.191 67.2275 71.907 67.2275 72.819C67.2275 73.731 66.9155 74.447 66.2915 74.967C65.6675 75.487 64.8115 75.747 63.7235 75.747H61.6475V78.291H60.4475V69.891H63.7235ZM63.6875 74.703C64.4475 74.703 65.0275 74.543 65.4275 74.223C65.8275 73.895 66.0275 73.427 66.0275 72.819C66.0275 72.211 65.8275 71.747 65.4275 71.427C65.0275 71.099 64.4475 70.935 63.6875 70.935H61.6475V74.703H63.6875ZM71.523 78.363C70.891 78.363 70.323 78.223 69.819 77.943C69.315 77.663 68.919 77.279 68.631 76.791C68.351 76.295 68.211 75.735 68.211 75.111C68.211 74.487 68.351 73.931 68.631 73.443C68.919 72.947 69.315 72.563 69.819 72.291C70.323 72.011 70.891 71.871 71.523 71.871C72.155 71.871 72.719 72.011 73.215 72.291C73.719 72.563 74.111 72.947 74.391 73.443C74.679 73.931 74.823 74.487 74.823 75.111C74.823 75.735 74.679 76.295 74.391 76.791C74.111 77.279 73.719 77.663 73.215 77.943C72.719 78.223 72.155 78.363 71.523 78.363ZM71.523 77.355C71.931 77.355 72.295 77.263 72.615 77.079C72.943 76.887 73.199 76.623 73.383 76.287C73.567 75.943 73.659 75.551 73.659 75.111C73.659 74.671 73.567 74.283 73.383 73.947C73.199 73.603 72.943 73.339 72.615 73.155C72.295 72.971 71.931 72.879 71.523 72.879C71.115 72.879 70.747 72.971 70.419 73.155C70.099 73.339 69.843 73.603 69.651 73.947C69.467 74.283 69.375 74.671 69.375 75.111C69.375 75.551 69.467 75.943 69.651 76.287C69.843 76.623 70.099 76.887 70.419 77.079C70.747 77.263 71.115 77.355 71.523 77.355ZM76.4162 71.931H77.5682V78.291H76.4162V71.931ZM76.9922 70.707C76.7682 70.707 76.5802 70.635 76.4282 70.491C76.2842 70.347 76.2122 70.171 76.2122 69.963C76.2122 69.755 76.2842 69.579 76.4282 69.435C76.5802 69.283 76.7682 69.207 76.9922 69.207C77.2162 69.207 77.4002 69.279 77.5442 69.423C77.6962 69.559 77.7722 69.731 77.7722 69.939C77.7722 70.155 77.6962 70.339 77.5442 70.491C77.4002 70.635 77.2162 70.707 76.9922 70.707ZM83.1638 71.871C83.9718 71.871 84.6118 72.107 85.0838 72.579C85.5638 73.043 85.8038 73.727 85.8038 74.631V78.291H84.6518V74.763C84.6518 74.147 84.5038 73.683 84.2078 73.371C83.9118 73.059 83.4878 72.903 82.9358 72.903C82.3118 72.903 81.8198 73.087 81.4598 73.455C81.0998 73.815 80.9198 74.335 80.9198 75.015V78.291H79.7678V71.931H80.8718V72.891C81.1038 72.563 81.4158 72.311 81.8078 72.135C82.2078 71.959 82.6598 71.871 83.1638 71.871ZM91.5118 77.919C91.3438 78.063 91.1358 78.175 90.8878 78.255C90.6398 78.327 90.3838 78.363 90.1198 78.363C89.4798 78.363 88.9838 78.191 88.6318 77.847C88.2798 77.503 88.1038 77.011 88.1038 76.371V72.879H87.0238V71.931H88.1038V70.539H89.2558V71.931H91.0798V72.879H89.2558V76.323C89.2558 76.667 89.3398 76.931 89.5078 77.115C89.6838 77.299 89.9318 77.391 90.2518 77.391C90.6038 77.391 90.9038 77.291 91.1518 77.091L91.5118 77.919ZM98.4552 70.263C97.7672 70.263 97.4232 70.635 97.4232 71.379V71.931H99.2712V72.879H97.4472V78.291H96.2952V72.879H95.2152V71.931H96.2952V71.367C96.2952 70.735 96.4792 70.235 96.8472 69.867C97.2152 69.499 97.7312 69.315 98.3952 69.315C98.6512 69.315 98.8912 69.347 99.1152 69.411C99.3392 69.475 99.5312 69.567 99.6912 69.687L99.3432 70.563C99.0792 70.363 98.7832 70.263 98.4552 70.263ZM102.988 78.363C102.356 78.363 101.788 78.223 101.284 77.943C100.78 77.663 100.384 77.279 100.096 76.791C99.8159 76.295 99.6759 75.735 99.6759 75.111C99.6759 74.487 99.8159 73.931 100.096 73.443C100.384 72.947 100.78 72.563 101.284 72.291C101.788 72.011 102.356 71.871 102.988 71.871C103.62 71.871 104.184 72.011 104.68 72.291C105.184 72.563 105.576 72.947 105.856 73.443C106.144 73.931 106.288 74.487 106.288 75.111C106.288 75.735 106.144 76.295 105.856 76.791C105.576 77.279 105.184 77.663 104.68 77.943C104.184 78.223 103.62 78.363 102.988 78.363ZM102.988 77.355C103.396 77.355 103.76 77.263 104.08 77.079C104.408 76.887 104.664 76.623 104.848 76.287C105.032 75.943 105.124 75.551 105.124 75.111C105.124 74.671 105.032 74.283 104.848 73.947C104.664 73.603 104.408 73.339 104.08 73.155C103.76 72.971 103.396 72.879 102.988 72.879C102.58 72.879 102.212 72.971 101.884 73.155C101.564 73.339 101.308 73.603 101.116 73.947C100.932 74.283 100.84 74.671 100.84 75.111C100.84 75.551 100.932 75.943 101.116 76.287C101.308 76.623 101.564 76.887 101.884 77.079C102.212 77.263 102.58 77.355 102.988 77.355ZM108.985 72.999C109.185 72.631 109.481 72.351 109.873 72.159C110.265 71.967 110.741 71.871 111.301 71.871V72.987C111.237 72.979 111.149 72.975 111.037 72.975C110.413 72.975 109.921 73.163 109.561 73.539C109.209 73.907 109.033 74.435 109.033 75.123V78.291H107.881V71.931H108.985V72.999ZM119.398 71.871C120.014 71.871 120.566 72.007 121.054 72.279C121.542 72.551 121.922 72.931 122.194 73.419C122.474 73.907 122.614 74.471 122.614 75.111C122.614 75.751 122.474 76.319 122.194 76.815C121.922 77.303 121.542 77.683 121.054 77.955C120.566 78.227 120.014 78.363 119.398 78.363C118.942 78.363 118.522 78.275 118.138 78.099C117.762 77.923 117.442 77.667 117.178 77.331V80.619H116.026V71.931H117.13V72.939C117.386 72.587 117.71 72.323 118.102 72.147C118.494 71.963 118.926 71.871 119.398 71.871ZM119.302 77.355C119.71 77.355 120.074 77.263 120.394 77.079C120.722 76.887 120.978 76.623 121.162 76.287C121.354 75.943 121.45 75.551 121.45 75.111C121.45 74.671 121.354 74.283 121.162 73.947C120.978 73.603 120.722 73.339 120.394 73.155C120.074 72.971 119.71 72.879 119.302 72.879C118.902 72.879 118.538 72.975 118.21 73.167C117.89 73.351 117.634 73.611 117.442 73.947C117.258 74.283 117.166 74.671 117.166 75.111C117.166 75.551 117.258 75.943 117.442 76.287C117.626 76.623 117.882 76.887 118.21 77.079C118.538 77.263 118.902 77.355 119.302 77.355ZM125.309 72.999C125.509 72.631 125.805 72.351 126.197 72.159C126.589 71.967 127.065 71.871 127.625 71.871V72.987C127.561 72.979 127.473 72.975 127.361 72.975C126.737 72.975 126.245 73.163 125.885 73.539C125.533 73.907 125.357 74.435 125.357 75.123V78.291H124.205V71.931H125.309V72.999ZM131.711 78.363C131.079 78.363 130.511 78.223 130.007 77.943C129.503 77.663 129.107 77.279 128.819 76.791C128.539 76.295 128.399 75.735 128.399 75.111C128.399 74.487 128.539 73.931 128.819 73.443C129.107 72.947 129.503 72.563 130.007 72.291C130.511 72.011 131.079 71.871 131.711 71.871C132.343 71.871 132.907 72.011 133.403 72.291C133.907 72.563 134.299 72.947 134.579 73.443C134.867 73.931 135.011 74.487 135.011 75.111C135.011 75.735 134.867 76.295 134.579 76.791C134.299 77.279 133.907 77.663 133.403 77.943C132.907 78.223 132.343 78.363 131.711 78.363ZM131.711 77.355C132.119 77.355 132.483 77.263 132.803 77.079C133.131 76.887 133.387 76.623 133.571 76.287C133.755 75.943 133.847 75.551 133.847 75.111C133.847 74.671 133.755 74.283 133.571 73.947C133.387 73.603 133.131 73.339 132.803 73.155C132.483 72.971 132.119 72.879 131.711 72.879C131.303 72.879 130.935 72.971 130.607 73.155C130.287 73.339 130.031 73.603 129.839 73.947C129.655 74.283 129.563 74.671 129.563 75.111C129.563 75.551 129.655 75.943 129.839 76.287C130.031 76.623 130.287 76.887 130.607 77.079C130.935 77.263 131.303 77.355 131.711 77.355ZM139.976 71.871C140.592 71.871 141.144 72.007 141.632 72.279C142.12 72.551 142.5 72.931 142.772 73.419C143.052 73.907 143.192 74.471 143.192 75.111C143.192 75.751 143.052 76.319 142.772 76.815C142.5 77.303 142.12 77.683 141.632 77.955C141.144 78.227 140.592 78.363 139.976 78.363C139.52 78.363 139.1 78.275 138.716 78.099C138.34 77.923 138.02 77.667 137.756 77.331V80.619H136.604V71.931H137.708V72.939C137.964 72.587 138.288 72.323 138.68 72.147C139.072 71.963 139.504 71.871 139.976 71.871ZM139.88 77.355C140.288 77.355 140.652 77.263 140.972 77.079C141.3 76.887 141.556 76.623 141.74 76.287C141.932 75.943 142.028 75.551 142.028 75.111C142.028 74.671 141.932 74.283 141.74 73.947C141.556 73.603 141.3 73.339 140.972 73.155C140.652 72.971 140.288 72.879 139.88 72.879C139.48 72.879 139.116 72.975 138.788 73.167C138.468 73.351 138.212 73.611 138.02 73.947C137.836 74.283 137.744 74.671 137.744 75.111C137.744 75.551 137.836 75.943 138.02 76.287C138.204 76.623 138.46 76.887 138.788 77.079C139.116 77.263 139.48 77.355 139.88 77.355ZM150.531 75.147C150.531 75.235 150.523 75.351 150.507 75.495H145.347C145.419 76.055 145.663 76.507 146.079 76.851C146.503 77.187 147.027 77.355 147.651 77.355C148.411 77.355 149.023 77.099 149.487 76.587L150.123 77.331C149.835 77.667 149.475 77.923 149.043 78.099C148.619 78.275 148.143 78.363 147.615 78.363C146.943 78.363 146.347 78.227 145.827 77.955C145.307 77.675 144.903 77.287 144.615 76.791C144.335 76.295 144.195 75.735 144.195 75.111C144.195 74.495 144.331 73.939 144.603 73.443C144.883 72.947 145.263 72.563 145.743 72.291C146.231 72.011 146.779 71.871 147.387 71.871C147.995 71.871 148.535 72.011 149.007 72.291C149.487 72.563 149.859 72.947 150.123 73.443C150.395 73.939 150.531 74.507 150.531 75.147ZM147.387 72.843C146.835 72.843 146.371 73.011 145.995 73.347C145.627 73.683 145.411 74.123 145.347 74.667H149.427C149.363 74.131 149.143 73.695 148.767 73.359C148.399 73.015 147.939 72.843 147.387 72.843ZM153.235 72.999C153.435 72.631 153.731 72.351 154.123 72.159C154.515 71.967 154.991 71.871 155.551 71.871V72.987C155.487 72.979 155.399 72.975 155.287 72.975C154.663 72.975 154.171 73.163 153.811 73.539C153.459 73.907 153.283 74.435 153.283 75.123V78.291H152.131V71.931H153.235V72.999ZM160.805 77.919C160.637 78.063 160.429 78.175 160.181 78.255C159.933 78.327 159.677 78.363 159.413 78.363C158.773 78.363 158.277 78.191 157.925 77.847C157.573 77.503 157.397 77.011 157.397 76.371V72.879H156.317V71.931H157.397V70.539H158.549V71.931H160.373V72.879H158.549V76.323C158.549 76.667 158.633 76.931 158.801 77.115C158.977 77.299 159.225 77.391 159.545 77.391C159.897 77.391 160.197 77.291 160.445 77.091L160.805 77.919ZM167.708 71.931L164.624 78.927C164.352 79.575 164.032 80.031 163.664 80.295C163.304 80.559 162.868 80.691 162.356 80.691C162.044 80.691 161.74 80.639 161.444 80.535C161.156 80.439 160.916 80.295 160.724 80.103L161.216 79.239C161.544 79.551 161.924 79.707 162.356 79.707C162.636 79.707 162.868 79.631 163.052 79.479C163.244 79.335 163.416 79.083 163.568 78.723L163.772 78.279L160.964 71.931H162.164L164.384 77.019L166.58 71.931H167.708ZM175.378 71.871C175.994 71.871 176.546 72.007 177.034 72.279C177.522 72.551 177.902 72.931 178.174 73.419C178.454 73.907 178.594 74.471 178.594 75.111C178.594 75.751 178.454 76.319 178.174 76.815C177.902 77.303 177.522 77.683 177.034 77.955C176.546 78.227 175.994 78.363 175.378 78.363C174.906 78.363 174.474 78.271 174.082 78.087C173.69 77.903 173.366 77.635 173.11 77.283V78.291H172.006V69.387H173.158V72.891C173.414 72.555 173.734 72.303 174.118 72.135C174.502 71.959 174.922 71.871 175.378 71.871ZM175.282 77.355C175.69 77.355 176.054 77.263 176.374 77.079C176.702 76.887 176.958 76.623 177.142 76.287C177.334 75.943 177.43 75.551 177.43 75.111C177.43 74.671 177.334 74.283 177.142 73.947C176.958 73.603 176.702 73.339 176.374 73.155C176.054 72.971 175.69 72.879 175.282 72.879C174.882 72.879 174.518 72.971 174.19 73.155C173.862 73.339 173.606 73.603 173.422 73.947C173.238 74.283 173.146 74.671 173.146 75.111C173.146 75.551 173.238 75.943 173.422 76.287C173.606 76.623 173.862 76.887 174.19 77.079C174.518 77.263 174.882 77.355 175.282 77.355ZM186.114 71.931V78.291H185.022V77.331C184.79 77.659 184.482 77.915 184.098 78.099C183.722 78.275 183.31 78.363 182.862 78.363C182.014 78.363 181.346 78.131 180.858 77.667C180.37 77.195 180.126 76.503 180.126 75.591V71.931H181.278V75.459C181.278 76.075 181.426 76.543 181.722 76.863C182.018 77.175 182.442 77.331 182.994 77.331C183.602 77.331 184.082 77.147 184.434 76.779C184.786 76.411 184.962 75.891 184.962 75.219V71.931H186.114ZM193.935 71.931L190.851 78.927C190.579 79.575 190.259 80.031 189.891 80.295C189.531 80.559 189.095 80.691 188.583 80.691C188.271 80.691 187.967 80.639 187.671 80.535C187.383 80.439 187.143 80.295 186.951 80.103L187.443 79.239C187.771 79.551 188.151 79.707 188.583 79.707C188.863 79.707 189.095 79.631 189.279 79.479C189.471 79.335 189.643 79.083 189.795 78.723L189.999 78.279L187.191 71.931H188.391L190.611 77.019L192.807 71.931H193.935ZM200.582 75.147C200.582 75.235 200.574 75.351 200.558 75.495H195.398C195.47 76.055 195.714 76.507 196.13 76.851C196.554 77.187 197.078 77.355 197.702 77.355C198.462 77.355 199.074 77.099 199.538 76.587L200.174 77.331C199.886 77.667 199.526 77.923 199.094 78.099C198.67 78.275 198.194 78.363 197.666 78.363C196.994 78.363 196.398 78.227 195.878 77.955C195.358 77.675 194.954 77.287 194.666 76.791C194.386 76.295 194.246 75.735 194.246 75.111C194.246 74.495 194.382 73.939 194.654 73.443C194.934 72.947 195.314 72.563 195.794 72.291C196.282 72.011 196.83 71.871 197.438 71.871C198.046 71.871 198.586 72.011 199.058 72.291C199.538 72.563 199.91 72.947 200.174 73.443C200.446 73.939 200.582 74.507 200.582 75.147ZM197.438 72.843C196.886 72.843 196.422 73.011 196.046 73.347C195.678 73.683 195.462 74.123 195.398 74.667H199.478C199.414 74.131 199.194 73.695 198.818 73.359C198.45 73.015 197.99 72.843 197.438 72.843ZM203.286 72.999C203.486 72.631 203.782 72.351 204.174 72.159C204.566 71.967 205.042 71.871 205.602 71.871V72.987C205.538 72.979 205.45 72.975 205.338 72.975C204.714 72.975 204.222 73.163 203.862 73.539C203.51 73.907 203.334 74.435 203.334 75.123V78.291H202.182V71.931H203.286V72.999ZM208.893 78.363C208.373 78.363 207.873 78.295 207.393 78.159C206.913 78.015 206.537 77.835 206.265 77.619L206.745 76.707C207.025 76.907 207.365 77.067 207.765 77.187C208.165 77.307 208.569 77.367 208.977 77.367C209.985 77.367 210.489 77.079 210.489 76.503C210.489 76.311 210.421 76.159 210.285 76.047C210.149 75.935 209.977 75.855 209.769 75.807C209.569 75.751 209.281 75.691 208.905 75.627C208.393 75.547 207.973 75.455 207.645 75.351C207.325 75.247 207.049 75.071 206.817 74.823C206.585 74.575 206.469 74.227 206.469 73.779C206.469 73.203 206.709 72.743 207.189 72.399C207.669 72.047 208.313 71.871 209.121 71.871C209.545 71.871 209.969 71.923 210.393 72.027C210.817 72.131 211.165 72.271 211.437 72.447L210.945 73.359C210.425 73.023 209.813 72.855 209.109 72.855C208.621 72.855 208.249 72.935 207.993 73.095C207.737 73.255 207.609 73.467 207.609 73.731C207.609 73.939 207.681 74.103 207.825 74.223C207.969 74.343 208.145 74.431 208.353 74.487C208.569 74.543 208.869 74.607 209.253 74.679C209.765 74.767 210.177 74.863 210.489 74.967C210.809 75.063 211.081 75.231 211.305 75.471C211.529 75.711 211.641 76.047 211.641 76.479C211.641 77.055 211.393 77.515 210.897 77.859C210.409 78.195 209.741 78.363 208.893 78.363ZM218.619 71.871C219.499 71.871 220.171 72.087 220.635 72.519C221.107 72.951 221.343 73.595 221.343 74.451V78.291H220.251V77.451C220.059 77.747 219.783 77.975 219.423 78.135C219.071 78.287 218.651 78.363 218.163 78.363C217.451 78.363 216.879 78.191 216.447 77.847C216.023 77.503 215.811 77.051 215.811 76.491C215.811 75.931 216.015 75.483 216.423 75.147C216.831 74.803 217.479 74.631 218.367 74.631H220.191V74.403C220.191 73.907 220.047 73.527 219.759 73.263C219.471 72.999 219.047 72.867 218.487 72.867C218.111 72.867 217.743 72.931 217.383 73.059C217.023 73.179 216.719 73.343 216.471 73.551L215.991 72.687C216.319 72.423 216.711 72.223 217.167 72.087C217.623 71.943 218.107 71.871 218.619 71.871ZM218.355 77.475C218.795 77.475 219.175 77.379 219.495 77.187C219.815 76.987 220.047 76.707 220.191 76.347V75.459H218.415C217.439 75.459 216.951 75.787 216.951 76.443C216.951 76.763 217.075 77.015 217.323 77.199C217.571 77.383 217.915 77.475 218.355 77.475ZM226.871 71.871C227.679 71.871 228.319 72.107 228.791 72.579C229.271 73.043 229.511 73.727 229.511 74.631V78.291H228.359V74.763C228.359 74.147 228.211 73.683 227.915 73.371C227.619 73.059 227.195 72.903 226.643 72.903C226.019 72.903 225.527 73.087 225.167 73.455C224.807 73.815 224.627 74.335 224.627 75.015V78.291H223.475V71.931H224.579V72.891C224.811 72.563 225.123 72.311 225.515 72.135C225.915 71.959 226.367 71.871 226.871 71.871ZM237.678 69.387V78.291H236.574V77.283C236.318 77.635 235.994 77.903 235.602 78.087C235.21 78.271 234.778 78.363 234.306 78.363C233.69 78.363 233.138 78.227 232.65 77.955C232.162 77.683 231.778 77.303 231.498 76.815C231.226 76.319 231.09 75.751 231.09 75.111C231.09 74.471 231.226 73.907 231.498 73.419C231.778 72.931 232.162 72.551 232.65 72.279C233.138 72.007 233.69 71.871 234.306 71.871C234.762 71.871 235.182 71.959 235.566 72.135C235.95 72.303 236.27 72.555 236.526 72.891V69.387H237.678ZM234.402 77.355C234.802 77.355 235.166 77.263 235.494 77.079C235.822 76.887 236.078 76.623 236.262 76.287C236.446 75.943 236.538 75.551 236.538 75.111C236.538 74.671 236.446 74.283 236.262 73.947C236.078 73.603 235.822 73.339 235.494 73.155C235.166 72.971 234.802 72.879 234.402 72.879C233.994 72.879 233.626 72.971 233.298 73.155C232.978 73.339 232.722 73.603 232.53 73.947C232.346 74.283 232.254 74.671 232.254 75.111C232.254 75.551 232.346 75.943 232.53 76.287C232.722 76.623 232.978 76.887 233.298 77.079C233.626 77.263 233.994 77.355 234.402 77.355ZM244.904 78.363C244.384 78.363 243.884 78.295 243.404 78.159C242.924 78.015 242.548 77.835 242.276 77.619L242.756 76.707C243.036 76.907 243.376 77.067 243.776 77.187C244.176 77.307 244.58 77.367 244.988 77.367C245.996 77.367 246.5 77.079 246.5 76.503C246.5 76.311 246.432 76.159 246.296 76.047C246.16 75.935 245.988 75.855 245.78 75.807C245.58 75.751 245.292 75.691 244.916 75.627C244.404 75.547 243.984 75.455 243.656 75.351C243.336 75.247 243.06 75.071 242.828 74.823C242.596 74.575 242.48 74.227 242.48 73.779C242.48 73.203 242.72 72.743 243.2 72.399C243.68 72.047 244.324 71.871 245.132 71.871C245.556 71.871 245.98 71.923 246.404 72.027C246.828 72.131 247.176 72.271 247.448 72.447L246.956 73.359C246.436 73.023 245.824 72.855 245.12 72.855C244.632 72.855 244.26 72.935 244.004 73.095C243.748 73.255 243.62 73.467 243.62 73.731C243.62 73.939 243.692 74.103 243.836 74.223C243.98 74.343 244.156 74.431 244.364 74.487C244.58 74.543 244.88 74.607 245.264 74.679C245.776 74.767 246.188 74.863 246.5 74.967C246.82 75.063 247.092 75.231 247.316 75.471C247.54 75.711 247.652 76.047 247.652 76.479C247.652 77.055 247.404 77.515 246.908 77.859C246.42 78.195 245.752 78.363 244.904 78.363ZM254.84 75.147C254.84 75.235 254.832 75.351 254.816 75.495H249.656C249.728 76.055 249.972 76.507 250.388 76.851C250.812 77.187 251.336 77.355 251.96 77.355C252.72 77.355 253.332 77.099 253.796 76.587L254.432 77.331C254.144 77.667 253.784 77.923 253.352 78.099C252.928 78.275 252.452 78.363 251.924 78.363C251.252 78.363 250.656 78.227 250.136 77.955C249.616 77.675 249.212 77.287 248.924 76.791C248.644 76.295 248.504 75.735 248.504 75.111C248.504 74.495 248.64 73.939 248.912 73.443C249.192 72.947 249.572 72.563 250.052 72.291C250.54 72.011 251.088 71.871 251.696 71.871C252.304 71.871 252.844 72.011 253.316 72.291C253.796 72.563 254.168 72.947 254.432 73.443C254.704 73.939 254.84 74.507 254.84 75.147ZM251.696 72.843C251.144 72.843 250.68 73.011 250.304 73.347C249.936 73.683 249.72 74.123 249.656 74.667H253.736C253.672 74.131 253.452 73.695 253.076 73.359C252.708 73.015 252.248 72.843 251.696 72.843ZM256.44 69.387H257.592V78.291H256.44V69.387ZM259.791 69.387H260.943V78.291H259.791V69.387ZM268.891 75.147C268.891 75.235 268.883 75.351 268.867 75.495H263.707C263.779 76.055 264.023 76.507 264.439 76.851C264.863 77.187 265.387 77.355 266.011 77.355C266.771 77.355 267.383 77.099 267.847 76.587L268.483 77.331C268.195 77.667 267.835 77.923 267.403 78.099C266.979 78.275 266.503 78.363 265.975 78.363C265.303 78.363 264.707 78.227 264.187 77.955C263.667 77.675 263.263 77.287 262.975 76.791C262.695 76.295 262.555 75.735 262.555 75.111C262.555 74.495 262.691 73.939 262.963 73.443C263.243 72.947 263.623 72.563 264.103 72.291C264.591 72.011 265.139 71.871 265.747 71.871C266.355 71.871 266.895 72.011 267.367 72.291C267.847 72.563 268.219 72.947 268.483 73.443C268.755 73.939 268.891 74.507 268.891 75.147ZM265.747 72.843C265.195 72.843 264.731 73.011 264.355 73.347C263.987 73.683 263.771 74.123 263.707 74.667H267.787C267.723 74.131 267.503 73.695 267.127 73.359C266.759 73.015 266.299 72.843 265.747 72.843ZM271.594 72.999C271.794 72.631 272.09 72.351 272.482 72.159C272.874 71.967 273.35 71.871 273.91 71.871V72.987C273.846 72.979 273.758 72.975 273.646 72.975C273.022 72.975 272.53 73.163 272.17 73.539C271.818 73.907 271.642 74.435 271.642 75.123V78.291H270.49V71.931H271.594V72.999ZM277.201 78.363C276.681 78.363 276.181 78.295 275.701 78.159C275.221 78.015 274.845 77.835 274.573 77.619L275.053 76.707C275.333 76.907 275.673 77.067 276.073 77.187C276.473 77.307 276.877 77.367 277.285 77.367C278.293 77.367 278.797 77.079 278.797 76.503C278.797 76.311 278.729 76.159 278.593 76.047C278.457 75.935 278.285 75.855 278.077 75.807C277.877 75.751 277.589 75.691 277.213 75.627C276.701 75.547 276.281 75.455 275.953 75.351C275.633 75.247 275.357 75.071 275.125 74.823C274.893 74.575 274.777 74.227 274.777 73.779C274.777 73.203 275.017 72.743 275.497 72.399C275.977 72.047 276.621 71.871 277.429 71.871C277.853 71.871 278.277 71.923 278.701 72.027C279.125 72.131 279.473 72.271 279.745 72.447L279.253 73.359C278.733 73.023 278.121 72.855 277.417 72.855C276.929 72.855 276.557 72.935 276.301 73.095C276.045 73.255 275.917 73.467 275.917 73.731C275.917 73.939 275.989 74.103 276.133 74.223C276.277 74.343 276.453 74.431 276.661 74.487C276.877 74.543 277.177 74.607 277.561 74.679C278.073 74.767 278.485 74.863 278.797 74.967C279.117 75.063 279.389 75.231 279.613 75.471C279.837 75.711 279.949 76.047 279.949 76.479C279.949 77.055 279.701 77.515 279.205 77.859C278.717 78.195 278.049 78.363 277.201 78.363Z" fill="white"/>
<path d="M4.12598 47V11.4531H15.7471C19.6045 11.4531 22.5016 12.2507 24.4385 13.8457C26.3916 15.4408 27.3682 17.8008 27.3682 20.9258C27.3682 22.5859 26.8962 24.0589 25.9521 25.3447C25.0081 26.6143 23.7223 27.599 22.0947 28.2988C24.0153 28.8359 25.529 29.8613 26.6357 31.375C27.7588 32.8724 28.3203 34.6628 28.3203 36.7461C28.3203 39.9362 27.2868 42.4427 25.2197 44.2656C23.1527 46.0885 20.2311 47 16.4551 47H4.12598ZM8.81348 30.374V43.167H16.5527C18.7337 43.167 20.4508 42.6055 21.7041 41.4824C22.9736 40.3431 23.6084 38.7806 23.6084 36.7949C23.6084 32.5143 21.2809 30.374 16.626 30.374H8.81348ZM8.81348 26.6143H15.8936C17.9443 26.6143 19.5801 26.1016 20.8008 25.0762C22.0378 24.0508 22.6562 22.6592 22.6562 20.9014C22.6562 18.9482 22.0866 17.5322 20.9473 16.6533C19.8079 15.7581 18.0745 15.3105 15.7471 15.3105H8.81348V26.6143ZM61.5527 11.4531V35.623C61.5365 38.9759 60.4785 41.7184 58.3789 43.8506C56.2956 45.9827 53.4635 47.179 49.8828 47.4395L48.6377 47.4883C44.7477 47.4883 41.6471 46.4385 39.3359 44.3389C37.0247 42.2393 35.8529 39.3503 35.8203 35.6719V11.4531H40.459V35.5254C40.459 38.097 41.167 40.099 42.583 41.5312C43.999 42.9473 46.0173 43.6553 48.6377 43.6553C51.2907 43.6553 53.3171 42.9473 54.7168 41.5312C56.1328 40.1152 56.8408 38.1214 56.8408 35.5498V11.4531H61.5527ZM80.6738 31.1553C76.6536 29.9997 73.724 28.5837 71.8848 26.9072C70.0618 25.2145 69.1504 23.1312 69.1504 20.6572C69.1504 17.8577 70.2653 15.5465 72.4951 13.7236C74.7412 11.8844 77.6546 10.9648 81.2354 10.9648C83.6768 10.9648 85.8496 11.4368 87.7539 12.3809C89.6745 13.3249 91.1556 14.627 92.1973 16.2871C93.2552 17.9473 93.7842 19.762 93.7842 21.7314H89.0723C89.0723 19.583 88.3887 17.8984 87.0215 16.6777C85.6543 15.4408 83.7256 14.8223 81.2354 14.8223C78.9242 14.8223 77.1175 15.335 75.8154 16.3604C74.5296 17.3695 73.8867 18.7773 73.8867 20.584C73.8867 22.0326 74.4971 23.2614 75.7178 24.2705C76.9548 25.2633 79.0462 26.1748 81.9922 27.0049C84.9544 27.835 87.2656 28.7546 88.9258 29.7637C90.6022 30.7565 91.8392 31.9202 92.6367 33.2549C93.4505 34.5895 93.8574 36.1602 93.8574 37.9668C93.8574 40.8477 92.7344 43.1589 90.4883 44.9004C88.2422 46.6257 85.2393 47.4883 81.4795 47.4883C79.0381 47.4883 76.7594 47.0244 74.6436 46.0967C72.5277 45.1527 70.8919 43.8669 69.7363 42.2393C68.597 40.6117 68.0273 38.7643 68.0273 36.6973H72.7393C72.7393 38.8457 73.5286 40.5465 75.1074 41.7998C76.7025 43.0368 78.8265 43.6553 81.4795 43.6553C83.9535 43.6553 85.8496 43.1507 87.168 42.1416C88.4863 41.1325 89.1455 39.7572 89.1455 38.0156C89.1455 36.2741 88.5352 34.9313 87.3145 33.9873C86.0938 33.027 83.8802 32.083 80.6738 31.1553ZM110.171 30.4717L105.825 34.9883V47H101.138V11.4531H105.825V29.0312L121.621 11.4531H127.285L113.296 27.1514L128.384 47H122.769L110.171 30.4717ZM153.364 37.7227H138.472L135.127 47H130.293L143.867 11.4531H147.969L161.567 47H156.758L153.364 37.7227ZM139.888 33.8652H151.973L145.918 17.2393L139.888 33.8652ZM173.657 11.4531L185.278 40.457L196.899 11.4531H202.979V47H198.291V33.1572L198.73 18.2158L187.061 47H183.472L171.826 18.2891L172.29 33.1572V47H167.603V11.4531H173.657ZM263.936 31.1553C259.915 29.9997 256.986 28.5837 255.146 26.9072C253.324 25.2145 252.412 23.1312 252.412 20.6572C252.412 17.8577 253.527 15.5465 255.757 13.7236C258.003 11.8844 260.916 10.9648 264.497 10.9648C266.938 10.9648 269.111 11.4368 271.016 12.3809C272.936 13.3249 274.417 14.627 275.459 16.2871C276.517 17.9473 277.046 19.762 277.046 21.7314H272.334C272.334 19.583 271.65 17.8984 270.283 16.6777C268.916 15.4408 266.987 14.8223 264.497 14.8223C262.186 14.8223 260.379 15.335 259.077 16.3604C257.791 17.3695 257.148 18.7773 257.148 20.584C257.148 22.0326 257.759 23.2614 258.979 24.2705C260.216 25.2633 262.308 26.1748 265.254 27.0049C268.216 27.835 270.527 28.7546 272.188 29.7637C273.864 30.7565 275.101 31.9202 275.898 33.2549C276.712 34.5895 277.119 36.1602 277.119 37.9668C277.119 40.8477 275.996 43.1589 273.75 44.9004C271.504 46.6257 268.501 47.4883 264.741 47.4883C262.3 47.4883 260.021 47.0244 257.905 46.0967C255.789 45.1527 254.154 43.8669 252.998 42.2393C251.859 40.6117 251.289 38.7643 251.289 36.6973H256.001C256.001 38.8457 256.79 40.5465 258.369 41.7998C259.964 43.0368 262.088 43.6553 264.741 43.6553C267.215 43.6553 269.111 43.1507 270.43 42.1416C271.748 41.1325 272.407 39.7572 272.407 38.0156C272.407 36.2741 271.797 34.9313 270.576 33.9873C269.355 33.027 267.142 32.083 263.936 31.1553Z" fill="white"/>
<rect x="220.357" y="15.6035" width="6.17853" height="11.7023" fill="#DC0000"/>
<rect width="4.52113" height="17.2197" transform="matrix(0.00307375 0.999995 -0.999996 0.00275663 237.577 15.5898)" fill="#DC0000"/>
<rect x="231.479" y="15.6035" width="6.17853" height="11.7023" fill="#DC0000"/>
<path d="M229.007 10.1416L237.657 15.6027H220.357L229.007 10.1416Z" fill="#DC0000"/>
<path d="M249.014 19.8939C249.014 30.2781 240.109 38.7878 229.007 38.7878C217.905 38.7878 209 30.2781 209 19.8939C209 9.50968 217.905 1 229.007 1C240.109 1 249.014 9.50968 249.014 19.8939Z" stroke="white" stroke-width="2"/>
<rect width="1.63046" height="7.10198" transform="matrix(0.90342 -0.428757 0.467734 0.883869 237.657 37.3662)" fill="white"/>
<rect width="6.27601" height="19.6005" transform="matrix(0.90342 -0.428757 0.467734 0.883869 238.982 44.4062)" fill="white"/>
<path d="M240.428 42.0928L241.32 43.5556L238.986 44.4332L240.428 42.0928Z" fill="white"/>
<path d="M240.428 42.0928L241.32 43.5556L238.986 44.4332L240.428 42.0928Z" fill="white"/>
<path d="M241.158 41.543L244.659 41.738L242.188 42.9082L241.158 41.543Z" fill="white"/>
<path d="M241.158 41.543L244.659 41.738L242.188 42.9082L241.158 41.543Z" fill="white"/>
<rect width="3.30733" height="1.33116" transform="matrix(0.902448 -0.430799 0.469866 0.882738 249.517 60.8311)" fill="white"/>
<path d="M249.465 60.6074L250.193 61.9727L248.16 61.6322L249.465 60.6074Z" fill="white"/>
<path d="M251.681 59.6267L253.515 59.0967L253.103 60.657L251.681 59.6267Z" fill="white"/>
</svg>
