<svg width="195" height="26" viewBox="0 0 195 26" fill="none" xmlns="http://www.w3.org/2000/svg">
<path d="M0.805664 25V0.828125H8.70801C11.3311 0.828125 13.3011 1.37044 14.6182 2.45508C15.9463 3.53971 16.6104 5.14453 16.6104 7.26953C16.6104 8.39844 16.2894 9.40007 15.6475 10.2744C15.0055 11.1377 14.1312 11.8073 13.0244 12.2832C14.3304 12.6484 15.3597 13.3457 16.1123 14.375C16.876 15.3932 17.2578 16.6107 17.2578 18.0273C17.2578 20.1966 16.555 21.901 15.1494 23.1406C13.7438 24.3802 11.7572 25 9.18945 25H0.805664ZM3.99316 13.6943V22.3936H9.25586C10.7389 22.3936 11.9066 22.0117 12.7588 21.248C13.6221 20.4733 14.0537 19.4108 14.0537 18.0605C14.0537 15.1497 12.471 13.6943 9.30566 13.6943H3.99316ZM3.99316 11.1377H8.80762C10.2021 11.1377 11.3145 10.7891 12.1445 10.0918C12.9857 9.39453 13.4062 8.44824 13.4062 7.25293C13.4062 5.9248 13.0189 4.96191 12.2441 4.36426C11.4694 3.75553 10.2907 3.45117 8.70801 3.45117H3.99316V11.1377ZM40.7059 0.828125V17.2637C40.6948 19.5436 39.9754 21.4085 38.5477 22.8584C37.131 24.3083 35.2052 25.1217 32.7703 25.2988L31.9236 25.332C29.2785 25.332 27.1701 24.6182 25.5984 23.1904C24.0268 21.7627 23.2299 19.7982 23.2078 17.2969V0.828125H26.3621V17.1973C26.3621 18.946 26.8436 20.3073 27.8064 21.2812C28.7693 22.2441 30.1417 22.7256 31.9236 22.7256C33.7277 22.7256 35.1056 22.2441 36.0574 21.2812C37.0203 20.3184 37.5018 18.9626 37.5018 17.2139V0.828125H40.7059ZM54.5582 14.2256C51.8245 13.4398 49.8323 12.4769 48.5816 11.3369C47.3421 10.1859 46.7223 8.76921 46.7223 7.08691C46.7223 5.18327 47.4804 3.61165 48.9967 2.37207C50.524 1.12142 52.5051 0.496094 54.94 0.496094C56.6002 0.496094 58.0777 0.817057 59.3727 1.45898C60.6786 2.10091 61.6858 2.98633 62.3941 4.11523C63.1135 5.24414 63.4732 6.47819 63.4732 7.81738H60.2691C60.2691 6.35645 59.8043 5.21094 58.8746 4.38086C57.9449 3.53971 56.6334 3.11914 54.94 3.11914C53.3684 3.11914 52.1399 3.46777 51.2545 4.16504C50.3801 4.85124 49.943 5.80859 49.943 7.03711C49.943 8.02214 50.358 8.85775 51.1881 9.54395C52.0292 10.2191 53.4514 10.8389 55.4547 11.4033C57.469 11.9678 59.0406 12.5931 60.1695 13.2793C61.3095 13.9544 62.1507 14.7458 62.693 15.6533C63.2464 16.5609 63.523 17.6289 63.523 18.8574C63.523 20.8164 62.7594 22.388 61.232 23.5723C59.7047 24.7454 57.6627 25.332 55.1061 25.332C53.4459 25.332 51.8964 25.0166 50.4576 24.3857C49.0188 23.7438 47.9065 22.8695 47.1207 21.7627C46.346 20.6559 45.9586 19.3997 45.9586 17.9941H49.1627C49.1627 19.4551 49.6995 20.6117 50.773 21.4639C51.8577 22.305 53.302 22.7256 55.1061 22.7256C56.7883 22.7256 58.0777 22.3825 58.9742 21.6963C59.8707 21.0101 60.3189 20.0749 60.3189 18.8906C60.3189 17.7064 59.9039 16.7933 59.0738 16.1514C58.2438 15.4984 56.7385 14.8564 54.5582 14.2256ZM75.4662 13.7607L72.5111 16.832V25H69.3236V0.828125H72.5111V12.7812L83.2523 0.828125H87.1039L77.5912 11.5029L87.851 25H84.0326L75.4662 13.7607ZM105.688 18.6914H95.5607L93.2863 25H89.9992L99.2297 0.828125H102.019L111.266 25H107.995L105.688 18.6914ZM96.5236 16.0684H104.741L100.624 4.7627L96.5236 16.0684ZM120.337 0.828125L128.239 20.5508L136.142 0.828125H140.275V25H137.088V15.5869L137.387 5.42676L129.451 25H127.011L119.092 5.47656L119.407 15.5869V25H116.22V0.828125H120.337ZM185.126 14.2256C182.392 13.4398 180.4 12.4769 179.15 11.3369C177.91 10.1859 177.29 8.76921 177.29 7.08691C177.29 5.18327 178.048 3.61165 179.565 2.37207C181.092 1.12142 183.073 0.496094 185.508 0.496094C187.168 0.496094 188.646 0.817057 189.941 1.45898C191.247 2.10091 192.254 2.98633 192.962 4.11523C193.682 5.24414 194.041 6.47819 194.041 7.81738H190.837C190.837 6.35645 190.372 5.21094 189.443 4.38086C188.513 3.53971 187.201 3.11914 185.508 3.11914C183.936 3.11914 182.708 3.46777 181.822 4.16504C180.948 4.85124 180.511 5.80859 180.511 7.03711C180.511 8.02214 180.926 8.85775 181.756 9.54395C182.597 10.2191 184.019 10.8389 186.023 11.4033C188.037 11.9678 189.609 12.5931 190.738 13.2793C191.877 13.9544 192.719 14.7458 193.261 15.6533C193.814 16.5609 194.091 17.6289 194.091 18.8574C194.091 20.8164 193.327 22.388 191.8 23.5723C190.273 24.7454 188.231 25.332 185.674 25.332C184.014 25.332 182.464 25.0166 181.026 24.3857C179.587 23.7438 178.474 22.8695 177.689 21.7627C176.914 20.6559 176.527 19.3997 176.527 17.9941H179.731C179.731 19.4551 180.267 20.6117 181.341 21.4639C182.426 22.305 183.87 22.7256 185.674 22.7256C187.356 22.7256 188.646 22.3825 189.542 21.6963C190.439 21.0101 190.887 20.0749 190.887 18.8906C190.887 17.7064 190.472 16.7933 189.642 16.1514C188.812 15.4984 187.307 14.8564 185.126 14.2256Z" fill="white"/>
</svg>
