<svg width="203" height="71" viewBox="0 0 203 71" fill="none" xmlns="http://www.w3.org/2000/svg">
<ellipse cx="43" cy="37" rx="41" ry="8" fill="white"/>
<ellipse cx="60" cy="29" rx="25" ry="8" fill="white"/>
<ellipse cx="113" cy="34" rx="25" ry="8" fill="white"/>
<ellipse cx="109" cy="37" rx="41" ry="8" fill="white"/>
<ellipse cx="134" cy="45" rx="41" ry="8" fill="white"/>
<ellipse cx="97" cy="38" rx="41" ry="8" fill="white"/>
<ellipse cx="12.8125" cy="5" rx="12.8125" ry="2.5" fill="white"/>
<ellipse cx="22.5" cy="7.5" rx="7.8125" ry="2.5" fill="white"/>
<ellipse cx="18.125" cy="2.5" rx="7.8125" ry="2.5" fill="white"/>
<ellipse cx="34.6875" cy="4.0625" rx="7.8125" ry="2.5" fill="white"/>
<ellipse cx="33.4375" cy="5" rx="12.8125" ry="2.5" fill="white"/>
<ellipse cx="25.7812" cy="4.0625" rx="12.9688" ry="2.5" fill="white"/>
<ellipse cx="41.25" cy="7.5" rx="12.8125" ry="2.5" fill="white"/>
<ellipse cx="160.812" cy="66" rx="12.8125" ry="2.5" fill="white"/>
<ellipse cx="170.5" cy="68.5" rx="7.8125" ry="2.5" fill="white"/>
<ellipse cx="166.125" cy="63.5" rx="7.8125" ry="2.5" fill="white"/>
<ellipse cx="182.688" cy="65.0625" rx="7.8125" ry="2.5" fill="white"/>
<ellipse cx="181.438" cy="66" rx="12.8125" ry="2.5" fill="white"/>
<ellipse cx="173.781" cy="65.0625" rx="12.9688" ry="2.5" fill="white"/>
<ellipse cx="189.25" cy="68.5" rx="12.8125" ry="2.5" fill="white"/>
</svg>
