<svg width="14" height="14" viewBox="0 0 14 14" fill="none" xmlns="http://www.w3.org/2000/svg">
<path d="M12.637 4.62657C12.3303 3.89448 11.884 3.22906 11.3232 2.6674C10.764 2.10475 10.0997 1.65742 9.36809 1.35079C8.61862 1.03515 7.81335 0.873356 7.00012 0.875013H6.97278C6.14563 0.879114 5.34582 1.04318 4.5925 1.36583C3.86717 1.6756 3.20914 2.12373 2.6552 2.68517C2.09975 3.24557 1.65862 3.90867 1.35637 4.63751C1.04262 5.39543 0.883644 6.20845 0.888793 7.02872C0.892895 7.97755 1.11985 8.91954 1.54368 9.76173V11.8399C1.54368 12.1871 1.82532 12.4688 2.17122 12.4688H4.24661C5.09272 12.8957 6.02642 13.1204 6.97414 13.125H7.00286C7.82043 13.125 8.61204 12.9664 9.35852 12.6561C10.0864 12.3531 10.7482 11.911 11.3068 11.3545C11.87 10.7953 12.313 10.1418 12.6234 9.4131C12.9447 8.65841 13.1087 7.85587 13.1128 7.02736C13.1156 6.19474 12.9542 5.38673 12.637 4.62657ZM4.27121 7.65626C3.91028 7.65626 3.61633 7.36232 3.61633 7.00001C3.61633 6.63771 3.91028 6.34376 4.27121 6.34376C4.63215 6.34376 4.9261 6.63771 4.9261 7.00001C4.9261 7.36232 4.63352 7.65626 4.27121 7.65626ZM7.00012 7.65626C6.63918 7.65626 6.34524 7.36232 6.34524 7.00001C6.34524 6.63771 6.63918 6.34376 7.00012 6.34376C7.36106 6.34376 7.655 6.63771 7.655 7.00001C7.655 7.36232 7.36106 7.65626 7.00012 7.65626ZM9.72903 7.65626C9.36809 7.65626 9.07414 7.36232 9.07414 7.00001C9.07414 6.63771 9.36809 6.34376 9.72903 6.34376C10.09 6.34376 10.3839 6.63771 10.3839 7.00001C10.3839 7.36232 10.09 7.65626 9.72903 7.65626Z" fill="#DEE6FF"/>
</svg>
