<svg width="16" height="16" viewBox="0 0 16 16" fill="none" xmlns="http://www.w3.org/2000/svg">
<path d="M8 1.99023C6.76387 1.99023 5.5555 2.33737 4.52769 2.98774C3.49988 3.6381 2.6988 4.5625 2.22576 5.64402C1.75271 6.72554 1.62894 7.91562 1.87009 9.06376C2.11125 10.2119 2.70651 11.2665 3.58059 12.0943C4.45466 12.9221 5.56831 13.4858 6.78069 13.7141C7.99307 13.9425 9.24974 13.8253 10.3918 13.3773C11.5338 12.9293 12.5099 12.1707 13.1967 11.1974C13.8834 10.224 14.25 9.07968 14.25 7.90905C14.2481 6.33983 13.5891 4.83538 12.4174 3.72577C11.2457 2.61616 9.65703 1.992 8 1.99023ZM8 13.3544C6.86276 13.3544 5.75106 13.035 4.80547 12.4367C3.85989 11.8383 3.1229 10.9879 2.6877 9.99288C2.25249 8.99788 2.13862 7.90301 2.36049 6.84672C2.58235 5.79044 3.12999 4.82018 3.93414 4.05863C4.73829 3.29709 5.76284 2.77848 6.87823 2.56837C7.99362 2.35826 9.14976 2.4661 10.2004 2.87824C11.2511 3.29038 12.1491 3.98832 12.781 4.8838C13.4128 5.77928 13.75 6.83207 13.75 7.90905C13.7483 9.35274 13.1419 10.7368 12.064 11.7577C10.986 12.7785 9.52447 13.3527 8 13.3544ZM5.75019 7.90876C5.75022 8.35595 5.89881 8.79181 6.17492 9.15459C6.45103 9.51738 6.84067 9.7887 7.28864 9.93014C7.73662 10.0716 8.22024 10.076 8.67099 9.94268C9.12175 9.80938 9.5168 9.54517 9.80019 9.18746C9.8402 9.13775 9.89935 9.10504 9.96472 9.09647C10.0301 9.0879 10.0964 9.10416 10.1492 9.1417C10.2019 9.17924 10.2369 9.23502 10.2464 9.29687C10.2559 9.35872 10.2392 9.42162 10.1999 9.47186C9.85355 9.909 9.37071 10.2319 8.81982 10.3947C8.26892 10.5576 7.67788 10.5522 7.13041 10.3793C6.58293 10.2064 6.10677 9.87473 5.76936 9.43133C5.43195 8.98794 5.25039 8.45526 5.25039 7.90873C5.25039 7.36219 5.43195 6.82951 5.76936 6.38612C6.10677 5.94273 6.58293 5.6111 7.13041 5.4382C7.67788 5.2653 8.26892 5.2599 8.81982 5.42275C9.37071 5.5856 9.85355 5.90846 10.1999 6.3456C10.2398 6.3958 10.2569 6.45893 10.2476 6.52111C10.2383 6.58328 10.2033 6.63941 10.1503 6.67714C10.0973 6.71487 10.0306 6.73111 9.96495 6.72229C9.8993 6.71347 9.84003 6.68032 9.80019 6.63011C9.5168 6.27241 9.12176 6.0082 8.67101 5.8749C8.22026 5.74161 7.73665 5.74599 7.28867 5.88742C6.8407 6.02885 6.45106 6.30017 6.17495 6.66294C5.89883 7.02572 5.75023 7.46157 5.75019 7.90876Z" fill="white"/>
</svg>
