<svg width="50" height="48" viewBox="0 0 50 48" fill="none" xmlns="http://www.w3.org/2000/svg">
<path d="M43.75 16.017V31.8006C43.75 34.4168 42.6525 36.926 40.699 38.7759C38.7455 40.6259 36.096 41.6652 33.3333 41.6652H16.6667C13.904 41.6652 11.2545 40.6259 9.30097 38.7759C7.34747 36.926 6.25 34.4168 6.25 31.8006V16.017C6.25 13.4008 7.34747 10.8916 9.30097 9.04165C11.2545 7.19166 13.904 6.15234 16.6667 6.15234H33.3333C36.096 6.15234 38.7455 7.19166 40.699 9.04165C42.6525 10.8916 43.75 13.4008 43.75 16.017Z" stroke="#B0C0CF" stroke-width="1.5" stroke-linecap="round" stroke-linejoin="round"/>
<path d="M22.917 41.6648V23.9084C22.917 19.5916 23.9587 16.0166 31.2503 16.0166" stroke="#B0C0CF" stroke-width="1.5" stroke-linecap="round" stroke-linejoin="round"/>
<path d="M18.75 25.8818H31.25" stroke="#B0C0CF" stroke-width="1.5" stroke-linecap="round" stroke-linejoin="round"/>
</svg>
