<svg width="345" height="63" viewBox="0 0 345 63" fill="none" xmlns="http://www.w3.org/2000/svg">
<path d="M4.12598 47V11.4531H15.7471C19.6045 11.4531 22.5016 12.2507 24.4385 13.8457C26.3916 15.4408 27.3682 17.8008 27.3682 20.9258C27.3682 22.5859 26.8962 24.0589 25.9521 25.3447C25.0081 26.6143 23.7223 27.599 22.0947 28.2988C24.0153 28.8359 25.529 29.8613 26.6357 31.375C27.7588 32.8724 28.3203 34.6628 28.3203 36.7461C28.3203 39.9362 27.2868 42.4427 25.2197 44.2656C23.1527 46.0885 20.2311 47 16.4551 47H4.12598ZM8.81348 30.374V43.167H16.5527C18.7337 43.167 20.4508 42.6055 21.7041 41.4824C22.9736 40.3431 23.6084 38.7806 23.6084 36.7949C23.6084 32.5143 21.2809 30.374 16.626 30.374H8.81348ZM8.81348 26.6143H15.8936C17.9443 26.6143 19.5801 26.1016 20.8008 25.0762C22.0378 24.0508 22.6562 22.6592 22.6562 20.9014C22.6562 18.9482 22.0866 17.5322 20.9473 16.6533C19.8079 15.7581 18.0745 15.3105 15.7471 15.3105H8.81348V26.6143ZM61.5527 11.4531V35.623C61.5365 38.9759 60.4785 41.7184 58.3789 43.8506C56.2956 45.9827 53.4635 47.179 49.8828 47.4395L48.6377 47.4883C44.7477 47.4883 41.6471 46.4385 39.3359 44.3389C37.0247 42.2393 35.8529 39.3503 35.8203 35.6719V11.4531H40.459V35.5254C40.459 38.097 41.167 40.099 42.583 41.5312C43.999 42.9473 46.0173 43.6553 48.6377 43.6553C51.2907 43.6553 53.3171 42.9473 54.7168 41.5312C56.1328 40.1152 56.8408 38.1214 56.8408 35.5498V11.4531H61.5527ZM80.6738 31.1553C76.6536 29.9997 73.724 28.5837 71.8848 26.9072C70.0618 25.2145 69.1504 23.1312 69.1504 20.6572C69.1504 17.8577 70.2653 15.5465 72.4951 13.7236C74.7412 11.8844 77.6546 10.9648 81.2354 10.9648C83.6768 10.9648 85.8496 11.4368 87.7539 12.3809C89.6745 13.3249 91.1556 14.627 92.1973 16.2871C93.2552 17.9473 93.7842 19.762 93.7842 21.7314H89.0723C89.0723 19.583 88.3887 17.8984 87.0215 16.6777C85.6543 15.4408 83.7256 14.8223 81.2354 14.8223C78.9242 14.8223 77.1175 15.335 75.8154 16.3604C74.5296 17.3695 73.8867 18.7773 73.8867 20.584C73.8867 22.0326 74.4971 23.2614 75.7178 24.2705C76.9548 25.2633 79.0462 26.1748 81.9922 27.0049C84.9544 27.835 87.2656 28.7546 88.9258 29.7637C90.6022 30.7565 91.8392 31.9202 92.6367 33.2549C93.4505 34.5895 93.8574 36.1602 93.8574 37.9668C93.8574 40.8477 92.7344 43.1589 90.4883 44.9004C88.2422 46.6257 85.2393 47.4883 81.4795 47.4883C79.0381 47.4883 76.7594 47.0244 74.6436 46.0967C72.5277 45.1527 70.8919 43.8669 69.7363 42.2393C68.597 40.6117 68.0273 38.7643 68.0273 36.6973H72.7393C72.7393 38.8457 73.5286 40.5465 75.1074 41.7998C76.7025 43.0368 78.8265 43.6553 81.4795 43.6553C83.9535 43.6553 85.8496 43.1507 87.168 42.1416C88.4863 41.1325 89.1455 39.7572 89.1455 38.0156C89.1455 36.2741 88.5352 34.9313 87.3145 33.9873C86.0938 33.027 83.8802 32.083 80.6738 31.1553ZM110.171 30.4717L105.825 34.9883V47H101.138V11.4531H105.825V29.0312L121.621 11.4531H127.285L113.296 27.1514L128.384 47H122.769L110.171 30.4717ZM153.364 37.7227H138.472L135.127 47H130.293L143.867 11.4531H147.969L161.567 47H156.758L153.364 37.7227ZM139.888 33.8652H151.973L145.918 17.2393L139.888 33.8652ZM173.657 11.4531L185.278 40.457L196.899 11.4531H202.979V47H198.291V33.1572L198.73 18.2158L187.061 47H183.472L171.826 18.2891L172.29 33.1572V47H167.603V11.4531H173.657ZM263.936 31.1553C259.915 29.9997 256.986 28.5837 255.146 26.9072C253.324 25.2145 252.412 23.1312 252.412 20.6572C252.412 17.8577 253.527 15.5465 255.757 13.7236C258.003 11.8844 260.916 10.9648 264.497 10.9648C266.938 10.9648 269.111 11.4368 271.016 12.3809C272.936 13.3249 274.417 14.627 275.459 16.2871C276.517 17.9473 277.046 19.762 277.046 21.7314H272.334C272.334 19.583 271.65 17.8984 270.283 16.6777C268.916 15.4408 266.987 14.8223 264.497 14.8223C262.186 14.8223 260.379 15.335 259.077 16.3604C257.791 17.3695 257.148 18.7773 257.148 20.584C257.148 22.0326 257.759 23.2614 258.979 24.2705C260.216 25.2633 262.308 26.1748 265.254 27.0049C268.216 27.835 270.527 28.7546 272.188 29.7637C273.864 30.7565 275.101 31.9202 275.898 33.2549C276.712 34.5895 277.119 36.1602 277.119 37.9668C277.119 40.8477 275.996 43.1589 273.75 44.9004C271.504 46.6257 268.501 47.4883 264.741 47.4883C262.3 47.4883 260.021 47.0244 257.905 46.0967C255.789 45.1527 254.154 43.8669 252.998 42.2393C251.859 40.6117 251.289 38.7643 251.289 36.6973H256.001C256.001 38.8457 256.79 40.5465 258.369 41.7998C259.964 43.0368 262.088 43.6553 264.741 43.6553C267.215 43.6553 269.111 43.1507 270.43 42.1416C271.748 41.1325 272.407 39.7572 272.407 38.0156C272.407 36.2741 271.797 34.9313 270.576 33.9873C269.355 33.027 267.142 32.083 263.936 31.1553Z" fill="white"/>
<rect x="220.357" y="15.6035" width="6.17853" height="11.7023" fill="#DC0000"/>
<rect width="4.52113" height="17.2197" transform="matrix(0.00307375 0.999995 -0.999996 0.00275663 237.577 15.5898)" fill="#DC0000"/>
<rect x="231.479" y="15.6035" width="6.17853" height="11.7023" fill="#DC0000"/>
<path d="M229.007 10.1416L237.657 15.6027H220.357L229.007 10.1416Z" fill="#DC0000"/>
<path d="M249.014 19.8939C249.014 30.2781 240.109 38.7878 229.007 38.7878C217.905 38.7878 209 30.2781 209 19.8939C209 9.50968 217.905 1 229.007 1C240.109 1 249.014 9.50968 249.014 19.8939Z" stroke="white" stroke-width="2"/>
<rect width="1.63046" height="7.10198" transform="matrix(0.90342 -0.428757 0.467734 0.883869 237.657 37.3662)" fill="white"/>
<rect width="6.27601" height="19.6005" transform="matrix(0.90342 -0.428757 0.467734 0.883869 238.982 44.4062)" fill="white"/>
<path d="M240.428 42.0928L241.32 43.5556L238.986 44.4332L240.428 42.0928Z" fill="white"/>
<path d="M240.428 42.0928L241.32 43.5556L238.986 44.4332L240.428 42.0928Z" fill="white"/>
<path d="M241.158 41.543L244.659 41.738L242.188 42.9082L241.158 41.543Z" fill="white"/>
<path d="M241.158 41.543L244.659 41.738L242.188 42.9082L241.158 41.543Z" fill="white"/>
<rect width="3.30733" height="1.33116" transform="matrix(0.902448 -0.430799 0.469866 0.882738 249.517 60.8311)" fill="white"/>
<path d="M249.465 60.6074L250.193 61.9727L248.16 61.6322L249.465 60.6074Z" fill="white"/>
<path d="M251.681 59.6267L253.515 59.0967L253.103 60.657L251.681 59.6267Z" fill="white"/>
</svg>
