<svg width="41" height="37" viewBox="0 0 41 37" fill="none" xmlns="http://www.w3.org/2000/svg">
<path d="M14.7344 15.8242L19.8995 18.5196L25.0646 15.8242" stroke="#B0C0CF" stroke-width="1.5" stroke-linecap="round" stroke-linejoin="round"/>
<path d="M6 24.9462V12.0939C6 11.4122 6.295 10.7584 6.8201 10.2763C7.3452 9.79425 8.05739 9.52344 8.8 9.52344H31.2C31.9426 9.52344 32.6548 9.79425 33.1799 10.2763C33.705 10.7584 34 11.4122 34 12.0939V24.9462C34 25.6279 33.705 26.2817 33.1799 26.7638C32.6548 27.2458 31.9426 27.5166 31.2 27.5166H8.8C8.05739 27.5166 7.3452 27.2458 6.8201 26.7638C6.295 26.2817 6 25.6279 6 24.9462Z" stroke="#B0C0CF" stroke-width="1.5"/>
<path d="M39.3696 10.7332V26.3062C39.3696 28.8876 38.2467 31.3633 36.2479 33.1886C34.2491 35.0139 31.5381 36.0394 28.7114 36.0394H11.6582C8.83148 36.0394 6.12052 35.0139 4.12172 33.1886C2.12292 31.3633 1 28.8876 1 26.3062V10.7332C1 8.15177 2.12292 5.6761 4.12172 3.85078C6.12052 2.02546 8.83148 1 11.6582 1H28.7114C31.5381 1 34.2491 2.02546 36.2479 3.85078C38.2467 5.6761 39.3696 8.15177 39.3696 10.7332Z" stroke="#B0C0CF" stroke-width="1.5" stroke-linecap="round" stroke-linejoin="round"/>
</svg>
