<svg width="30" height="27" viewBox="0 0 30 27" fill="none" xmlns="http://www.w3.org/2000/svg">
<path d="M22.8536 9.77121H15.7286V12.6152C15.7286 14.6314 14.2145 16.2718 12.3536 16.2718C10.4927 16.2718 8.97859 14.6314 8.97859 12.6152V6.43968L5.93641 8.42031C5.03172 9.00435 4.4786 10.0658 4.4786 11.2034V13.6055L0.728607 15.9518C0.0114206 16.3987 -0.237016 17.3941 0.18017 18.1711L3.93016 25.21C4.34266 25.987 5.26141 26.2511 5.9786 25.8042L10.8255 22.7723H17.2286C18.8833 22.7723 20.2286 21.3148 20.2286 19.522H20.9786C21.8083 19.522 22.4786 18.7958 22.4786 17.8969V14.6466H22.8536C23.477 14.6466 23.9786 14.1032 23.9786 13.4278V10.9901C23.9786 10.3146 23.477 9.77121 22.8536 9.77121ZM29.777 7.87183L26.027 0.832954C25.6145 0.0559356 24.6958 -0.208149 23.9786 0.238764L19.1317 3.27066H14.3411C13.7786 3.27066 13.2301 3.44333 12.752 3.76328L11.1817 4.8247C10.7411 5.11925 10.4786 5.64234 10.4786 6.20099V12.6152C10.4786 13.7376 11.3176 14.6466 12.3536 14.6466C13.3895 14.6466 14.2286 13.7376 14.2286 12.6152V8.14607H22.8536C24.302 8.14607 25.4786 9.42079 25.4786 10.9901V12.4374L29.2286 10.0912C29.9457 9.63917 30.1895 8.64885 29.777 7.87183V7.87183Z" fill="black"/>
</svg>
