<svg width="30" height="26" viewBox="0 0 30 26" fill="none" xmlns="http://www.w3.org/2000/svg">
<path d="M29.2742 5.32818C28.8087 4.28552 28.1376 3.34067 27.2983 2.54652C26.4584 1.75 25.4681 1.11702 24.3813 0.682001C23.2543 0.229118 22.0456 -0.0026936 20.8253 2.36135e-05C19.1133 2.36135e-05 17.443 0.453555 15.9914 1.31023C15.6442 1.51516 15.3143 1.74024 15.0017 1.98549C14.6892 1.74024 14.3593 1.51516 14.012 1.31023C12.5605 0.453555 10.8901 2.36135e-05 9.17813 2.36135e-05C7.94535 2.36135e-05 6.75077 0.228469 5.62217 0.682001C4.53177 1.11874 3.54902 1.74696 2.70517 2.54652C1.86479 3.33977 1.19346 4.28485 0.72925 5.32818C0.246556 6.4133 0 7.56561 0 8.75151C0 9.87022 0.236138 11.036 0.704942 12.2219C1.09735 13.2129 1.65991 14.2409 2.37874 15.279C3.51776 16.9218 5.08392 18.6351 7.02858 20.372C10.2512 23.2511 13.4425 25.2399 13.5779 25.3205L14.401 25.8312C14.7656 26.0563 15.2344 26.0563 15.599 25.8312L16.422 25.3205C16.5575 25.2366 19.7453 23.2511 22.9714 20.372C24.916 18.6351 26.4822 16.9218 27.6212 15.279C28.3401 14.2409 28.9061 13.2129 29.295 12.2219C29.7638 11.036 30 9.87022 30 8.75151C30.0034 7.56561 29.7569 6.4133 29.2742 5.32818Z" fill="black"/>
<rect x="8.53125" y="9.64307" width="4.5" height="8" fill="white"/>
<rect x="19.9551" y="8.60303" width="3.78455" height="11.4235" transform="rotate(89.8332 19.9551 8.60303)" fill="white"/>
<rect x="16.5312" y="8.64307" width="4.5" height="9" fill="white"/>
<path d="M15 5.5L21.0233 8.64307H8.53125L15 5.5Z" fill="white"/>
</svg>
