<svg width="547" height="386" viewBox="0 0 547 386" fill="none" xmlns="http://www.w3.org/2000/svg">
<path d="M44 22C44 9.84973 53.8497 0 66 0H482C494.15 0 504 9.84974 504 22V335H44V22Z" fill="#3269A1"/>
<path d="M77 56C77 43.8497 86.8497 34 99 34H449C461.15 34 471 43.8497 471 56V335H77V56Z" fill="#3E8CC7"/>
<path d="M269.5 182.5L434.574 39.1352C448.816 26.7664 471 36.8823 471 55.7454V335H77L269.5 182.5Z" fill="#98C7EB"/>
<rect x="351" y="55" width="53" height="17" fill="#DC0000"/>
<rect x="422" y="55" width="18" height="17" fill="#DC0000"/>
<circle cx="273" cy="195" r="115" fill="#6C86E0"/>
<rect y="335" width="547" height="51" rx="23" fill="#E9EEF9"/>
<rect x="379.409" y="280" width="140" height="96" fill="#FEC9A3"/>
<rect x="411.409" y="264" width="36" height="40" rx="18" fill="#FEC9A3"/>
<rect x="379.409" y="187" width="36" height="117" rx="18" fill="#FEC9A3"/>
<rect x="312" y="324.682" width="36" height="96.6049" rx="18" transform="rotate(-52.8179 312 324.682)" fill="#FEC9A3"/>
<rect x="447.409" y="264" width="36" height="40" rx="18" fill="#FEC9A3"/>
<rect x="483.409" y="264" width="36" height="40" rx="18" fill="#FEC9A3"/>
<path d="M468.5 327.5L481.5 316.5L491.5 306L519.409 280V376H379.409L419 360.5L440 349L454.5 339.5L468.5 327.5Z" fill="#FEC093"/>
<rect x="250.599" y="174.466" width="13.2996" height="26.5992" fill="#DC0000"/>
<rect x="287.665" y="174.435" width="10.2765" height="37.0663" transform="rotate(89.8332 287.665 174.435)" fill="#DC0000"/>
<rect x="276.001" y="173.667" width="13.2996" height="26.5992" fill="#DC0000"/>
<path d="M269.219 162.053L287.838 174.466H250.599L269.219 162.053Z" fill="#DC0000"/>
<circle cx="269.219" cy="184.219" r="42.2187" stroke="white" stroke-width="6"/>
<rect x="287.838" y="223.933" width="3.54656" height="15.9595" transform="rotate(-26.6177 287.838 223.933)" fill="white"/>
<rect x="290.691" y="239.935" width="13.6515" height="44.0462" transform="rotate(-26.6177 290.691 239.935)" fill="white"/>
<path d="M293.803 234.677L295.722 238.002L290.699 239.997L293.803 234.677Z" fill="white"/>
<path d="M293.803 234.677L295.722 238.002L290.699 239.997L293.803 234.677Z" fill="white"/>
<path d="M295.375 233.427L302.911 233.87L297.591 236.53L295.375 233.427Z" fill="white"/>
<path d="M295.375 233.427L302.911 233.87L297.591 236.53L295.375 233.427Z" fill="white"/>
<rect x="313.368" y="277.269" width="7.1948" height="2.99106" transform="rotate(-26.7516 313.368 277.269)" fill="white"/>
<path d="M313.256 276.76L314.824 279.863L310.448 279.089L313.256 276.76Z" fill="white"/>
<path d="M318.025 274.531L321.974 273.326L321.087 276.872L318.025 274.531Z" fill="white"/>
</svg>
