<svg width="547" height="386" viewBox="0 0 547 386" fill="none" xmlns="http://www.w3.org/2000/svg">
<path d="M44 22C44 9.84973 53.8497 0 66 0H482C494.15 0 504 9.84974 504 22V335H44V22Z" fill="#3269A1"/>
<path d="M77 56C77 43.8497 86.8497 34 99 34H449C461.15 34 471 43.8497 471 56V335H77V56Z" fill="#3E8CC7"/>
<path d="M269.5 182.5L434.574 39.1352C448.816 26.7664 471 36.8823 471 55.7454V335H77L269.5 182.5Z" fill="#98C7EB"/>
<rect x="351" y="55" width="53" height="17" fill="#DC0000"/>
<rect x="422" y="55" width="18" height="17" fill="#DC0000"/>
<circle cx="274" cy="168" r="63" fill="#6C86E0"/>
<circle cx="274" cy="151" r="17" fill="#345B82"/>
<path d="M249 193.5C249 179.417 260.417 168 274.5 168V168C288.583 168 300 179.417 300 193.5V222H249V193.5Z" fill="#345B82"/>
<rect y="335" width="547" height="51" rx="23" fill="#E9EEF9"/>
<rect x="131" y="245" width="284" height="75" fill="#DEE6FF"/>
<rect x="156" y="258" width="233" height="50" fill="#6C86E0"/>
</svg>
