<svg width="50" height="48" viewBox="0 0 50 48" fill="none" xmlns="http://www.w3.org/2000/svg">
<path d="M25 15.7704C23.3003 15.7704 21.6388 16.2477 20.2256 17.142C18.8123 18.0362 17.7109 19.3073 17.0604 20.7944C16.41 22.2815 16.2398 23.9178 16.5714 25.4965C16.903 27.0752 17.7214 28.5253 18.9233 29.6635C20.1252 30.8017 21.6564 31.5768 23.3234 31.8908C24.9905 32.2048 26.7184 32.0436 28.2887 31.4277C29.859 30.8117 31.2011 29.7686 32.1454 28.4302C33.0897 27.0919 33.5938 25.5184 33.5938 23.9088C33.5912 21.7511 32.6849 19.6825 31.0738 18.1568C29.4628 16.6311 27.2784 15.7729 25 15.7704ZM25 30.5675C23.6094 30.5675 22.2499 30.1769 21.0936 29.4453C19.9374 28.7136 19.0361 27.6737 18.504 26.457C17.9718 25.2402 17.8326 23.9014 18.1039 22.6098C18.3752 21.3181 19.0448 20.1316 20.0282 19.2004C21.0115 18.2692 22.2643 17.635 23.6283 17.3781C24.9922 17.1211 26.4059 17.253 27.6907 17.757C28.9755 18.261 30.0737 19.1144 30.8463 20.2094C31.6189 21.3045 32.0312 22.5918 32.0312 23.9088C32.0292 25.6742 31.2877 27.3667 29.9696 28.615C28.6514 29.8633 26.8642 30.5655 25 30.5675ZM33.5938 6.15234H16.4062C13.7136 6.15523 11.1321 7.16949 9.22807 8.9726C7.32406 10.7757 6.25305 13.2204 6.25 15.7704V32.0472C6.25305 34.5972 7.32406 37.0419 9.22807 38.845C11.1321 40.6481 13.7136 41.6624 16.4062 41.6652H33.5938C36.2864 41.6624 38.8679 40.6481 40.7719 38.845C42.6759 37.0419 43.7469 34.5972 43.75 32.0472V15.7704C43.7469 13.2204 42.6759 10.7757 40.7719 8.9726C38.8679 7.16949 36.2864 6.15523 33.5938 6.15234ZM42.1875 32.0472C42.1849 34.2048 41.2787 36.2735 39.6676 37.7992C38.0565 39.3249 35.8722 40.1831 33.5938 40.1855H16.4062C14.1278 40.1831 11.9435 39.3249 10.3324 37.7992C8.72132 36.2735 7.81508 34.2048 7.8125 32.0472V15.7704C7.81508 13.6127 8.72132 11.5441 10.3324 10.0184C11.9435 8.49272 14.1278 7.6345 16.4062 7.63205H33.5938C35.8722 7.6345 38.0565 8.49272 39.6676 10.0184C41.2787 11.5441 42.1849 13.6127 42.1875 15.7704V32.0472ZM36.7188 14.2907C36.7188 14.5834 36.6271 14.8695 36.4554 15.1128C36.2837 15.3561 36.0397 15.5458 35.7542 15.6578C35.4687 15.7698 35.1545 15.7991 34.8514 15.742C34.5483 15.6849 34.2699 15.544 34.0514 15.337C33.8329 15.1301 33.6841 14.8664 33.6238 14.5794C33.5635 14.2924 33.5944 13.9948 33.7127 13.7245C33.8309 13.4541 34.0312 13.223 34.2882 13.0604C34.5451 12.8978 34.8472 12.811 35.1562 12.811C35.5705 12.8115 35.9676 12.9676 36.2605 13.2449C36.5534 13.5223 36.7182 13.8984 36.7188 14.2907Z" fill="#B0C0CF"/>
</svg>
