<svg width="56" height="17" viewBox="0 0 56 17" fill="none" xmlns="http://www.w3.org/2000/svg">
<g clip-path="url(#clip0_73_154)">
<path d="M2.9668 1.08646C1.82416 1.56602 0.568209 2.91912 0.171506 4.61884C-0.330963 6.77172 1.75963 7.68241 1.93124 7.38421C2.13304 7.03342 1.55663 6.91484 1.43796 5.79769C1.28462 4.35484 1.9541 2.74268 2.79673 2.03528C2.95313 1.90378 2.9458 2.08679 2.9458 2.42509C2.9458 3.03013 2.91244 8.4618 2.91244 9.59539C2.91244 11.1292 2.84923 11.6136 2.73558 12.0923C2.62063 12.5772 2.43557 12.905 2.57568 13.0312C2.7323 13.1724 3.40102 12.8365 3.7881 12.2952C4.25229 11.646 4.41482 10.8662 4.44402 10.0196C4.47924 8.9989 4.47771 7.37917 4.47924 6.45534C4.48055 5.6081 4.49346 3.12712 4.46437 1.63561C4.45726 1.26958 3.44466 0.885803 2.9668 1.08646Z" fill="#2EA153"/>
<path d="M43.5383 8.26504C43.5014 9.06252 43.3252 9.68575 43.1066 10.1254C42.6833 10.9766 41.805 11.2408 41.4321 10.0174C41.2288 9.3504 41.2193 8.23654 41.3653 7.3058C41.5141 6.35775 41.9295 5.64169 42.6171 5.70624C43.2955 5.77013 43.613 6.64586 43.5383 8.26514V8.26504ZM32.1031 13.2125C32.094 14.5375 31.8858 15.6991 31.4396 16.0367C30.8065 16.5151 29.9557 16.1561 30.1319 15.1893C30.2877 14.3337 31.025 13.46 32.105 12.3924C32.105 12.3924 32.1072 12.6359 32.1031 13.2125ZM31.9303 8.25725C31.8916 8.98361 31.7037 9.71315 31.4986 10.1254C31.0753 10.9766 30.1907 11.2427 29.8241 10.0174C29.5734 9.1801 29.6335 8.09671 29.7574 7.41397C29.9184 6.52816 30.3086 5.70635 31.0092 5.70635C31.6904 5.70635 32.0264 6.45517 31.9303 8.25725ZM25.306 8.2463C25.2645 9.01539 25.1147 9.65835 24.8744 10.1254C24.4396 10.9708 23.5792 11.2388 23.1999 10.0174C22.9264 9.1366 23.0194 7.93572 23.1332 7.28695C23.3021 6.32421 23.7249 5.64169 24.385 5.70635C25.063 5.77276 25.3925 6.64586 25.306 8.2463ZM55.6634 9.14471C55.4977 9.14471 55.422 9.31589 55.3593 9.60388C55.1424 10.606 54.9142 10.832 54.6201 10.832C54.2914 10.832 53.9961 10.336 53.9201 9.34295C53.8605 8.56202 53.8701 7.12443 53.9463 5.69441C53.962 5.4006 53.881 5.10986 53.0945 4.82361C52.7561 4.70043 52.2641 4.51906 52.0191 5.1115C51.3271 6.78536 51.0563 8.11424 50.9925 8.65386C50.9892 8.6818 50.955 8.68761 50.9491 8.6223C50.9084 8.18997 50.8177 7.40421 50.8064 5.75358C50.8042 5.4315 50.7362 5.15742 50.3813 4.93298C50.1511 4.78723 49.4521 4.52969 49.2004 4.83621C48.9823 5.08673 48.7297 5.76115 48.4673 6.56071C48.254 7.21057 48.1055 7.65002 48.1055 7.65002C48.1055 7.65002 48.1083 5.89682 48.1108 5.23172C48.1119 4.98087 47.9402 4.89725 47.8884 4.88213C47.6554 4.8144 47.196 4.7012 47.0011 4.7012C46.7605 4.7012 46.7016 4.83577 46.7016 5.03216C46.7016 5.05791 46.6637 7.34043 46.6637 8.93649C46.6637 9.00586 46.6637 9.08147 46.664 9.16191C46.531 9.8955 46.0995 10.8912 45.6303 10.8912C45.1604 10.8912 44.9388 10.475 44.9388 8.57221C44.9388 7.46219 44.9721 6.97945 44.9884 6.1766C44.9979 5.71413 45.0163 5.35906 45.0152 5.27851C45.0117 5.03139 44.5853 4.90679 44.3868 4.86076C44.1874 4.8144 44.0142 4.79632 43.8789 4.8041C43.6874 4.81506 43.5519 4.94076 43.5519 5.11391C43.5519 5.20684 43.553 5.38328 43.553 5.38328C43.3063 4.9949 42.9096 4.72465 42.6457 4.6463C41.9347 4.43479 41.193 4.62219 40.6334 5.40673C40.1887 6.02997 39.9206 6.73605 39.8151 7.7503C39.7379 8.49188 39.7631 9.24378 39.9003 9.87972C39.7346 10.5973 39.4271 10.8912 39.0903 10.8912C38.6014 10.8912 38.2471 10.0919 38.2882 8.70909C38.3153 7.79961 38.497 7.16136 38.6955 6.23797C38.7802 5.84432 38.7114 5.6383 38.5389 5.44082C38.3806 5.25967 38.0434 5.16706 37.5589 5.28082C37.2137 5.36202 36.7201 5.44936 36.2685 5.51643C36.2685 5.51643 36.2958 5.40739 36.3181 5.21539C36.4356 4.20827 35.3433 4.28991 34.9947 4.61156C34.7868 4.80367 34.6451 5.03019 34.5914 5.43742C34.5061 6.08378 35.0322 6.38865 35.0322 6.38865C34.8597 7.18032 34.4365 8.21441 33.9997 8.96213C33.7657 9.36268 33.5868 9.65956 33.3557 9.97506C33.3482 8.70889 33.3564 7.44267 33.3804 6.17671C33.3899 5.71424 33.4084 5.3686 33.4074 5.28794C33.4048 5.10734 33.2995 5.03895 33.0804 4.9526C32.8866 4.8761 32.6576 4.82328 32.4199 4.80465C32.12 4.78142 31.9393 4.94065 31.9441 5.12915C31.945 5.16476 31.945 5.38328 31.945 5.38328C31.6983 4.9949 31.3016 4.72465 31.0377 4.6463C30.3268 4.43479 29.585 4.62219 29.0254 5.40673C28.5808 6.02997 28.2897 6.90471 28.2071 7.74262C28.1303 8.52345 28.1444 9.18701 28.2492 9.74613C28.1362 10.3059 27.8112 10.8913 27.4438 10.8913C26.9739 10.8913 26.7066 10.475 26.7066 8.57221C26.7066 7.46219 26.7398 6.97945 26.7562 6.1766C26.7657 5.71424 26.784 5.35906 26.783 5.27851C26.7795 5.03139 26.3531 4.9069 26.1546 4.86076C25.947 4.81254 25.7677 4.79501 25.63 4.8052C25.4484 4.81868 25.3207 4.98164 25.3207 5.10317V5.38328C25.074 4.9949 24.6773 4.72465 24.4134 4.6463C23.7025 4.43479 22.9649 4.62525 22.4011 5.40673C22.0336 5.91621 21.736 6.48104 21.5829 7.73145C21.5386 8.09276 21.519 8.43128 21.5217 8.74745C21.3751 9.64564 20.7276 10.6808 20.1981 10.6808C19.8882 10.6808 19.593 10.0785 19.593 8.79512C19.593 7.08553 19.6987 4.65134 19.7166 4.41682C19.7166 4.41682 20.3857 4.40542 20.5152 4.40388C20.849 4.40016 21.1512 4.40816 21.5958 4.38525C21.8187 4.37397 22.0335 3.5721 21.8034 3.47293C21.6991 3.42799 20.962 3.38876 20.6697 3.38251C20.4241 3.37704 19.74 3.32619 19.74 3.32619C19.74 3.32619 19.8014 1.71051 19.8157 1.53988C19.8278 1.39753 19.644 1.32432 19.5388 1.27994C19.2826 1.17145 19.0535 1.11939 18.7819 1.06328C18.4065 0.985693 18.2364 1.06164 18.2031 1.3789C18.153 1.86054 18.1271 3.27128 18.1271 3.27128C17.8517 3.27128 16.9108 3.21736 16.6354 3.21736C16.3795 3.21736 16.1032 4.32027 16.4572 4.33386C16.8642 4.34964 17.5738 4.36345 18.0441 4.37747C18.0441 4.37747 18.0231 6.85177 18.0231 7.61583C18.0231 7.69693 18.0235 7.77528 18.024 7.85123C17.7651 9.20301 16.8533 9.93331 16.8533 9.93331C17.0491 9.03895 16.6491 8.36728 15.9287 7.79873C15.6632 7.58931 15.1392 7.19271 14.5529 6.75808C14.5529 6.75808 14.8924 6.42273 15.1937 5.7481C15.4069 5.27008 15.4162 4.72334 14.8924 4.60268C14.0271 4.40323 13.3136 5.04005 13.1008 5.71994C12.9358 6.24662 13.0238 6.63731 13.3469 7.04323C13.3704 7.07293 13.3961 7.10328 13.4223 7.13375C13.2271 7.51095 12.9587 8.0189 12.7314 8.41276C12.1005 9.50646 11.624 10.3713 11.2638 10.3713C10.9759 10.3713 10.9798 9.49309 10.9798 8.67084C10.9798 7.96202 11.032 6.89627 11.0738 5.79304C11.0876 5.4281 10.9054 5.22021 10.6002 5.03194C10.4147 4.91753 10.0189 4.69265 9.78966 4.69265C9.44644 4.69265 8.45637 4.73945 7.521 7.45068C7.40309 7.79238 7.17144 8.41506 7.17144 8.41506L7.19145 5.15468C7.19145 5.07819 7.15077 5.00432 7.05769 4.9538C6.90008 4.86799 6.47909 4.69265 6.1047 4.69265C5.92642 4.69265 5.83728 4.77572 5.83728 4.94142L5.80469 10.0424C5.80469 10.43 5.81475 10.8821 5.85303 11.0798C5.89109 11.2777 5.95289 11.4388 6.02923 11.5346C6.10569 11.6303 6.19395 11.7034 6.33953 11.7334C6.47505 11.7614 7.21705 11.8568 7.25566 11.5728C7.30181 11.2322 7.30367 10.8639 7.69327 9.49035C8.29986 7.35183 9.09064 6.30854 9.46252 5.93791C9.52759 5.87325 9.60175 5.86931 9.59814 5.97528C9.58239 6.4441 9.5265 7.61583 9.48898 8.6109C9.38825 11.2745 9.8718 11.7682 10.5629 11.7682C11.0917 11.7682 11.8369 11.2418 12.6358 9.90942C13.0809 9.16691 13.524 8.42316 13.965 7.67819C14.2071 7.90273 14.4789 8.14438 14.7504 8.40257C15.3815 9.00268 15.5886 9.57298 15.4511 10.1139C15.3461 10.5274 14.9501 10.9536 14.2454 10.5394C14.04 10.4186 13.9522 10.3251 13.7457 10.1889C13.6348 10.1158 13.4654 10.0939 13.3638 10.1706C13.1 10.3698 12.9491 10.6234 12.8629 10.9373C12.7791 11.2427 13.0844 11.4041 13.4009 11.5454C13.6733 11.6669 14.259 11.777 14.6325 11.7895C16.0877 11.8383 17.2535 11.0855 18.0651 9.14372C18.2103 10.8208 18.8285 11.7697 19.9027 11.7697C20.6208 11.7697 21.3409 10.8396 21.6558 9.92465C21.7461 10.2976 21.88 10.622 22.0528 10.8963C22.8804 12.2102 24.486 11.9275 25.2926 10.8117C25.542 10.4669 25.5799 10.3431 25.5799 10.3431C25.6976 11.3965 26.5444 11.7647 27.0291 11.7647C27.5722 11.7647 28.1327 11.5074 28.5257 10.6211C28.5718 10.7173 28.6221 10.8093 28.677 10.8963C29.5046 12.2102 31.1103 11.9275 31.9169 10.8117C31.9549 10.7593 31.988 10.7119 32.0167 10.6692L32.0404 11.3613L31.2978 12.0437C30.0531 13.1867 29.1077 14.0535 29.0381 15.0632C28.9495 16.3505 29.991 16.829 30.78 16.8917C31.6164 16.9582 32.334 16.4948 32.7744 15.8464C33.162 15.2756 33.4157 14.0471 33.397 12.8338C33.3897 12.3479 33.3774 11.7301 33.3678 11.0679C33.8048 10.5595 34.2971 9.91687 34.7503 9.16487C35.2443 8.34525 35.7737 7.24454 36.0447 6.38788C36.0447 6.38788 36.5046 6.39194 36.9955 6.35972C37.1524 6.34942 37.1976 6.38164 37.1685 6.49682C37.1335 6.63621 36.5484 8.89736 37.0824 10.4037C37.4479 11.4349 38.2718 11.7665 38.7603 11.7665C39.3322 11.7665 39.8792 11.3339 40.1723 10.6914C40.2077 10.763 40.2446 10.8323 40.2849 10.8964C41.1126 12.2104 42.7126 11.9257 43.5248 10.8117C43.7082 10.5603 43.8122 10.3431 43.8122 10.3431C43.9864 11.4335 44.8327 11.7702 45.3175 11.7702C45.8224 11.7702 46.3017 11.5628 46.6904 10.641C46.7068 11.047 46.7323 11.3788 46.7726 11.4833C46.7972 11.5474 46.9407 11.6277 47.0451 11.6665C47.5071 11.8381 47.978 11.757 48.1524 11.7217C48.2731 11.6971 48.3673 11.6 48.3802 11.3495C48.4141 10.6914 48.3933 9.5858 48.5924 8.76399C48.9265 7.38504 49.2384 6.85013 49.3862 6.58536C49.469 6.43687 49.5623 6.41243 49.5657 6.56947C49.5727 6.88728 49.5885 7.82021 49.718 9.07391C49.8131 9.99578 49.94 10.5408 50.0377 10.7134C50.3164 11.2065 50.6604 11.2299 50.9406 11.2299C51.1189 11.2299 51.4916 11.1805 51.4582 10.8667C51.4419 10.7137 51.4704 9.76816 51.7999 8.40958C52.0151 7.52235 52.3738 6.72082 52.5032 6.42767C52.551 6.31961 52.5732 6.40476 52.5723 6.42142C52.5451 7.03238 52.484 9.03084 52.7324 10.1239C53.0692 11.6045 54.0433 11.7702 54.3828 11.7702C55.1075 11.7702 55.7002 11.2179 55.8999 9.76454C55.948 9.41473 55.8768 9.14471 55.6634 9.14471Z" fill="#2EA153"/>
</g>
<defs>
<clipPath id="clip0_73_154">
<rect width="56" height="16" fill="white" transform="translate(0 0.987305)"/>
</clipPath>
</defs>
</svg>
