<svg width="801" height="801" viewBox="0 0 801 801" fill="none" xmlns="http://www.w3.org/2000/svg">
<path d="M497 0C329.1 0 193 136.1 193 304C193 374.3 216.9 439 256.9 490.5L215.8 531.6L153.5 469.3C151.977 467.81 149.931 466.975 147.8 466.975C145.669 466.975 143.623 467.81 142.1 469.3L102.3 509.1C100.81 510.623 99.9751 512.669 99.9751 514.8C99.9751 516.931 100.81 518.977 102.3 520.5L164.6 582.8L119.7 627.7L57.4 565.4C55.877 563.91 53.8308 563.075 51.7 563.075C49.5691 563.075 47.523 563.91 46 565.4L6.19997 605.2C4.70968 606.723 3.87514 608.769 3.87514 610.9C3.87514 613.031 4.70968 615.077 6.19997 616.6L68.5 678.9L3.19997 744.2C1.71115 745.704 0.875977 747.734 0.875977 749.85C0.875977 751.966 1.71115 753.996 3.19997 755.5L45.5 797.8C48.6 800.9 53.7 800.9 56.8 797.8L310.4 544.2C363.785 585.607 429.439 608.055 497 608C664.9 608 801 471.9 801 304C801 136.1 664.9 0 497 0ZM658.2 465.2C615.2 508.3 557.9 532 497 532C436.1 532 378.8 508.3 335.8 465.2C292.7 422.2 269 364.9 269 304C269 243.1 292.7 185.8 335.8 142.8C378.8 99.7 436.1 76 497 76C557.9 76 615.2 99.7 658.2 142.8C701.3 185.8 725 243.1 725 304C725 364.9 701.3 422.2 658.2 465.2Z" fill="white"/>
</svg>
