<svg id="visual" viewBox="0 0 900 600" width="900" height="600" xmlns="http://www.w3.org/2000/svg" xmlns:xlink="http://www.w3.org/1999/xlink" version="1.1"><rect x="0" y="0" width="900" height="600" fill="#DEE6FF"></rect><path d="M0 253L129 253L129 303L257 303L257 329L386 329L386 297L514 297L514 275L643 275L643 325L771 325L771 265L900 265L900 222L900 0L900 0L771 0L771 0L643 0L643 0L514 0L514 0L386 0L386 0L257 0L257 0L129 0L129 0L0 0Z" fill="#5606c8"></path><path d="M0 208L129 208L129 160L257 160L257 157L386 157L386 221L514 221L514 202L643 202L643 237L771 237L771 232L900 232L900 223L900 0L900 0L771 0L771 0L643 0L643 0L514 0L514 0L386 0L386 0L257 0L257 0L129 0L129 0L0 0Z" fill="#5357db"></path><path d="M0 138L129 138L129 52L257 52L257 69L386 69L386 109L514 109L514 76L643 76L643 62L771 62L771 107L900 107L900 64L900 0L900 0L771 0L771 0L643 0L643 0L514 0L514 0L386 0L386 0L257 0L257 0L129 0L129 0L0 0Z" fill="#6c86e0"></path></svg>