<svg width="899" height="476" viewBox="0 0 899 476" fill="none" xmlns="http://www.w3.org/2000/svg">
<circle cx="456" cy="40" r="2" fill="white"/>
<ellipse cx="167" cy="99" rx="59" ry="58" fill="white"/>
<ellipse cx="187" cy="91" rx="59" ry="58" fill="#6C86E0"/>
<circle cx="384" cy="70" r="2" fill="white"/>
<circle cx="325" cy="170" r="2" fill="white"/>
<circle cx="442" cy="158" r="2" fill="white"/>
<circle cx="337" cy="52" r="2" fill="white"/>
<circle cx="257" cy="126" r="2" fill="white"/>
<circle cx="253" cy="35" r="2" fill="white"/>
<circle cx="735" cy="180" r="2" fill="white"/>
<circle cx="676" cy="88" r="2" fill="white"/>
<circle cx="805" cy="92" r="2" fill="white"/>
<circle cx="496" cy="24" r="2" fill="white"/>
<circle cx="639" cy="272" r="2" fill="white"/>
<circle cx="539" cy="114" r="2" fill="white"/>
<circle cx="78" cy="22" r="2" fill="white"/>
<circle cx="41" cy="20" r="2" fill="white"/>
<circle cx="669" cy="20" r="2" fill="white"/>
<circle cx="572" cy="170" r="2" fill="white"/>
<circle cx="834" cy="299" r="2" fill="white"/>
<circle cx="139" cy="182" r="2" fill="white"/>
<circle cx="74" cy="176" r="2" fill="white"/>
<circle cx="23" cy="88" r="2" fill="white"/>
<circle cx="2" cy="198" r="2" fill="white"/>
<circle cx="356" cy="272" r="2" fill="white"/>
<circle cx="625" cy="202" r="2" fill="white"/>
<circle cx="476" cy="221" r="2" fill="white"/>
<circle cx="854" cy="2" r="2" fill="white"/>
<circle cx="850" cy="24" r="2" fill="white"/>
<circle cx="398" cy="198" r="2" fill="white"/>
<circle cx="239" cy="204" r="2" fill="white"/>
<path d="M96 268C96 269.105 95.1046 270 94 270C92.8954 270 92 269.105 92 268C92 266.895 92.8954 266 94 266C95.1046 266 96 266.895 96 268Z" fill="white"/>
<path d="M523 470C523 471.105 522.105 472 521 472C519.895 472 519 471.105 519 470C519 468.895 519.895 468 521 468C522.105 468 523 468.895 523 470Z" fill="white"/>
<path d="M446 474C446 475.105 445.105 476 444 476C442.895 476 442 475.105 442 474C442 472.895 442.895 472 444 472C445.105 472 446 472.895 446 474Z" fill="white"/>
<path d="M491 446C491 447.105 490.105 448 489 448C487.895 448 487 447.105 487 446C487 444.895 487.895 444 489 444C490.105 444 491 444.895 491 446Z" fill="white"/>
<path d="M786 229C786 230.105 785.105 231 784 231C782.895 231 782 230.105 782 229C782 227.895 782.895 227 784 227C785.105 227 786 227.895 786 229Z" fill="white"/>
<path d="M660 281C660 282.105 659.105 283 658 283C656.895 283 656 282.105 656 281C656 279.895 656.895 279 658 279C659.105 279 660 279.895 660 281Z" fill="white"/>
<circle cx="49" cy="442" r="2" fill="white"/>
<circle cx="535" cy="102" r="2" fill="white"/>
<ellipse cx="249.812" cy="185" rx="12.8125" ry="2.5" fill="white"/>
<ellipse cx="259.5" cy="187.5" rx="7.8125" ry="2.5" fill="white"/>
<ellipse cx="255.125" cy="182.5" rx="7.8125" ry="2.5" fill="white"/>
<ellipse cx="271.688" cy="184.062" rx="7.8125" ry="2.5" fill="white"/>
<ellipse cx="270.438" cy="185" rx="12.8125" ry="2.5" fill="white"/>
<ellipse cx="262.781" cy="184.062" rx="12.9688" ry="2.5" fill="white"/>
<ellipse cx="278.25" cy="187.5" rx="12.8125" ry="2.5" fill="white"/>
<ellipse cx="680.527" cy="116" rx="9.46496" ry="1.84682" fill="white"/>
<ellipse cx="687.684" cy="117.847" rx="5.77132" ry="1.84682" fill="white"/>
<ellipse cx="684.452" cy="114.153" rx="5.77132" ry="1.84682" fill="white"/>
<ellipse cx="696.687" cy="115.308" rx="5.77132" ry="1.84682" fill="white"/>
<ellipse cx="695.764" cy="116" rx="9.46496" ry="1.84682" fill="white"/>
<ellipse cx="690.108" cy="115.308" rx="9.58038" ry="1.84682" fill="white"/>
<ellipse cx="701.535" cy="117.847" rx="9.46496" ry="1.84682" fill="white"/>
<ellipse cx="660.465" cy="113.694" rx="9.46496" ry="1.84682" fill="white"/>
<ellipse cx="667.621" cy="115.54" rx="5.77132" ry="1.84682" fill="white"/>
<ellipse cx="664.389" cy="111.847" rx="5.77132" ry="1.84682" fill="white"/>
<ellipse cx="676.625" cy="113.001" rx="5.77132" ry="1.84682" fill="white"/>
<ellipse cx="675.701" cy="113.694" rx="9.46496" ry="1.84682" fill="white"/>
<ellipse cx="670.045" cy="113.001" rx="9.58038" ry="1.84682" fill="white"/>
<ellipse cx="681.473" cy="115.54" rx="9.46496" ry="1.84682" fill="white"/>
<ellipse cx="835.812" cy="107" rx="12.8125" ry="2.5" fill="white"/>
<ellipse cx="845.5" cy="109.5" rx="7.8125" ry="2.5" fill="white"/>
<ellipse cx="841.125" cy="104.5" rx="7.8125" ry="2.5" fill="white"/>
<ellipse cx="857.688" cy="106.062" rx="7.8125" ry="2.5" fill="white"/>
<ellipse cx="856.438" cy="107" rx="12.8125" ry="2.5" fill="white"/>
<ellipse cx="848.781" cy="106.062" rx="12.9688" ry="2.5" fill="white"/>
<ellipse cx="864.25" cy="109.5" rx="12.8125" ry="2.5" fill="white"/>
<ellipse cx="856.812" cy="100" rx="12.8125" ry="2.5" fill="white"/>
<ellipse cx="866.5" cy="102.5" rx="7.8125" ry="2.5" fill="white"/>
<ellipse cx="862.125" cy="97.5" rx="7.8125" ry="2.5" fill="white"/>
<ellipse cx="878.688" cy="99.0625" rx="7.8125" ry="2.5" fill="white"/>
<ellipse cx="877.438" cy="100" rx="12.8125" ry="2.5" fill="white"/>
<ellipse cx="869.781" cy="99.0625" rx="12.9688" ry="2.5" fill="white"/>
<ellipse cx="885.25" cy="102.5" rx="12.8125" ry="2.5" fill="white"/>
<ellipse cx="228.812" cy="188" rx="12.8125" ry="2.5" fill="white"/>
<ellipse cx="238.5" cy="190.5" rx="7.8125" ry="2.5" fill="white"/>
<ellipse cx="234.125" cy="185.5" rx="7.8125" ry="2.5" fill="white"/>
<ellipse cx="250.688" cy="187.062" rx="7.8125" ry="2.5" fill="white"/>
<ellipse cx="249.438" cy="188" rx="12.8125" ry="2.5" fill="white"/>
<ellipse cx="241.781" cy="187.062" rx="12.9688" ry="2.5" fill="white"/>
<ellipse cx="257.25" cy="190.5" rx="12.8125" ry="2.5" fill="white"/>
</svg>
