<svg width="37" height="43" viewBox="0 0 37 43" fill="none" xmlns="http://www.w3.org/2000/svg">
<path fill-rule="evenodd" clip-rule="evenodd" d="M18.5 0C16.6764 0 13.6292 0.700356 10.7617 1.48C7.82814 2.27285 4.87079 3.21107 3.13179 3.77928C2.40472 4.01939 1.76013 4.45972 1.27206 5.0497C0.783998 5.63968 0.472258 6.35537 0.372656 7.11456C-1.20248 18.9466 2.45258 27.7156 6.88729 33.5167C8.76789 35.9982 11.0102 38.1835 13.5393 39.9996C14.5595 40.7211 15.5056 41.2734 16.3091 41.6514C17.0491 42.0002 17.8446 42.2856 18.5 42.2856C19.1554 42.2856 19.9483 42.0002 20.6909 41.6514C21.6595 41.1806 22.5861 40.628 23.4606 39.9996C25.9898 38.1835 28.2321 35.9982 30.1127 33.5167C34.5474 27.7156 38.2024 18.9466 36.6273 7.11456C36.5279 6.35501 36.2162 5.6389 35.7282 5.04846C35.2401 4.45803 34.5954 4.01721 33.8682 3.77664C31.3437 2.94893 28.7997 2.18228 26.2383 1.47735C23.3708 0.702999 20.3235 0 18.5 0ZM18.5 13.2143C19.4362 13.2129 20.3427 13.5428 21.0589 14.1458C21.7751 14.7487 22.2548 15.5856 22.4131 16.5083C22.5714 17.4311 22.398 18.38 21.9236 19.1872C21.4493 19.9943 20.7046 20.6075 19.8214 20.9182L20.8389 26.1775C20.8759 26.3687 20.8702 26.5658 20.8221 26.7547C20.774 26.9435 20.6848 27.1193 20.5608 27.2696C20.4367 27.4199 20.281 27.5409 20.1048 27.6239C19.9285 27.7069 19.7361 27.75 19.5413 27.7499H17.4587C17.2641 27.7496 17.0719 27.7063 16.896 27.6231C16.7201 27.5398 16.5647 27.4188 16.441 27.2686C16.3173 27.1183 16.2283 26.9426 16.1803 26.754C16.1324 26.5654 16.1267 26.3685 16.1637 26.1775L17.1786 20.9182C16.2954 20.6075 15.5507 19.9943 15.0763 19.1872C14.602 18.38 14.4286 17.4311 14.5869 16.5083C14.7451 15.5856 15.2249 14.7487 15.9411 14.1458C16.6573 13.5428 17.5638 13.2129 18.5 13.2143Z" fill="#C4040D"/>
</svg>
