<svg width="1137" height="380" viewBox="0 0 1137 380" fill="none" xmlns="http://www.w3.org/2000/svg">
<path d="M879 278.683H877V377.498H879V278.683Z" fill="#3F3D56"/>
<path d="M897.458 291.276C897.585 325.829 878.15 353.953 878.15 353.953C878.15 353.953 858.508 326.054 858.381 291.501C858.254 256.948 877.689 228.824 877.689 228.824C877.689 228.824 897.33 256.723 897.458 291.276Z" fill="#6559ED"/>
<path opacity="0.1" d="M897.458 291.276C897.585 325.829 878.15 353.953 878.15 353.953C878.15 353.953 858.508 326.054 858.381 291.501C858.254 256.948 877.689 228.824 877.689 228.824C877.689 228.824 897.33 256.723 897.458 291.276Z" fill="black"/>
<path opacity="0.4" d="M501.022 82.2194C518.28 82.2194 532.27 64.7201 532.27 43.1336C532.27 21.5472 518.28 4.04785 501.022 4.04785C483.764 4.04785 469.774 21.5472 469.774 43.1336C469.774 64.7201 483.764 82.2194 501.022 82.2194Z" fill="#6559ED"/>
<path opacity="0.4" d="M443.19 89.2198C455.296 89.2198 465.11 76.9442 465.11 61.8014C465.11 46.6587 455.296 34.3831 443.19 34.3831C431.084 34.3831 421.27 46.6587 421.27 61.8014C421.27 76.9442 431.084 89.2198 443.19 89.2198Z" fill="#6559ED"/>
<path opacity="0.4" d="M208.19 168.022C220.296 168.022 230.11 155.746 230.11 140.604C230.11 125.461 220.296 113.185 208.19 113.185C196.084 113.185 186.27 125.461 186.27 140.604C186.27 155.746 196.084 168.022 208.19 168.022Z" fill="#6559ED"/>
<path opacity="0.4" d="M856.312 79.0038C873.57 79.0038 887.56 61.5045 887.56 39.918C887.56 18.3316 873.57 0.832275 856.312 0.832275C839.055 0.832275 825.064 18.3316 825.064 39.918C825.064 61.5045 839.055 79.0038 856.312 79.0038Z" fill="#6559ED"/>
<path d="M56.6307 366.511C58.3247 374.343 64.1268 379.194 64.1268 379.194C64.1268 379.194 67.1825 371.346 65.4886 363.514C63.7946 355.681 57.9925 350.83 57.9925 350.83C57.9925 350.83 54.9367 358.678 56.6307 366.511Z" fill="#3F3D56"/>
<path d="M59.1197 364.828C63.7679 370.487 64.3356 379.188 64.3356 379.188C64.3356 379.188 57.3672 378.712 52.7189 373.052C48.0707 367.392 47.5029 358.692 47.5029 358.692C47.5029 358.692 54.4714 359.168 59.1197 364.828Z" fill="#6559ED"/>
<path d="M668.631 366.511C670.325 374.343 676.127 379.194 676.127 379.194C676.127 379.194 679.183 371.346 677.489 363.514C675.795 355.681 669.992 350.83 669.992 350.83C669.992 350.83 666.937 358.678 668.631 366.511Z" fill="#3F3D56"/>
<path d="M671.12 364.828C675.768 370.487 676.336 379.188 676.336 379.188C676.336 379.188 669.367 378.712 664.719 373.052C660.071 367.392 659.503 358.692 659.503 358.692C659.503 358.692 666.471 359.168 671.12 364.828Z" fill="#6559ED"/>
<path d="M68.137 307.635L64 299.011L102.614 257.611H201.908V269.685L166.052 317.986L124.679 328.335L68.137 307.635Z" fill="#3F3D56"/>
<path d="M219 281.905V254.916H206V263.427L201.908 257.611L168.81 299.011L163.293 305.91L156.398 340.41L168.81 378.359H232.247V300.735L219 281.905Z" fill="#CCCCCC"/>
<path d="M168.81 299.01H64V378.36H168.81V299.01Z" fill="#F2F2F2"/>
<path d="M154.329 324.022H132.264V348.172H154.329V324.022Z" fill="#3F3D56"/>
<path d="M123.3 323.16H103.993V378.36H123.3V323.16Z" fill="#CCCCCC"/>
<path d="M81.9281 331.785V323.16H73.6541V331.785H81.2381H81.9281Z" fill="#3F3D56"/>
<path d="M81.2381 338.684H73.6541V347.31H81.9281V338.684H81.2381Z" fill="#3F3D56"/>
<path d="M95.7188 323.16H87.4443V331.785H95.7188V323.16Z" fill="#3F3D56"/>
<path d="M95.7188 338.685H87.4443V347.31H95.7188V338.685Z" fill="#3F3D56"/>
<path d="M198.46 332.648V324.022H190.185V332.648H197.77H198.46Z" fill="#3F3D56"/>
<path d="M197.77 339.547H190.185V348.172H198.46V339.547H197.77Z" fill="#3F3D56"/>
<path d="M212.251 324.022H203.976V332.647H212.251V324.022Z" fill="#3F3D56"/>
<path d="M212.251 339.547H203.976V348.172H212.251V339.547Z" fill="#3F3D56"/>
<path d="M467.137 307.635L463 299.011L501.614 257.611H600.908V269.685L565.052 317.986L523.679 328.335L467.137 307.635Z" fill="#3F3D56"/>
<path d="M618 281.905V254.916H605V263.427L600.908 257.611L567.81 299.011L562.293 305.91L555.398 340.41L567.81 378.359H631.247V300.735L618 281.905Z" fill="#CCCCCC"/>
<path d="M567.81 299.01H463V378.36H567.81V299.01Z" fill="#F2F2F2"/>
<path d="M553.329 324.022H531.264V348.172H553.329V324.022Z" fill="#3F3D56"/>
<path d="M522.3 323.16H502.993V378.36H522.3V323.16Z" fill="#CCCCCC"/>
<path d="M480.928 331.785V323.16H472.654V331.785H480.238H480.928Z" fill="#3F3D56"/>
<path d="M480.238 338.684H472.654V347.31H480.928V338.684H480.238Z" fill="#3F3D56"/>
<path d="M494.719 323.16H486.444V331.785H494.719V323.16Z" fill="#3F3D56"/>
<path d="M494.719 338.685H486.444V347.31H494.719V338.685Z" fill="#3F3D56"/>
<path d="M597.46 332.648V324.022H589.185V332.648H596.77H597.46Z" fill="#3F3D56"/>
<path d="M596.77 339.547H589.185V348.172H597.46V339.547H596.77Z" fill="#3F3D56"/>
<path d="M611.251 324.022H602.976V332.647H611.251V324.022Z" fill="#3F3D56"/>
<path d="M611.251 339.547H602.976V348.172H611.251V339.547Z" fill="#3F3D56"/>
<path d="M280.515 162.737L273.62 155.836L312.234 112.711H410.148V150.661L346.711 204.137L280.515 162.737Z" fill="#3F3D56"/>
<path d="M428 136.902V113.573H415V119.287L410.148 112.711L378.429 155.836L366.018 166.186L346.773 342.057L375.796 378.359H443.246V157.561L428 136.902Z" fill="#CCCCCC"/>
<path d="M378.429 155.836H273.62V378.36H378.429V155.836Z" fill="#F2F2F2"/>
<path d="M333.609 324.022H314.302V378.36H333.609V324.022Z" fill="#CCCCCC"/>
<path d="M293.616 339.547V330.923H285.342V339.547H292.927H293.616Z" fill="#3F3D56"/>
<path d="M292.927 346.447H285.342V355.073H293.616V346.447H292.927Z" fill="#3F3D56"/>
<path d="M307.407 330.922H299.132V339.547H307.407V330.922Z" fill="#3F3D56"/>
<path d="M307.407 346.447H299.132V355.072H307.407V346.447Z" fill="#3F3D56"/>
<path d="M350.158 339.547V330.923H341.884V339.547H349.469H350.158Z" fill="#3F3D56"/>
<path d="M349.469 346.447H341.884V355.073H350.158V346.447H349.469Z" fill="#3F3D56"/>
<path d="M363.949 330.922H355.675V339.547H363.949V330.922Z" fill="#3F3D56"/>
<path d="M363.949 346.447H355.675V355.072H363.949V346.447Z" fill="#3F3D56"/>
<path d="M408.079 167.048V158.424H399.805V167.048H407.39H408.079Z" fill="#3F3D56"/>
<path d="M407.39 173.949H399.805V182.573H408.079V173.949H407.39Z" fill="#3F3D56"/>
<path d="M421.87 158.424H413.596V167.049H421.87V158.424Z" fill="#3F3D56"/>
<path d="M421.87 173.949H413.596V182.574H421.87V173.949Z" fill="#3F3D56"/>
<path d="M408.079 215.349V206.723H399.805V215.349H407.39H408.079Z" fill="#3F3D56"/>
<path d="M407.39 222.248H399.805V230.873H408.079V222.248H407.39Z" fill="#3F3D56"/>
<path d="M421.87 206.723H413.596V215.348H421.87V206.723Z" fill="#3F3D56"/>
<path d="M421.87 222.248H413.596V230.873H421.87V222.248Z" fill="#3F3D56"/>
<path d="M408.079 263.648V255.023H399.805V263.648H407.39H408.079Z" fill="#3F3D56"/>
<path d="M407.39 270.548H399.805V279.172H408.079V270.548H407.39Z" fill="#3F3D56"/>
<path d="M421.87 255.023H413.596V263.648H421.87V255.023Z" fill="#3F3D56"/>
<path d="M421.87 270.548H413.596V279.173H421.87V270.548Z" fill="#3F3D56"/>
<path d="M408.079 311.948V303.322H399.805V311.948H407.39H408.079Z" fill="#3F3D56"/>
<path d="M407.39 318.847H399.805V327.472H408.079V318.847H407.39Z" fill="#3F3D56"/>
<path d="M421.87 303.323H413.596V311.948H421.87V303.323Z" fill="#3F3D56"/>
<path d="M421.87 318.848H413.596V327.473H421.87V318.848Z" fill="#3F3D56"/>
<path d="M365.328 167.049H285.342V187.748H365.328V167.049Z" fill="#3F3D56"/>
<path d="M365.328 208.448H285.342V229.148H365.328V208.448Z" fill="#3F3D56"/>
<path d="M365.328 249.848H285.342V270.548H365.328V249.848Z" fill="#3F3D56"/>
<path d="M365.328 291.248H285.342V311.948H365.328V291.248Z" fill="#3F3D56"/>
<path d="M683.515 162.737L676.62 155.836L715.234 112.711H813.148V150.661L749.711 204.137L683.515 162.737Z" fill="#3F3D56"/>
<path d="M831 136.902V113.573H818V119.287L813.148 112.711L781.429 155.836L769.018 166.186L749.773 342.057L778.796 378.359H846.246V157.561L831 136.902Z" fill="#CCCCCC"/>
<path d="M781.429 155.836H676.62V378.36H781.429V155.836Z" fill="#F2F2F2"/>
<path d="M736.609 324.022H717.302V378.36H736.609V324.022Z" fill="#CCCCCC"/>
<path d="M696.616 339.547V330.923H688.342V339.547H695.927H696.616Z" fill="#3F3D56"/>
<path d="M695.927 346.447H688.342V355.073H696.616V346.447H695.927Z" fill="#3F3D56"/>
<path d="M710.407 330.922H702.132V339.547H710.407V330.922Z" fill="#3F3D56"/>
<path d="M710.407 346.447H702.132V355.072H710.407V346.447Z" fill="#3F3D56"/>
<path d="M753.158 339.547V330.923H744.884V339.547H752.469H753.158Z" fill="#3F3D56"/>
<path d="M752.469 346.447H744.884V355.073H753.158V346.447H752.469Z" fill="#3F3D56"/>
<path d="M766.949 330.922H758.675V339.547H766.949V330.922Z" fill="#3F3D56"/>
<path d="M766.949 346.447H758.675V355.072H766.949V346.447Z" fill="#3F3D56"/>
<path d="M811.079 167.048V158.424H802.805V167.048H810.39H811.079Z" fill="#3F3D56"/>
<path d="M810.39 173.949H802.805V182.573H811.079V173.949H810.39Z" fill="#3F3D56"/>
<path d="M824.87 158.424H816.596V167.049H824.87V158.424Z" fill="#3F3D56"/>
<path d="M824.87 173.949H816.596V182.574H824.87V173.949Z" fill="#3F3D56"/>
<path d="M811.079 215.349V206.723H802.805V215.349H810.39H811.079Z" fill="#3F3D56"/>
<path d="M810.39 222.248H802.805V230.873H811.079V222.248H810.39Z" fill="#3F3D56"/>
<path d="M824.87 206.723H816.596V215.348H824.87V206.723Z" fill="#3F3D56"/>
<path d="M824.87 222.248H816.596V230.873H824.87V222.248Z" fill="#3F3D56"/>
<path d="M811.079 263.648V255.023H802.805V263.648H810.39H811.079Z" fill="#3F3D56"/>
<path d="M810.39 270.548H802.805V279.172H811.079V270.548H810.39Z" fill="#3F3D56"/>
<path d="M824.87 255.023H816.596V263.648H824.87V255.023Z" fill="#3F3D56"/>
<path d="M824.87 270.548H816.596V279.173H824.87V270.548Z" fill="#3F3D56"/>
<path d="M811.079 311.948V303.322H802.805V311.948H810.39H811.079Z" fill="#3F3D56"/>
<path d="M810.39 318.847H802.805V327.472H811.079V318.847H810.39Z" fill="#3F3D56"/>
<path d="M824.87 303.323H816.596V311.948H824.87V303.323Z" fill="#3F3D56"/>
<path d="M824.87 318.848H816.596V327.473H824.87V318.848Z" fill="#3F3D56"/>
<path d="M768.328 167.049H688.342V187.748H768.328V167.049Z" fill="#3F3D56"/>
<path d="M768.328 208.448H688.342V229.148H768.328V208.448Z" fill="#3F3D56"/>
<path d="M768.328 249.848H688.342V270.548H768.328V249.848Z" fill="#3F3D56"/>
<path d="M768.328 291.248H688.342V311.948H768.328V291.248Z" fill="#3F3D56"/>
<path d="M904.515 162.737L897.62 155.836L936.234 112.711H1034.15V150.661L970.711 204.137L904.515 162.737Z" fill="#3F3D56"/>
<path d="M1052 136.902V113.573H1039V119.287L1034.15 112.711L1002.43 155.836L990.018 166.186L970.773 342.057L999.796 378.359H1067.25V157.561L1052 136.902Z" fill="#CCCCCC"/>
<path d="M1002.43 155.836H897.62V378.36H1002.43V155.836Z" fill="#F2F2F2"/>
<path d="M957.609 324.022H938.302V378.36H957.609V324.022Z" fill="#CCCCCC"/>
<path d="M917.616 339.547V330.923H909.342V339.547H916.927H917.616Z" fill="#3F3D56"/>
<path d="M916.927 346.447H909.342V355.073H917.616V346.447H916.927Z" fill="#3F3D56"/>
<path d="M931.407 330.922H923.132V339.547H931.407V330.922Z" fill="#3F3D56"/>
<path d="M931.407 346.447H923.132V355.072H931.407V346.447Z" fill="#3F3D56"/>
<path d="M974.158 339.547V330.923H965.884V339.547H973.469H974.158Z" fill="#3F3D56"/>
<path d="M973.469 346.447H965.884V355.073H974.158V346.447H973.469Z" fill="#3F3D56"/>
<path d="M987.949 330.922H979.675V339.547H987.949V330.922Z" fill="#3F3D56"/>
<path d="M987.949 346.447H979.675V355.072H987.949V346.447Z" fill="#3F3D56"/>
<path d="M1032.08 167.048V158.424H1023.81V167.048H1031.39H1032.08Z" fill="#3F3D56"/>
<path d="M1031.39 173.949H1023.81V182.573H1032.08V173.949H1031.39Z" fill="#3F3D56"/>
<path d="M1045.87 158.424H1037.6V167.049H1045.87V158.424Z" fill="#3F3D56"/>
<path d="M1045.87 173.949H1037.6V182.574H1045.87V173.949Z" fill="#3F3D56"/>
<path d="M1032.08 215.349V206.723H1023.81V215.349H1031.39H1032.08Z" fill="#3F3D56"/>
<path d="M1031.39 222.248H1023.81V230.873H1032.08V222.248H1031.39Z" fill="#3F3D56"/>
<path d="M1045.87 206.723H1037.6V215.348H1045.87V206.723Z" fill="#3F3D56"/>
<path d="M1045.87 222.248H1037.6V230.873H1045.87V222.248Z" fill="#3F3D56"/>
<path d="M1032.08 263.648V255.023H1023.81V263.648H1031.39H1032.08Z" fill="#3F3D56"/>
<path d="M1031.39 270.548H1023.81V279.172H1032.08V270.548H1031.39Z" fill="#3F3D56"/>
<path d="M1045.87 255.023H1037.6V263.648H1045.87V255.023Z" fill="#3F3D56"/>
<path d="M1045.87 270.548H1037.6V279.173H1045.87V270.548Z" fill="#3F3D56"/>
<path d="M1032.08 311.948V303.322H1023.81V311.948H1031.39H1032.08Z" fill="#3F3D56"/>
<path d="M1031.39 318.847H1023.81V327.472H1032.08V318.847H1031.39Z" fill="#3F3D56"/>
<path d="M1045.87 303.323H1037.6V311.948H1045.87V303.323Z" fill="#3F3D56"/>
<path d="M1045.87 318.848H1037.6V327.473H1045.87V318.848Z" fill="#3F3D56"/>
<path d="M989.328 167.049H909.342V187.748H989.328V167.049Z" fill="#3F3D56"/>
<path d="M989.328 208.448H909.342V229.148H989.328V208.448Z" fill="#3F3D56"/>
<path d="M989.328 249.848H909.342V270.548H989.328V249.848Z" fill="#3F3D56"/>
<path d="M989.328 291.248H909.342V311.948H989.328V291.248Z" fill="#3F3D56"/>
<path d="M1137 377.498H0V380H1137V377.498Z" fill="#3F3D56"/>
<path d="M254 278.683H252V377.498H254V278.683Z" fill="#3F3D56"/>
<path d="M272.458 291.276C272.585 325.829 253.15 353.953 253.15 353.953C253.15 353.953 233.508 326.054 233.381 291.501C233.254 256.948 252.689 228.824 252.689 228.824C252.689 228.824 272.33 256.723 272.458 291.276Z" fill="#6559ED"/>
<path d="M454 278.683H452V377.498H454V278.683Z" fill="#3F3D56"/>
<path d="M472.458 291.276C472.585 325.829 453.15 353.953 453.15 353.953C453.15 353.953 433.508 326.054 433.381 291.501C433.254 256.948 452.689 228.824 452.689 228.824C452.689 228.824 472.33 256.723 472.458 291.276Z" fill="#6559ED"/>
<path d="M853 278.683H851V377.498H853V278.683Z" fill="#3F3D56"/>
<path d="M871.458 291.276C871.585 325.829 852.15 353.953 852.15 353.953C852.15 353.953 832.508 326.054 832.381 291.501C832.254 256.948 851.689 228.824 851.689 228.824C851.689 228.824 871.33 256.723 871.458 291.276Z" fill="#6559ED"/>
</svg>
