<svg width="14" height="15" viewBox="0 0 14 15" fill="none" xmlns="http://www.w3.org/2000/svg">
<g clip-path="url(#clip0_48:6687)">
<path d="M6.99967 7.95536C8.6105 7.95536 9.91634 6.65172 9.91634 5.0436C9.91634 3.43548 8.6105 2.13184 6.99967 2.13184C5.38884 2.13184 4.08301 3.43548 4.08301 5.0436C4.08301 6.65172 5.38884 7.95536 6.99967 7.95536Z" stroke="white"/>
<path d="M9.91654 9.12012H10.1219C10.5483 9.12024 10.9601 9.27582 11.2797 9.55763C11.5994 9.83944 11.805 10.2281 11.8579 10.6505L12.086 12.4698C12.1065 12.6337 12.0918 12.8001 12.043 12.9579C11.9942 13.1157 11.9123 13.2613 11.8028 13.3851C11.6933 13.509 11.5587 13.6081 11.4079 13.676C11.257 13.7439 11.0935 13.779 10.928 13.7789H3.07171C2.90626 13.779 2.7427 13.7439 2.59188 13.676C2.44106 13.6081 2.30643 13.509 2.19692 13.3851C2.08742 13.2613 2.00554 13.1157 1.95673 12.9579C1.90791 12.8001 1.89327 12.6337 1.91379 12.4698L2.14129 10.6505C2.1942 10.2279 2.39995 9.83908 2.71986 9.55724C3.03977 9.27541 3.45179 9.11995 3.87846 9.12012H4.08321" stroke="white" stroke-linecap="round" stroke-linejoin="round"/>
<rect width="0.699915" height="2.79564" transform="matrix(0.963049 -0.269328 0.27017 0.962813 7 8.14355)" fill="white"/>
</g>
<defs>
<clipPath id="clip0_48:6687">
<rect width="14" height="13.9765" fill="white" transform="translate(0 0.966797)"/>
</clipPath>
</defs>
</svg>
