<svg width="436" height="147" viewBox="0 0 436 147" fill="none" xmlns="http://www.w3.org/2000/svg">
<path d="M133.428 54.9958L62.1665 146.706L5.28694 69.2672L57.5605 113.393L133.428 54.9958Z" fill="white"/>
<path d="M133.428 54.9958L62.1665 146.706L5.28694 69.2672L57.5605 113.393L133.428 54.9958Z" fill="white"/>
<path d="M107.931 36.381L61.6906 90.0876L36.2558 53.6537L61.6906 72.9015L107.931 36.381Z" fill="#2EA153"/>
<path d="M107.931 36.381L61.6906 90.0876L36.2558 53.6537L61.6906 72.9015L107.931 36.381Z" fill="#2EA153"/>
<path d="M78.5533 53.596L100.551 35.0352L53.8057 35.0353L38.5001 52.2212L55.8678 38.4726L78.5533 53.596Z" fill="#072317"/>
<path d="M78.5533 53.596L100.551 35.0352L53.8057 35.0353L38.5001 52.2212L55.8678 38.4726L78.5533 53.596Z" fill="#072317"/>
<path d="M136.511 36.7666V44.0908H132.995V71.4541H136.511V78.7783H120.017V71.4541H123.532V44.0908H120.017V36.7666H136.511ZM180.368 78.7783H170.817L153.503 52.3818C152.487 50.8389 151.784 49.6768 151.394 48.8955H151.276C151.433 50.3799 151.511 52.6455 151.511 55.6924V78.7783H142.575V36.7666H152.771L169.44 62.3428C170.202 63.4951 170.905 64.6377 171.55 65.7705H171.667C171.511 64.7939 171.433 62.8701 171.433 59.999V36.7666H180.368V78.7783ZM207.497 62.1084C207.497 67.7334 206.188 72.04 203.571 75.0283C200.974 78.0166 197.204 79.5107 192.263 79.5107C190.056 79.5107 188.015 79.1299 186.14 78.3682V69.4912C187.761 70.7217 189.577 71.3369 191.589 71.3369C195.905 71.3369 198.063 68.1338 198.063 61.7275V36.7666H207.497V62.1084ZM250.944 60.585C250.944 73.2021 245.065 79.5107 233.308 79.5107C221.901 79.5107 216.198 73.3486 216.198 61.0244V36.7666H225.69V61.1416C225.69 67.9385 228.347 71.3369 233.659 71.3369C238.874 71.3369 241.481 68.0557 241.481 61.4932V36.7666H250.944V60.585ZM295.358 78.7783H284.489L277.956 67.9678C277.468 67.1475 276.999 66.415 276.55 65.7705C276.101 65.126 275.642 64.5791 275.173 64.1299C274.724 63.6611 274.245 63.3096 273.737 63.0752C273.249 62.8213 272.712 62.6943 272.126 62.6943H269.577V78.7783H260.114V36.7666H275.114C285.31 36.7666 290.407 40.5752 290.407 48.1924C290.407 49.6572 290.183 51.0146 289.733 52.2646C289.284 53.4951 288.649 54.6084 287.829 55.6045C287.009 56.6006 286.013 57.46 284.841 58.1826C283.688 58.9053 282.399 59.4717 280.974 59.8818V59.999C281.599 60.1943 282.204 60.5166 282.79 60.9658C283.376 61.3955 283.942 61.9033 284.489 62.4893C285.036 63.0752 285.554 63.71 286.042 64.3936C286.55 65.0576 287.009 65.7119 287.419 66.3564L295.358 78.7783ZM269.577 43.8564V55.5459H273.679C275.71 55.5459 277.341 54.96 278.571 53.7881C279.821 52.5967 280.446 51.1221 280.446 49.3643C280.446 45.6924 278.249 43.8564 273.854 43.8564H269.577ZM336.257 78.7783H325.944L322.956 69.4326H308.015L305.056 78.7783H294.802L310.095 36.7666H321.315L336.257 78.7783ZM320.788 62.167L316.276 48.0459C315.944 46.9912 315.71 45.7314 315.573 44.2666H315.339C315.241 45.4971 314.997 46.7178 314.606 47.9287L310.036 62.167H320.788ZM341.501 78.7783V36.7666H356.384C371.306 36.7666 378.767 43.5928 378.767 57.2451C378.767 63.7881 376.726 69.0127 372.644 72.9189C368.581 76.8252 363.161 78.7783 356.384 78.7783H341.501ZM350.964 44.4717V71.1025H355.651C359.753 71.1025 362.966 69.8721 365.29 67.4111C367.634 64.9502 368.806 61.6006 368.806 57.3623C368.806 53.3584 367.644 50.2139 365.319 47.9287C363.015 45.624 359.772 44.4717 355.593 44.4717H350.964Z" fill="#072317"/>
<rect x="117" y="34" width="7" height="49" fill="white"/>
<rect x="132" y="34" width="7" height="49" fill="white"/>
</svg>
