<svg width="26" height="26" viewBox="0 0 26 26" fill="none" xmlns="http://www.w3.org/2000/svg">
<path d="M25.3379 3.90667L25.3998 17.2718C25.4071 18.6395 24.3037 19.7538 22.936 19.7603L15.9963 19.7913L13.2542 24.3846C13.1927 24.4828 13.0851 24.5425 12.9693 24.5425C12.8535 24.5425 12.7459 24.4828 12.6844 24.3846L9.89873 19.8162L3.13273 19.8471C1.76503 19.8542 0.650498 18.751 0.643969 17.3833L0.582064 4.01791C0.575052 2.6502 1.67821 1.53591 3.04592 1.52938L22.8554 1.43652C24.2224 1.43507 25.3326 2.53969 25.3379 3.90667V3.90667Z" fill="#666BE4"/>
<path d="M12.9508 1.48535L3.04608 1.53492C1.67934 1.54 0.574481 2.65042 0.576174 4.01716L0.638079 17.3825C0.644608 18.7502 1.75889 19.8534 3.1266 19.8464L9.89284 19.8154L12.6786 24.3838C12.7586 24.5067 12.9083 24.564 13.05 24.5263L12.9508 1.48535Z" fill="#6C86E0"/>
<path d="M11.719 14.2323C11.5548 14.2318 11.3972 14.1674 11.2794 14.0528L7.91794 10.6913C7.67709 10.4503 7.67709 10.0595 7.91794 9.81864C8.15903 9.57755 8.5498 9.57755 8.79089 9.81864L11.7251 12.7528L17.2099 7.50954C17.4561 7.27353 17.8469 7.28199 18.0829 7.52816C18.3187 7.77433 18.3104 8.1651 18.0643 8.40087L12.1461 14.0591C12.0327 14.1716 11.8789 14.2339 11.719 14.2323Z" fill="white"/>
<path d="M22.9048 0.866211H3.09524C1.38609 0.866936 0.00072545 2.2523 0 3.96145V17.3266C0.00072545 19.036 1.38609 20.4213 3.09524 20.4218H9.50867L12.0961 24.6995C12.0961 24.7058 12.1024 24.7058 12.1024 24.7119C12.2787 24.9895 12.5846 25.1575 12.9134 25.1575C13.2421 25.1575 13.548 24.9895 13.7242 24.7119C13.7242 24.7058 13.7305 24.7058 13.7305 24.6995L16.3182 20.4218H22.9048C24.6139 20.4213 25.9993 19.036 26 17.3266V3.96145C25.9993 2.2523 24.6139 0.866936 22.9048 0.866211ZM24.7619 17.3266C24.759 18.3512 23.9291 19.1808 22.9048 19.1837H15.9651C15.7485 19.1845 15.547 19.2967 15.4329 19.4809L12.9071 23.6595L10.3814 19.4809C10.2682 19.2954 10.0663 19.1828 9.84914 19.1837H3.09524C2.07091 19.1808 1.241 18.3512 1.2381 17.3266V3.96145C1.241 2.93712 2.07091 2.10721 3.09524 2.10431H22.9048C23.9291 2.10721 24.759 2.93712 24.7619 3.96145V17.3266Z" fill="#63316D"/>
</svg>
