<svg width="18" height="10" viewBox="0 0 18 10" fill="none" xmlns="http://www.w3.org/2000/svg">
<path fill-rule="evenodd" clip-rule="evenodd" d="M9 8.88889C5.7636 8.88889 3.036 7.35778 1.3152 5C3.036 2.64222 5.7636 1.11111 9 1.11111C12.2364 1.11111 14.964 2.64222 16.6848 5C14.964 7.35778 12.2364 8.88889 9 8.88889ZM9 0C5.1696 0 1.9872 1.89556 0.0912014 4.70556C0.0316018 4.79385 0 4.89588 0 5C0 5.10412 0.0316018 5.20615 0.0912014 5.29444C1.9872 8.10444 5.1696 10 9 10C12.8304 10 16.0128 8.10444 17.9088 5.29444C17.9684 5.20615 18 5.10412 18 5C18 4.89588 17.9684 4.79385 17.9088 4.70556C16.0128 1.89556 12.8304 0 9 0ZM9 7.22222C9.63652 7.22222 10.247 6.9881 10.6971 6.57135C11.1471 6.1546 11.4 5.58937 11.4 5C11.4 4.41063 11.1471 3.8454 10.6971 3.42865C10.247 3.0119 9.63652 2.77778 9 2.77778C8.36348 2.77778 7.75303 3.0119 7.30294 3.42865C6.85286 3.8454 6.6 4.41063 6.6 5C6.6 5.58937 6.85286 6.1546 7.30294 6.57135C7.75303 6.9881 8.36348 7.22222 9 7.22222Z" fill="white"/>
</svg>
