<svg width="37" height="37" viewBox="0 0 37 37" fill="none" xmlns="http://www.w3.org/2000/svg">
<path d="M18.625 0C28.7723 0 37 8.22773 37 18.375C37 28.5223 28.7723 36.75 18.625 36.75C8.47773 36.75 0.25 28.5223 0.25 18.375C0.25 8.22773 8.47773 0 18.625 0ZM21.9062 24.6094C21.9062 24.7898 22.0539 24.9375 22.2344 24.9375H24.2031C24.3836 24.9375 24.5312 24.7898 24.5312 24.6094V12.1406C24.5312 11.9602 24.3836 11.8125 24.2031 11.8125H22.2344C22.0539 11.8125 21.9062 11.9602 21.9062 12.1406V24.6094ZM12.7188 24.6094C12.7188 24.7898 12.8664 24.9375 13.0469 24.9375H15.0156C15.1961 24.9375 15.3438 24.7898 15.3438 24.6094V12.1406C15.3438 11.9602 15.1961 11.8125 15.0156 11.8125H13.0469C12.8664 11.8125 12.7188 11.9602 12.7188 12.1406V24.6094Z" fill="white"/>
</svg>
