<svg width="37" height="37" viewBox="0 0 37 37" fill="none" xmlns="http://www.w3.org/2000/svg">
<path d="M18.375 0C8.22773 0 0 8.22773 0 18.375C0 28.5223 8.22773 36.75 18.375 36.75C28.5223 36.75 36.75 28.5223 36.75 18.375C36.75 8.22773 28.5223 0 18.375 0ZM24.2854 18.658L15.3275 25.1754C15.2784 25.2107 15.2205 25.2317 15.1602 25.2363C15.0999 25.2408 15.0395 25.2286 14.9857 25.2011C14.9319 25.1735 14.8867 25.1317 14.8551 25.0801C14.8235 25.0285 14.8067 24.9693 14.8066 24.9088V11.8822C14.8064 11.8216 14.823 11.7622 14.8546 11.7104C14.8861 11.6587 14.9313 11.6167 14.9853 11.5891C15.0392 11.5615 15.0997 11.5493 15.1602 11.554C15.2206 11.5587 15.2785 11.58 15.3275 11.6156L24.2854 18.1289C24.3277 18.1588 24.3622 18.1985 24.386 18.2445C24.4098 18.2905 24.4223 18.3416 24.4223 18.3935C24.4223 18.4453 24.4098 18.4964 24.386 18.5424C24.3622 18.5884 24.3277 18.6281 24.2854 18.658V18.658Z" fill="white"/>
</svg>
