<svg width="20" height="26" viewBox="0 0 20 26" fill="none" xmlns="http://www.w3.org/2000/svg">
<path d="M5.17188 4.65517C5.17188 7.22623 7.25599 9.31034 9.82705 9.31034V0C7.25599 0 5.17188 2.08412 5.17188 4.65517Z" fill="#2B3990"/>
<path d="M9.82715 0V9.31034C12.3982 9.31034 14.4823 7.22623 14.4823 4.65517C14.4823 2.08412 12.3982 0 9.82715 0Z" fill="#434F9C"/>
<path d="M6.2069 11.3799C2.77891 11.3799 0 14.1588 0 17.5868V22.1902C2.72284 24.5645 6.21498 25.8695 9.82758 25.8626V11.3799H6.2069Z" fill="#2B3990"/>
<path d="M13.4478 11.3799H9.82715V25.8626C13.4398 25.8695 16.9319 24.5645 19.6547 22.1902V17.5868C19.6547 14.1588 16.8758 11.3799 13.4478 11.3799Z" fill="#434F9C"/>
</svg>
