<svg width="26" height="26" viewBox="0 0 26 26" fill="none" xmlns="http://www.w3.org/2000/svg">
<g clip-path="url(#clip0_371:119)">
<path d="M23.1763 0.380859H2.8229C2.37329 0.380859 2.00879 0.745362 2.00879 1.19497V24.567C2.00879 25.4623 3.05766 25.9467 3.73924 25.3661L12.9996 17.4777L22.2599 25.3661C22.9415 25.9467 23.9904 25.4623 23.9904 24.567V1.19497C23.9904 0.745362 23.6259 0.380859 23.1763 0.380859V0.380859Z" fill="#7E9AFF"/>
<path d="M2.8229 0.380859C2.37329 0.380859 2.00879 0.745362 2.00879 1.19497V24.567C2.00879 25.4623 3.05766 25.9467 3.73924 25.3661L12.9996 17.4777V0.380859H2.8229Z" fill="#5F82FF"/>
<path d="M3.63672 0.380859V22.4327C3.63672 22.7799 4.04347 22.9677 4.30773 22.7425L11.9434 16.2382C12.2475 15.979 12.6234 15.8494 12.9992 15.8494C13.3751 15.8494 13.7509 15.979 14.0551 16.2382L21.6907 22.7425C21.955 22.9677 22.3617 22.7799 22.3617 22.4327V0.380859H3.63672Z" fill="#4482FB"/>
<path d="M5.33106 19.6458C5.6264 19.7827 5.95201 19.7378 6.20048 19.5266L11.1521 15.3086C11.6669 14.8699 12.3232 14.6283 12.9998 14.6283C13.6768 14.6283 14.3327 14.87 14.8475 15.309L19.7991 19.5266C20.0476 19.7381 20.3731 19.7828 20.6685 19.6458C20.9643 19.5093 21.1412 19.233 21.1412 18.9068V0.380859H4.8584V18.9066C4.8584 19.2328 5.03532 19.509 5.33106 19.6458V19.6458Z" fill="#5F82FF"/>
<path d="M23.1763 0H2.8229C2.16402 0 1.62793 0.53609 1.62793 1.19497V24.567C1.62793 25.1315 1.94627 25.6291 2.45875 25.8658C2.97118 26.1025 3.55652 26.0221 3.98623 25.6561L12.9996 17.978L22.013 25.6561C22.2792 25.8828 22.6052 26 22.9366 26C23.14 26 23.3455 25.9559 23.5405 25.8658C24.0529 25.6291 24.3713 25.1315 24.3713 24.567V1.19497C24.3713 0.53609 23.8352 0 23.1763 0V0ZM23.6096 24.567C23.6096 24.8349 23.4643 25.062 23.2211 25.1743C22.978 25.2865 22.711 25.25 22.5069 25.0762L13.2466 17.1877C13.1754 17.1271 13.0875 17.0968 12.9996 17.0968C12.9117 17.0968 12.8238 17.1271 12.7527 17.1877L3.49229 25.0762C3.2883 25.25 3.0213 25.2866 2.77811 25.1743C2.53487 25.0619 2.38964 24.8349 2.38964 24.567V1.19497C2.38964 0.956045 2.58403 0.761708 2.8229 0.761708H3.25621V4.04447C3.25621 4.25485 3.42673 4.42532 3.63706 4.42532C3.8474 4.42532 4.01792 4.25485 4.01792 4.04447V0.761708H21.9813V16.6635C21.9813 16.8739 22.1518 17.0444 22.3621 17.0444C22.5725 17.0444 22.743 16.8739 22.743 16.6635V0.761708H23.1763C23.4152 0.761708 23.6096 0.956096 23.6096 1.19497V24.567Z" fill="black"/>
<path d="M22.3618 17.9111C22.1515 17.9111 21.9809 18.0816 21.9809 18.2919V22.4895L14.3021 15.9484C13.9391 15.639 13.4764 15.4686 12.9992 15.4686C12.522 15.4686 12.0594 15.639 11.6965 15.9483L4.01757 22.4895V5.67285C4.01757 5.46246 3.84705 5.29199 3.63671 5.29199C3.42638 5.29199 3.25586 5.46246 3.25586 5.67285V23.3143C3.25586 23.4628 3.34219 23.5978 3.47701 23.66C3.61193 23.7223 3.77062 23.7005 3.88366 23.6042L12.1904 16.5282C12.4158 16.3361 12.703 16.2304 12.9992 16.2304C13.2954 16.2304 13.5827 16.3362 13.8081 16.5283L22.1148 23.6042C22.1851 23.6641 22.273 23.6952 22.3619 23.6952C22.416 23.6952 22.4705 23.6836 22.5215 23.6601C22.6563 23.5978 22.7426 23.4629 22.7426 23.3143V18.292C22.7426 18.0816 22.5721 17.9111 22.3618 17.9111V17.9111Z" fill="black"/>
</g>
<defs>
<clipPath id="clip0_371:119">
<rect width="26" height="26" fill="white"/>
</clipPath>
</defs>
</svg>
