<svg width="30" height="30" viewBox="0 0 30 30" fill="none" xmlns="http://www.w3.org/2000/svg">
<g clip-path="url(#clip0_665_2)">
<path d="M15.0001 0H14.9639C6.68012 0 -0.0361328 6.71625 -0.0361328 15C-0.0361328 23.2837 6.68012 30 14.9639 30H15.0001C23.2839 30 30.0001 23.2837 30.0001 15C30.0001 6.71625 23.2839 0 15.0001 0ZM15.0001 28.8H14.9639C7.34262 28.8 1.16387 22.6213 1.16387 15C1.16387 7.37875 7.34262 1.2 14.9639 1.2H15.0001C22.6214 1.2 28.8001 7.37875 28.8001 15C28.8001 22.6213 22.6214 28.8 15.0001 28.8Z" fill="black"/>
<path d="M19.7805 8.92732C18.543 9.23982 17.1105 9.44232 15.638 9.48982L15.6055 9.49107V14.4023H20.4805C20.4522 12.4987 20.2051 10.6046 19.7442 8.75732L19.7805 8.92732Z" fill="black"/>
<path d="M15.5986 2.4873V8.39356C16.9512 8.35355 18.2958 8.17045 19.6099 7.84731L19.4786 7.87481C18.5336 4.88731 17.0624 2.9273 15.5986 2.4873V2.4873Z" fill="black"/>
<path d="M10.4854 7.86787C11.6429 8.15787 12.9854 8.34787 14.3629 8.39287L14.3941 8.39412V2.47412C12.9304 2.89912 11.4366 4.86162 10.4854 7.86787V7.86787Z" fill="black"/>
<path d="M23.9856 6.15742C22.3532 4.48906 20.2879 3.30902 18.0218 2.74992L17.9355 2.73242C19.1411 4.10827 20.0228 5.737 20.5155 7.49867L20.5355 7.58492C21.7659 7.21412 22.9554 6.71907 24.0856 6.10742L23.9856 6.15742Z" fill="black"/>
<path d="M21.5843 14.4027H27.5918C27.4698 11.6829 26.4634 9.07718 24.7255 6.98145L24.7418 7.0027C23.6293 7.6302 22.338 8.1877 20.9855 8.60895L20.8418 8.6477C21.283 10.3664 21.5518 12.3452 21.583 14.3827V14.4039L21.5843 14.4027Z" fill="black"/>
<path d="M9.48242 14.4029H14.3999V9.4916C12.9321 9.44989 11.4731 9.24871 10.0487 8.8916L10.1887 8.9216C9.74147 10.7087 9.50445 12.542 9.48242 14.3841V14.4029Z" fill="black"/>
<path d="M20.4811 15.5991H15.5986V20.4991C17.1036 20.5429 18.5399 20.7454 19.9199 21.0916L19.7824 21.0629C20.1974 19.4316 20.4499 17.5529 20.4811 15.6204V15.6004V15.5991Z" fill="black"/>
<path d="M10.1899 21.0725C11.4399 20.7538 12.8849 20.5475 14.3712 20.5038L14.4012 20.5025V15.6025H9.48242C9.51117 17.5575 9.76742 19.4388 10.2249 21.24L10.1887 21.0725H10.1899Z" fill="black"/>
<path d="M14.4025 27.5204V21.5991C12.99 21.6454 11.6463 21.8341 10.3525 22.1529L10.4863 22.1254C11.4388 25.1329 12.9313 27.0991 14.4025 27.5204V27.5204Z" fill="black"/>
<path d="M17.9351 27.2675C20.2349 26.7123 22.333 25.5236 23.9913 23.8363L23.9938 23.8338C22.9381 23.2622 21.8285 22.7962 20.6813 22.4425L20.5463 22.4062C20.0528 24.209 19.1561 25.8759 17.9238 27.2813L17.9363 27.2675H17.9351Z" fill="black"/>
<path d="M12.0212 2.74736C9.7408 3.30563 7.66126 4.48868 6.01617 6.16361L6.01367 6.16611C6.98242 6.69611 8.11117 7.17611 9.29117 7.54361L9.42492 7.57986C9.91834 5.78919 10.8097 4.13302 12.0324 2.73486L12.0199 2.74861L12.0212 2.74736Z" fill="black"/>
<path d="M20.8405 21.3539C22.3393 21.8102 23.6343 22.3689 24.8505 23.0502L24.7493 22.9977C26.4735 20.9148 27.473 18.3275 27.5968 15.6264L27.598 15.5977H21.5905C21.5541 17.6004 21.2895 19.5924 20.8018 21.5352L20.8405 21.3539Z" fill="black"/>
<path d="M15.5986 21.5989V27.5114C17.0624 27.0714 18.5336 25.1114 19.4786 22.1177C18.2167 21.8097 16.9258 21.6358 15.6274 21.5989L15.5986 21.5977V21.5989Z" fill="black"/>
<path d="M9.12973 8.63846C7.74768 8.22283 6.41551 7.65651 5.15723 6.94971L5.25598 7.00096C3.53178 9.08377 2.53227 11.6712 2.40848 14.3722L2.40723 14.401H8.38473C8.41348 12.3422 8.68348 10.3597 9.16723 8.46221L9.12973 8.63721V8.63846Z" fill="black"/>
<path d="M8.37887 15.5991H2.40137C2.53512 18.4316 3.58887 20.9941 5.26762 23.0204L5.25137 22.9991C6.35512 22.3754 7.63887 21.8204 8.98137 21.4004L9.12387 21.3616C8.65826 19.4833 8.40873 17.5579 8.38012 15.6229V15.5991H8.37887Z" fill="black"/>
<path d="M6.00707 23.8338C7.63103 25.4928 9.68268 26.6696 11.9346 27.2338L12.0208 27.2526C10.8189 25.8796 9.93796 24.2561 9.44207 22.5001L9.42082 22.4126C8.20272 22.7865 7.0245 23.2797 5.90332 23.8851L6.00707 23.8338Z" fill="black"/>
<rect x="8" y="13" width="5" height="9" fill="white"/>
<rect x="21.3291" y="11.876" width="3.94824" height="13.2973" transform="rotate(89.8332 21.3291 11.876)" fill="white"/>
<rect x="17" y="12" width="5" height="10" fill="white"/>
<path d="M15 8L22 12H8L15 8Z" fill="white"/>
</g>
<defs>
<clipPath id="clip0_665_2">
<rect width="30" height="30" fill="white"/>
</clipPath>
</defs>
</svg>
