<svg width="983" height="492" viewBox="0 0 983 492" fill="none" xmlns="http://www.w3.org/2000/svg">
<path d="M194.129 353.681C195.823 361.513 201.625 366.364 201.625 366.364C201.625 366.364 204.681 358.516 202.987 350.683C201.293 342.851 195.491 338 195.491 338C195.491 338 192.435 345.848 194.129 353.681Z" fill="#6D69A3"/>
<path d="M196.617 351.998C201.265 357.657 201.833 366.358 201.833 366.358C201.833 366.358 194.864 365.882 190.216 360.222C185.568 354.562 185 345.862 185 345.862C185 345.862 191.969 346.338 196.617 351.998Z" fill="#34324F"/>
<path d="M208.369 353.681C206.675 361.513 200.873 366.364 200.873 366.364C200.873 366.364 197.817 358.516 199.511 350.683C201.205 342.851 207.008 338 207.008 338C207.008 338 210.063 345.848 208.369 353.681Z" fill="#6D69A3"/>
<path d="M205.879 351.998C201.231 357.657 200.663 366.358 200.663 366.358C200.663 366.358 207.632 365.882 212.28 360.222C216.928 354.562 217.496 345.862 217.496 345.862C217.496 345.862 210.528 346.338 205.879 351.998Z" fill="#34324F"/>
<path d="M118.129 363.681C119.823 371.513 125.625 376.364 125.625 376.364C125.625 376.364 128.681 368.516 126.987 360.683C125.293 352.851 119.491 348 119.491 348C119.491 348 116.435 355.848 118.129 363.681Z" fill="#6D69A3"/>
<path d="M120.617 361.998C125.265 367.657 125.833 376.358 125.833 376.358C125.833 376.358 118.864 375.882 114.216 370.222C109.568 364.562 109 355.862 109 355.862C109 355.862 115.969 356.338 120.617 361.998Z" fill="#34324F"/>
<path d="M132.369 363.681C130.675 371.513 124.873 376.364 124.873 376.364C124.873 376.364 121.817 368.516 123.511 360.683C125.205 352.851 131.008 348 131.008 348C131.008 348 134.063 355.848 132.369 363.681Z" fill="#6D69A3"/>
<path d="M129.879 361.998C125.231 367.657 124.663 376.358 124.663 376.358C124.663 376.358 131.632 375.882 136.28 370.222C140.928 364.562 141.496 355.862 141.496 355.862C141.496 355.862 134.528 356.338 129.879 361.998Z" fill="#34324F"/>
<path d="M145.129 356.681C146.823 364.513 152.625 369.364 152.625 369.364C152.625 369.364 155.681 361.516 153.987 353.683C152.293 345.851 146.491 341 146.491 341C146.491 341 143.435 348.848 145.129 356.681Z" fill="#6D69A3"/>
<path d="M147.617 354.998C152.265 360.657 152.833 369.358 152.833 369.358C152.833 369.358 145.864 368.882 141.216 363.222C136.568 357.562 136 348.862 136 348.862C136 348.862 142.969 349.338 147.617 354.998Z" fill="#34324F"/>
<path d="M159.369 356.681C157.675 364.513 151.873 369.364 151.873 369.364C151.873 369.364 148.817 361.516 150.511 353.683C152.205 345.851 158.008 341 158.008 341C158.008 341 161.063 348.848 159.369 356.681Z" fill="#6D69A3"/>
<path d="M156.879 354.998C152.231 360.657 151.663 369.358 151.663 369.358C151.663 369.358 158.632 368.882 163.28 363.222C167.928 357.562 168.496 348.862 168.496 348.862C168.496 348.862 161.528 349.338 156.879 354.998Z" fill="#34324F"/>
<path d="M175.129 358.681C176.823 366.513 182.625 371.364 182.625 371.364C182.625 371.364 185.681 363.516 183.987 355.683C182.293 347.851 176.491 343 176.491 343C176.491 343 173.435 350.848 175.129 358.681Z" fill="#6D69A3"/>
<path d="M177.617 356.998C182.265 362.657 182.833 371.358 182.833 371.358C182.833 371.358 175.864 370.882 171.216 365.222C166.568 359.562 166 350.862 166 350.862C166 350.862 172.969 351.338 177.617 356.998Z" fill="#34324F"/>
<path d="M189.369 358.681C187.675 366.513 181.873 371.364 181.873 371.364C181.873 371.364 178.817 363.516 180.511 355.683C182.205 347.851 188.008 343 188.008 343C188.008 343 191.063 350.848 189.369 358.681Z" fill="#6D69A3"/>
<path d="M186.879 356.998C182.231 362.657 181.663 371.358 181.663 371.358C181.663 371.358 188.632 370.882 193.28 365.222C197.928 359.562 198.496 350.862 198.496 350.862C198.496 350.862 191.528 351.338 186.879 356.998Z" fill="#34324F"/>
<path d="M220.129 359.681C221.823 367.513 227.625 372.364 227.625 372.364C227.625 372.364 230.681 364.516 228.987 356.683C227.293 348.851 221.491 344 221.491 344C221.491 344 218.435 351.848 220.129 359.681Z" fill="#6D69A3"/>
<path d="M222.617 357.998C227.265 363.657 227.833 372.358 227.833 372.358C227.833 372.358 220.864 371.882 216.216 366.222C211.568 360.562 211 351.862 211 351.862C211 351.862 217.969 352.338 222.617 357.998Z" fill="#34324F"/>
<path d="M234.369 359.681C232.675 367.513 226.873 372.364 226.873 372.364C226.873 372.364 223.817 364.516 225.511 356.683C227.205 348.851 233.008 344 233.008 344C233.008 344 236.063 351.848 234.369 359.681Z" fill="#6D69A3"/>
<path d="M231.879 357.998C227.231 363.657 226.663 372.358 226.663 372.358C226.663 372.358 233.632 371.882 238.28 366.222C242.928 360.562 243.496 351.862 243.496 351.862C243.496 351.862 236.528 352.338 231.879 357.998Z" fill="#34324F"/>
<ellipse cx="167.94" cy="318.003" rx="7.47677" ry="8.41137" fill="#4D331A"/>
<ellipse cx="175.793" cy="330.543" rx="5.2314" ry="5.88533" transform="rotate(-44.1975 175.793 330.543)" fill="#4D331A"/>
<path d="M175.416 318.938C174.904 322.722 175.936 324.375 179.155 326.414L181.024 331.087C181.024 331.087 179.957 333.81 180.557 334.358C181.156 334.906 181.237 336.711 180.089 337.629C178.446 338.664 177.554 338.92 176.351 336.695L171.678 332.956C170.706 327.734 169.92 325.939 167.939 325.48L175.416 318.938Z" fill="#4D331A"/>
<path d="M150.176 374.002H170.721L181.927 372.138L186.596 444.838L185.662 450.431L181.927 451.363H147.375L142.705 450.431L141.771 442.042L150.176 374.002Z" fill="#39374E"/>
<path d="M158.594 329.996C161.398 329.064 162.333 329.064 163.267 329.064C164.202 329.064 164.202 326.271 165.136 326.271C166.071 326.271 169.809 326.271 170.744 326.271C171.679 326.271 171.679 329.064 171.679 329.064C174.087 329.064 175.651 330.774 177.735 328.355C177.735 328.355 181.384 327.835 185.554 323.664C189.723 319.494 193.893 302.294 193.893 302.294L197.021 303.337C194.139 325.828 189.663 330.438 178.778 338.258C181.498 349.421 181.798 360.451 181.959 371.902L171.679 373.764H150.183V369.108L143.641 368.177C143.641 368.177 141.771 368.177 141.771 365.383C141.771 362.589 148.314 347.689 148.314 347.689C148.314 347.689 155.79 330.927 158.594 329.996Z" fill="#4F728C"/>
<ellipse cx="167.312" cy="318.973" rx="4.69096" ry="6.25461" fill="#FFD9A9"/>
<path d="M162.46 312.719H173.045V317.931H161.578L162.46 312.719Z" fill="#4D331A"/>
<ellipse cx="195.458" cy="298.646" rx="2.60609" ry="3.64852" fill="#FFD9A9"/>
<ellipse cx="157.928" cy="365.362" rx="2.60609" ry="3.64852" fill="#FFD9A9"/>
<path d="M151.154 451.363H158.451C157.767 465.435 157.02 473.224 153.891 486.806H152.066L151.154 451.363Z" fill="#FFD9A9"/>
<path d="M169.918 451.363H177.215C176.531 465.435 175.784 473.224 172.654 486.806H170.83L169.918 451.363Z" fill="#FFD9A9"/>
<path d="M10.0898 373.213H86.0401V411.189V441.169L78.0453 485.14H72.0493L66.0532 448.164L46.0663 413.187L20.0833 485.14H14.0872L4.09375 421.182L10.0898 373.213Z" fill="#3F3D56"/>
<path d="M46.0684 373.213V413.187L62.0579 442.168L72.0513 485.14H78.0474L86.0422 439.17V411.189V373.213H46.0684Z" fill="#39374E"/>
<path d="M6.09367 324.244C19.7071 309.953 22.319 309.401 43.0709 304.257L45.0696 299.261H60.0597V304.257C60.0597 304.257 74.0506 304.257 88.0414 329.241C102.032 354.225 96.0362 344.231 96.0362 344.231L92.0388 355.224H85.0434V373.212H11.0918V362.22C4.7294 364.514 1.09705 347.229 0.0977028 339.235C-0.901643 331.24 6.09367 324.244 6.09367 324.244Z" fill="#4F728C"/>
<path d="M4.48854 487.583C9.48527 486.584 19.4787 487.583 19.4787 487.583V491.581H1.49051C1.49051 491.581 -0.508186 488.583 4.48854 487.583Z" fill="#0A0C3D"/>
<path d="M88.0408 487.583C83.044 486.584 73.0506 487.583 73.0506 487.583V491.581H91.0388C91.0388 491.581 93.0375 488.583 88.0408 487.583Z" fill="#0A0C3D"/>
<path d="M178.091 488.057C175.541 487.588 170.44 488.057 170.44 488.057V489.933H179.621C179.621 489.933 180.641 488.526 178.091 488.057Z" fill="#0A0C3D"/>
<path d="M146.112 488.057C148.663 487.588 153.763 488.057 153.763 488.057V489.933H144.582C144.582 489.933 143.562 488.526 146.112 488.057Z" fill="#0A0C3D"/>
<circle cx="25.0814" cy="357.224" r="3.99738" fill="#FFDAB0"/>
<circle cx="89.0404" cy="351.228" r="3.99738" fill="#FFDAB0"/>
<path d="M61.0585 287.27C61.0585 292.789 56.4798 297.263 52.0644 297.263C47.649 297.263 43.0703 292.789 43.0703 287.27C43.0703 281.751 47.649 277.276 52.0644 277.276C56.4798 277.276 61.0585 281.751 61.0585 287.27Z" fill="#FFDAB0"/>
<path d="M45.069 297.263L43.0703 287.27H61.0585L59.0598 297.263H45.069Z" fill="#FFDAB0"/>
<path d="M45.0684 297.263H58.624L58.3798 299.261H45.3289L45.0684 297.263Z" fill="#EEDCC0"/>
<rect width="8.47893" height="16.9579" transform="matrix(-0.866025 -0.5 -0.5 0.866025 90.4785 327.814)" fill="#DC0000"/>
<path d="M73.0492 316.251L66.7302 321.646L87.1608 333.521L90.5062 327.765L73.0492 316.251Z" fill="#DC0000"/>
<rect width="8.47893" height="16.9579" transform="matrix(-0.866025 -0.5 -0.5 0.866025 76.707 319.275)" fill="#DC0000"/>
<path d="M84.1554 315.025L69.3864 315.025L90.4787 327.814L84.1554 315.025Z" fill="#DC0000"/>
<circle r="26.8284" transform="matrix(-0.866025 -0.5 -0.5 0.866025 77.0885 327.263)" stroke="black" stroke-width="4"/>
<rect width="2.26105" height="10.1747" transform="matrix(-0.550223 -0.835018 -0.835018 0.550223 54.1484 343.254)" fill="black"/>
<rect width="8.70329" height="28.0809" transform="matrix(-0.550223 -0.835018 -0.835018 0.550223 47.4727 351.18)" fill="black"/>
<path d="M47.4312 347.285L45.3114 348.509L47.4487 351.212L47.4312 347.285Z" fill="black"/>
<path d="M47.4312 347.285L45.3114 348.509L47.4487 351.212L47.4312 347.285Z" fill="black"/>
<path d="M46.9609 346.094L42.6586 343.937L44.7479 347.101L46.9609 346.094Z" fill="black"/>
<path d="M46.9609 346.094L42.6586 343.937L44.7479 347.101L46.9609 346.094Z" fill="black"/>
<rect width="4.58692" height="1.9069" transform="matrix(-0.548269 -0.836302 -0.836302 0.548269 23.0508 364.565)" fill="black"/>
<path d="M23.2736 364.32L21.4189 365.533L24.0817 366.501L23.2736 364.32Z" fill="black"/>
<path d="M21.3532 361.569L19.557 359.645L18.9161 361.886L21.3532 361.569Z" fill="black"/>
<rect width="5.14299" height="10.286" transform="matrix(-0.999952 0.00976602 0.00976602 0.999952 193.955 261.101)" fill="#DC0000"/>
<path d="M181.286 260.436L179.65 265.203L193.983 265.104L193.955 261.066L181.286 260.436Z" fill="#DC0000"/>
<rect width="5.14299" height="10.286" transform="matrix(-0.999952 0.00976602 0.00976602 0.999952 184.131 260.888)" fill="#DC0000"/>
<path d="M186.71 256.371L178.996 260.925L193.957 261.1L186.71 256.371Z" fill="#DC0000"/>
<circle r="15.9862" transform="matrix(-0.707107 0.707107 0.707107 0.707107 186.461 264.478)" stroke="black" stroke-width="3"/>
<rect width="1.37146" height="6.17159" transform="matrix(-0.948973 0.315356 0.315356 0.948973 192.229 280.428)" fill="black"/>
<rect width="5.27908" height="17.0328" transform="matrix(-0.948973 0.315356 0.315356 0.948973 195.824 285.583)" fill="black"/>
<path d="M193.534 284.997L193.919 286.431L195.837 285.603L193.534 284.997Z" fill="black"/>
<path d="M193.534 284.997L193.919 286.431L195.837 285.603L193.534 284.997Z" fill="black"/>
<path d="M192.764 285.085L190.824 287.267L193.006 286.54L192.764 285.085Z" fill="black"/>
<path d="M192.764 285.085L190.824 287.267L193.006 286.54L192.764 285.085Z" fill="black"/>
<rect width="2.78225" height="1.15665" transform="matrix(-0.949708 0.313137 0.313137 0.949708 199.832 301.993)" fill="black"/>
<path d="M199.724 301.824L200.144 303.101L201.129 301.693L199.724 301.824Z" fill="black"/>
<path d="M197.809 302.518L196.399 303.269L197.612 303.996L197.809 302.518Z" fill="black"/>
<circle cx="47.0677" cy="285.271" r="3.74738" stroke="black" stroke-width="0.5"/>
<circle cx="57.0599" cy="285.271" r="3.74738" stroke="black" stroke-width="0.5"/>
<path d="M51.0645 285.271H53.0631" stroke="#010101" stroke-width="0.3"/>
<path d="M272.129 352.681C273.823 360.513 279.625 365.364 279.625 365.364C279.625 365.364 282.681 357.516 280.987 349.683C279.293 341.851 273.491 337 273.491 337C273.491 337 270.435 344.848 272.129 352.681Z" fill="#6D69A3"/>
<path d="M274.617 350.998C279.265 356.657 279.833 365.358 279.833 365.358C279.833 365.358 272.864 364.882 268.216 359.222C263.568 353.562 263 344.862 263 344.862C263 344.862 269.969 345.338 274.617 350.998Z" fill="#34324F"/>
<path d="M286.369 352.681C284.675 360.513 278.873 365.364 278.873 365.364C278.873 365.364 275.817 357.516 277.511 349.683C279.205 341.851 285.008 337 285.008 337C285.008 337 288.063 344.848 286.369 352.681Z" fill="#6D69A3"/>
<path d="M283.879 350.998C279.231 356.657 278.663 365.358 278.663 365.358C278.663 365.358 285.632 364.882 290.28 359.222C294.928 353.562 295.496 344.862 295.496 344.862C295.496 344.862 288.528 345.338 283.879 350.998Z" fill="#34324F"/>
<path d="M245.129 352.681C246.823 360.513 252.625 365.364 252.625 365.364C252.625 365.364 255.681 357.516 253.987 349.683C252.293 341.851 246.491 337 246.491 337C246.491 337 243.435 344.848 245.129 352.681Z" fill="#6D69A3"/>
<path d="M247.617 350.998C252.265 356.657 252.833 365.358 252.833 365.358C252.833 365.358 245.864 364.882 241.216 359.222C236.568 353.562 236 344.862 236 344.862C236 344.862 242.969 345.338 247.617 350.998Z" fill="#34324F"/>
<path d="M259.369 352.681C257.675 360.513 251.873 365.364 251.873 365.364C251.873 365.364 248.817 357.516 250.511 349.683C252.205 341.851 258.008 337 258.008 337C258.008 337 261.063 344.848 259.369 352.681Z" fill="#6D69A3"/>
<path d="M256.879 350.998C252.231 356.657 251.663 365.358 251.663 365.358C251.663 365.358 258.632 364.882 263.28 359.222C267.928 353.562 268.496 344.862 268.496 344.862C268.496 344.862 261.528 345.338 256.879 350.998Z" fill="#34324F"/>
<path d="M860.128 350.681C861.822 358.513 867.624 363.364 867.624 363.364C867.624 363.364 870.68 355.516 868.986 347.683C867.292 339.851 861.49 335 861.49 335C861.49 335 858.434 342.848 860.128 350.681Z" fill="#6D69A3"/>
<path d="M862.617 348.998C867.265 354.657 867.833 363.358 867.833 363.358C867.833 363.358 860.864 362.882 856.216 357.222C851.568 351.562 851 342.862 851 342.862C851 342.862 857.969 343.338 862.617 348.998Z" fill="#34324F"/>
<path d="M874.369 350.681C872.675 358.513 866.873 363.364 866.873 363.364C866.873 363.364 863.817 355.516 865.511 347.683C867.205 339.851 873.008 335 873.008 335C873.008 335 876.063 342.848 874.369 350.681Z" fill="#6D69A3"/>
<path d="M871.88 348.998C867.232 354.657 866.664 363.358 866.664 363.358C866.664 363.358 873.633 362.882 878.281 357.222C882.929 351.562 883.497 342.862 883.497 342.862C883.497 342.862 876.529 343.338 871.88 348.998Z" fill="#34324F"/>
<path d="M880.128 364.681C881.822 372.513 887.624 377.364 887.624 377.364C887.624 377.364 890.68 369.516 888.986 361.683C887.292 353.851 881.49 349 881.49 349C881.49 349 878.434 356.848 880.128 364.681Z" fill="#6D69A3"/>
<path d="M882.617 362.998C887.265 368.657 887.833 377.358 887.833 377.358C887.833 377.358 880.864 376.882 876.216 371.222C871.568 365.562 871 356.862 871 356.862C871 356.862 877.969 357.338 882.617 362.998Z" fill="#34324F"/>
<path d="M894.369 364.681C892.675 372.513 886.873 377.364 886.873 377.364C886.873 377.364 883.817 369.516 885.511 361.683C887.205 353.851 893.008 349 893.008 349C893.008 349 896.063 356.848 894.369 364.681Z" fill="#6D69A3"/>
<path d="M891.88 362.998C887.232 368.657 886.664 377.358 886.664 377.358C886.664 377.358 893.633 376.882 898.281 371.222C902.929 365.562 903.497 356.862 903.497 356.862C903.497 356.862 896.529 357.338 891.88 362.998Z" fill="#34324F"/>
<path d="M922.128 364.681C923.822 372.513 929.624 377.364 929.624 377.364C929.624 377.364 932.68 369.516 930.986 361.683C929.292 353.851 923.49 349 923.49 349C923.49 349 920.434 356.848 922.128 364.681Z" fill="#6D69A3"/>
<path d="M924.617 362.998C929.265 368.657 929.833 377.358 929.833 377.358C929.833 377.358 922.864 376.882 918.216 371.222C913.568 365.562 913 356.862 913 356.862C913 356.862 919.969 357.338 924.617 362.998Z" fill="#34324F"/>
<path d="M936.369 364.681C934.675 372.513 928.873 377.364 928.873 377.364C928.873 377.364 925.817 369.516 927.511 361.683C929.205 353.851 935.008 349 935.008 349C935.008 349 938.063 356.848 936.369 364.681Z" fill="#6D69A3"/>
<path d="M933.88 362.998C929.232 368.657 928.664 377.358 928.664 377.358C928.664 377.358 935.633 376.882 940.281 371.222C944.929 365.562 945.497 356.862 945.497 356.862C945.497 356.862 938.529 357.338 933.88 362.998Z" fill="#34324F"/>
<path d="M959.128 364.681C960.822 372.513 966.624 377.364 966.624 377.364C966.624 377.364 969.68 369.516 967.986 361.683C966.292 353.851 960.49 349 960.49 349C960.49 349 957.434 356.848 959.128 364.681Z" fill="#6D69A3"/>
<path d="M961.617 362.998C966.265 368.657 966.833 377.358 966.833 377.358C966.833 377.358 959.864 376.882 955.216 371.222C950.568 365.562 950 356.862 950 356.862C950 356.862 956.969 357.338 961.617 362.998Z" fill="#34324F"/>
<path d="M973.369 364.681C971.675 372.513 965.873 377.364 965.873 377.364C965.873 377.364 962.817 369.516 964.511 361.683C966.205 353.851 972.008 349 972.008 349C972.008 349 975.063 356.848 973.369 364.681Z" fill="#6D69A3"/>
<path d="M970.88 362.998C966.232 368.657 965.664 377.358 965.664 377.358C965.664 377.358 972.633 376.882 977.281 371.222C981.929 365.562 982.497 356.862 982.497 356.862C982.497 356.862 975.529 357.338 970.88 362.998Z" fill="#34324F"/>
<path d="M857.128 372.681C858.822 380.513 864.624 385.364 864.624 385.364C864.624 385.364 867.68 377.516 865.986 369.683C864.292 361.851 858.49 357 858.49 357C858.49 357 855.434 364.848 857.128 372.681Z" fill="#6D69A3"/>
<path d="M859.617 370.998C864.265 376.657 864.833 385.358 864.833 385.358C864.833 385.358 857.864 384.882 853.216 379.222C848.568 373.562 848 364.862 848 364.862C848 364.862 854.969 365.338 859.617 370.998Z" fill="#34324F"/>
<path d="M871.369 372.681C869.675 380.513 863.873 385.364 863.873 385.364C863.873 385.364 860.817 377.516 862.511 369.683C864.205 361.851 870.008 357 870.008 357C870.008 357 873.063 364.848 871.369 372.681Z" fill="#6D69A3"/>
<path d="M868.88 370.998C864.232 376.657 863.664 385.358 863.664 385.358C863.664 385.358 870.633 384.882 875.281 379.222C879.929 373.562 880.497 364.862 880.497 364.862C880.497 364.862 873.529 365.338 868.88 370.998Z" fill="#34324F"/>
<path d="M897.128 352.681C898.822 360.513 904.624 365.364 904.624 365.364C904.624 365.364 907.68 357.516 905.986 349.683C904.292 341.851 898.49 337 898.49 337C898.49 337 895.434 344.848 897.128 352.681Z" fill="#6D69A3"/>
<path d="M899.617 350.998C904.265 356.657 904.833 365.358 904.833 365.358C904.833 365.358 897.864 364.882 893.216 359.222C888.568 353.562 888 344.862 888 344.862C888 344.862 894.969 345.338 899.617 350.998Z" fill="#34324F"/>
<path d="M911.369 352.681C909.675 360.513 903.873 365.364 903.873 365.364C903.873 365.364 900.817 357.516 902.511 349.683C904.205 341.851 910.008 337 910.008 337C910.008 337 913.063 344.848 911.369 352.681Z" fill="#6D69A3"/>
<path d="M908.88 350.998C904.232 356.657 903.664 365.358 903.664 365.358C903.664 365.358 910.633 364.882 915.281 359.222C919.929 353.562 920.497 344.862 920.497 344.862C920.497 344.862 913.529 345.338 908.88 350.998Z" fill="#34324F"/>
<path d="M939.128 352.681C940.822 360.513 946.624 365.364 946.624 365.364C946.624 365.364 949.68 357.516 947.986 349.683C946.292 341.851 940.49 337 940.49 337C940.49 337 937.434 344.848 939.128 352.681Z" fill="#6D69A3"/>
<path d="M941.617 350.998C946.265 356.657 946.833 365.358 946.833 365.358C946.833 365.358 939.864 364.882 935.216 359.222C930.568 353.562 930 344.862 930 344.862C930 344.862 936.969 345.338 941.617 350.998Z" fill="#34324F"/>
<path d="M953.369 352.681C951.675 360.513 945.873 365.364 945.873 365.364C945.873 365.364 942.817 357.516 944.511 349.683C946.205 341.851 952.008 337 952.008 337C952.008 337 955.063 344.848 953.369 352.681Z" fill="#6D69A3"/>
<path d="M950.88 350.998C946.232 356.657 945.664 365.358 945.664 365.358C945.664 365.358 952.633 364.882 957.281 359.222C961.929 353.562 962.497 344.862 962.497 344.862C962.497 344.862 955.529 345.338 950.88 350.998Z" fill="#34324F"/>
<path d="M900.128 372.681C901.822 380.513 907.624 385.364 907.624 385.364C907.624 385.364 910.68 377.516 908.986 369.683C907.292 361.851 901.49 357 901.49 357C901.49 357 898.434 364.848 900.128 372.681Z" fill="#6D69A3"/>
<path d="M902.617 370.998C907.265 376.657 907.833 385.358 907.833 385.358C907.833 385.358 900.864 384.882 896.216 379.222C891.568 373.562 891 364.862 891 364.862C891 364.862 897.969 365.338 902.617 370.998Z" fill="#34324F"/>
<path d="M914.369 372.681C912.675 380.513 906.873 385.364 906.873 385.364C906.873 385.364 903.817 377.516 905.511 369.683C907.205 361.851 913.008 357 913.008 357C913.008 357 916.063 364.848 914.369 372.681Z" fill="#6D69A3"/>
<path d="M911.88 370.998C907.232 376.657 906.664 385.358 906.664 385.358C906.664 385.358 913.633 384.882 918.281 379.222C922.929 373.562 923.497 364.862 923.497 364.862C923.497 364.862 916.529 365.338 911.88 370.998Z" fill="#34324F"/>
<path d="M942.128 372.681C943.822 380.513 949.624 385.364 949.624 385.364C949.624 385.364 952.68 377.516 950.986 369.683C949.292 361.851 943.49 357 943.49 357C943.49 357 940.434 364.848 942.128 372.681Z" fill="#6D69A3"/>
<path d="M944.617 370.998C949.265 376.657 949.833 385.358 949.833 385.358C949.833 385.358 942.864 384.882 938.216 379.222C933.568 373.562 933 364.862 933 364.862C933 364.862 939.969 365.338 944.617 370.998Z" fill="#34324F"/>
<path d="M956.369 372.681C954.675 380.513 948.873 385.364 948.873 385.364C948.873 385.364 945.817 377.516 947.511 369.683C949.205 361.851 955.008 357 955.008 357C955.008 357 958.063 364.848 956.369 372.681Z" fill="#6D69A3"/>
<path d="M953.88 370.998C949.232 376.657 948.664 385.358 948.664 385.358C948.664 385.358 955.633 384.882 960.281 379.222C964.929 373.562 965.497 364.862 965.497 364.862C965.497 364.862 958.529 365.338 953.88 370.998Z" fill="#34324F"/>
<path d="M335.939 129.086H330.064V361.139H335.939V129.086Z" fill="#3F3D56"/>
<path opacity="0.1" d="M390.157 158.658C390.531 239.802 333.442 305.846 333.442 305.846C333.442 305.846 275.747 240.331 275.373 159.188C274.999 78.0442 332.088 12 332.088 12C332.088 12 389.783 77.5152 390.157 158.658Z" fill="#0C1B50"/>
<g opacity="0.7">
<path opacity="0.7" d="M861.409 364.431H359.689L363.163 129.423L506.65 105.67H709.51L857.935 122.493L861.409 364.431Z" fill="url(#paint0_linear_770_3)"/>
</g>
<path d="M854 361H367L370.468 132.674L507.236 109H711.759L850.532 125.767L854 361Z" fill="#EEEEEE"/>
<g opacity="0.7">
<path opacity="0.7" d="M553.645 21.5566H517.037V93.8024H553.645V21.5566Z" fill="url(#paint1_linear_770_3)"/>
</g>
<g opacity="0.7">
<path opacity="0.7" d="M517.02 185.731V107.645H358.005L331 185.731V193.733H518.025V185.731H517.02Z" fill="url(#paint2_linear_770_3)"/>
</g>
<path d="M517 185H333L359.706 109H517V185Z" fill="#3A3B81"/>
<path opacity="0.1" d="M517 185H333L359.706 109H517V185Z" fill="black"/>
<path d="M518 185H333V194H518V185Z" fill="#3A3B81"/>
<g opacity="0.7">
<path opacity="0.7" d="M859.551 106.659H700.11V185.63H699.105V193.735H886.641V185.63L859.551 106.659Z" fill="url(#paint3_linear_770_3)"/>
</g>
<path d="M700 185H884L857.294 109H700V185Z" fill="#3A3B81"/>
<path opacity="0.1" d="M700 185H884L857.294 109H700V185Z" fill="black"/>
<path d="M700 194L884 194V185L700 185V194Z" fill="#3A3B81"/>
<path opacity="0.5" d="M482 225H382V287H482V225Z" fill="#3A3B81"/>
<path opacity="0.1" d="M489 283H377V294H489V283Z" fill="black"/>
<path d="M489 282H377V292H489V282Z" fill="#535461"/>
<g opacity="0.1">
<path opacity="0.1" d="M482.406 224.91H382.457V249.65H482.406V224.91Z" fill="black"/>
</g>
<path opacity="0.5" d="M835 225H736V287H835V225Z" fill="#3A3B81"/>
<path opacity="0.1" d="M841 283H730V294H841V283Z" fill="black"/>
<path d="M841 282H730V292H841V282Z" fill="#535461"/>
<g opacity="0.1">
<path opacity="0.1" d="M835.68 224.91H735.731V249.65H835.68V224.91Z" fill="black"/>
</g>
<g opacity="0.7">
<path opacity="0.7" d="M730.948 113.264L608.881 18.866L490.747 113.196L481.484 101.6L608.745 0L740.023 101.532L730.948 113.264Z" fill="url(#paint4_linear_770_3)"/>
</g>
<path opacity="0.1" d="M501 194H369V195H501V194Z" fill="black"/>
<path opacity="0.1" d="M852 194H720V195H852V194Z" fill="black"/>
<path d="M552 23H518V94H552V23Z" fill="#535461"/>
<g opacity="0.7">
<path opacity="0.7" d="M718.912 361.466H497.254V90.3273L609.036 87.8584L718.912 90.3273V361.466Z" fill="url(#paint5_linear_770_3)"/>
</g>
<path d="M716 361H501V89.7276L608.508 13L716 89.7276V361Z" fill="white"/>
<path d="M636 270H582V361H636V270Z" fill="#535461"/>
<path opacity="0.1" d="M664 189H552V199H664V189Z" fill="black"/>
<path opacity="0.5" d="M659 131H559V193H659V131Z" fill="#3A3B81"/>
<path d="M664 188H552V198H664V188Z" fill="#535461"/>
<g opacity="0.1">
<path opacity="0.1" d="M658.55 130.904H558.602V155.644H658.55V130.904Z" fill="black"/>
</g>
<path d="M730.908 114L608.624 19.822L490.279 113.932L481 102.364L608.487 1L740 102.296L730.908 114Z" fill="#3A3B81"/>
<path d="M628 319C630.209 319 632 317.657 632 316C632 314.343 630.209 313 628 313C625.791 313 624 314.343 624 316C624 317.657 625.791 319 628 319Z" fill="#E0E0E0"/>
<path d="M559.752 312.825H563.556V318.531H559.752V312.825Z" fill="#907857"/>
<path d="M558.814 329.945L555.948 314.727L567.361 318.532L558.814 329.945Z" fill="#EFE8C8"/>
<ellipse cx="562.605" cy="307.118" rx="6.65786" ry="7.60898" fill="#907857"/>
<path d="M571.165 303.313C571.165 305.94 567.333 305.215 562.605 305.215C557.877 305.215 554.045 305.94 554.045 303.313C554.045 300.687 557.877 295.704 562.605 295.704C567.333 295.704 571.165 300.687 571.165 303.313Z" fill="#5B5755"/>
<path d="M562.605 302.362C555.947 302.362 554.045 303.313 554.045 303.313C554.265 305.34 556.579 305.58 562.605 305.215C569.49 305.63 571.221 305.191 571.165 303.313C571.165 303.313 569.263 302.362 562.605 302.362Z" fill="#756F6D"/>
<ellipse cx="521.438" cy="296.621" rx="3.01791" ry="5.89724" transform="rotate(-28.065 521.438 296.621)" fill="#907857"/>
<path d="M536.926 381.305H569.264V390.816V478.32H565.459L552.144 394.621L544.535 480.222H540.73L536.926 381.305Z" fill="#5B5755"/>
<path d="M532.169 482.124C537.875 482.124 544.533 482.124 544.533 482.124V487.831H527.413C527.413 487.831 526.462 482.124 532.169 482.124Z" fill="#301905"/>
<path d="M575.919 482.124C570.213 482.124 563.555 482.124 563.555 482.124V487.831H580.675C580.675 487.831 581.626 482.124 575.919 482.124Z" fill="#301905"/>
<rect x="563.557" y="407.541" width="41.8494" height="26.6314" transform="rotate(-20.7436 563.557 407.541)" fill="#301905"/>
<rect x="571.809" y="398.562" width="20.0492" height="12.3949" transform="rotate(-20.7436 571.809 398.562)" stroke="#301905"/>
<ellipse cx="581.511" cy="393.966" rx="2.53321" ry="4.9501" transform="rotate(-2.39447 581.511 393.966)" fill="#907857"/>
<path d="M560.499 321.996L558.763 335.297L556 334.582L560.499 321.996Z" fill="#AF1414"/>
<path d="M555.947 314.727L558.801 329.945L567.361 318.531C578.346 338.966 582.064 354.147 583.53 387.963H579.726L571.165 348.967V381.305H534.072C534.261 364.845 536.657 353.664 543.583 329.945L532.169 332.798L522.658 303.313L526.463 300.46L534.072 321.385L555.947 314.727Z" fill="#56371D"/>
<path d="M560.501 321.997L559.649 316.529L563.786 317.806L560.501 321.997Z" fill="#AF1414"/>
<rect x="678" y="312" width="7" height="8" fill="#FFD9A9"/>
<ellipse cx="682" cy="305" rx="8" ry="9" fill="#FFD9A9"/>
<path d="M682.5 329.504L676.001 316L688.5 316L682.5 329.504Z" fill="#EFE8C8"/>
<path d="M666.57 381.997H698.908V391.508V479.011H695.104L681.788 395.312L674.179 480.913H670.375L666.57 381.997Z" fill="#5B5755"/>
<path d="M661.815 482.815C667.522 482.815 674.18 482.815 674.18 482.815V488.522H657.059C657.059 488.522 656.108 482.815 661.815 482.815Z" fill="#301905"/>
<path d="M705.567 482.815C699.86 482.815 693.202 482.815 693.202 482.815V488.522H710.322C710.322 488.522 711.274 482.815 705.567 482.815Z" fill="#301905"/>
<ellipse cx="651.438" cy="279.624" rx="3.01791" ry="5.89724" transform="rotate(-28.065 651.438 279.624)" fill="#FFD9A9"/>
<ellipse rx="3.01791" ry="5.89724" transform="matrix(-0.882415 -0.470472 -0.470472 0.882415 713.437 279.627)" fill="#FFD9A9"/>
<path d="M682.389 321.011L684.107 334.333L681.001 334.314L682.389 321.011Z" fill="#AF8D14"/>
<path d="M682.428 320.981L680.01 316.003L684.34 316.012L682.428 320.981Z" fill="#AF8D14"/>
<rect x="695.848" y="280.831" width="41.8494" height="26.6314" transform="rotate(6.13782 695.848 280.831)" fill="#301905"/>
<rect x="707.268" y="276.554" width="20.0492" height="12.3949" transform="rotate(6.13782 707.268 276.554)" stroke="#301905"/>
<path d="M669.999 315.5L673.999 317L681.499 330.838L688.499 316L690.499 316.5C701.484 336.935 696.533 298.184 697.999 332L694.499 338L700.743 349.861V382.199H663.649C663.838 365.739 663.649 354.838 663.649 330.838L659.999 320.5L654.999 308.5L651.195 286.357L657.539 284.5L663.649 310.357L669.999 315.5Z" fill="#1D1F56"/>
<path d="M694.743 315L690.5 317L683.243 330.338L676 316H674C663.015 336.435 668.209 297.684 666.743 331.5L670.243 337.5L664 349.361V381.699H701.093C700.904 365.239 701.093 354.338 701.093 330.338L704.743 320L709.743 308L713.547 285.857L707.203 284L701.093 309.857L694.743 315Z" fill="#1D1F56"/>
<path d="M678.501 300.5C676.001 301.5 674.501 307 674.501 307C674.501 307 675.001 310 674.001 307C673.001 304 675.001 300.5 675.001 300.5C677.648 297.15 679.297 296.239 682.001 296C686.931 296.639 691.501 302 690.001 304C688.501 306 681.001 299.5 678.501 300.5Z" fill="#301905"/>
<path d="M408.148 312.072C407.567 314.508 404.517 316.841 402.073 317.063H401.06C401.06 317.063 399.035 320.057 400.047 321.055C401.059 322.054 398.022 325.048 398.022 325.048L402.073 334.031L392.959 351H380.808C377.77 351 373.719 349.004 371.694 347.007C369.669 345.011 369.925 342.589 366.631 341.018C366.631 341.018 364.606 340.02 364.606 338.024C364.606 336.028 366.631 335.03 366.631 333.033C366.631 331.037 365.618 330.039 364.606 329.041C363.593 328.042 363.593 321.055 366.631 319.059C369.669 317.063 371.694 319.059 373.719 317.063C375.744 315.066 373.719 313.07 373.719 311.074C373.719 309.077 375.744 306.083 377.77 305.085C379.795 304.087 384.789 305.997 387.896 305.085C389.896 297.297 392.637 296.738 399.411 297.07C404.013 297.957 405.006 302.422 407.512 303.059C410.018 303.697 408.729 309.636 408.148 312.072Z" fill="#F6D20F"/>
<path d="M301.508 371H341.014V391C342.276 407.929 341.515 434.514 342 482H338.049C329.788 430.397 325.423 411.824 318.298 397C313.856 419.851 311.698 438.573 307.434 482H303.483C299.762 436.988 298.892 412.445 301.508 371Z" fill="#6191C6"/>
<path d="M294 485C297 485 307 485 307 485V489H291C291 489 291 485 294 485Z" fill="black"/>
<path d="M352 486C349 486 339 486 339 486V490H355C355 490 355 486 352 486Z" fill="black"/>
<path d="M298 364C298 365.657 296.657 366 295 366C293.343 366 292 364.657 292 363C292 361.343 293.343 360 295 360C296.657 360 298 362.343 298 364Z" fill="#DAB38F"/>
<path d="M392.571 322.022C394.185 322.41 394.205 323.799 393.816 325.413C393.428 327.028 391.805 328.022 390.19 327.633C388.576 327.245 387.582 325.622 387.971 324.007C388.359 322.393 390.957 321.633 392.571 322.022Z" fill="#DAB38F"/>
<path d="M370.526 374.13C372.14 374.518 372.16 375.907 371.772 377.522C371.383 379.136 369.76 380.13 368.146 379.742C366.531 379.353 365.537 377.73 365.926 376.116C366.314 374.501 368.912 373.742 370.526 374.13Z" fill="#FCD6B1"/>
<path d="M426.643 374.13C428.257 374.518 428.277 375.907 427.889 377.522C427.5 379.136 425.877 380.13 424.263 379.742C422.648 379.353 421.655 377.73 422.043 376.116C422.431 374.501 425.029 373.742 426.643 374.13Z" fill="#FCD6B1"/>
<circle cx="333" cy="299" r="8" fill="#DAB38F"/>
<rect x="329" y="305" width="4" height="10" fill="#DAB38F"/>
<path d="M312.325 315.732C315.313 315.732 319.295 316.746 320.29 315.732C321.286 314.719 321.286 311.679 322.281 310.666C323.277 309.652 335.226 309.652 336.221 311.679C337.216 313.705 337.217 317.759 337.217 317.759C338.827 316.604 356.645 337.96 360.116 338.025C363.588 338.089 386.004 324.852 386.004 324.852L387 328.905C387 328.905 368.082 347.144 360.117 347.144C352.152 347.144 349.165 341.065 349.165 341.065C349.165 341.065 352.152 373.49 349.165 377.543C346.178 381.597 297.391 376.53 295.399 370.45C293.407 364.371 303.364 333.972 303.364 333.972C303.364 333.972 290.42 337.011 289.425 341.065C288.43 345.118 294.403 359.304 294.403 359.304L290.42 361.331C286.925 354.74 284.977 351.169 282.455 345.118C280.654 340.678 280.381 338.389 282.455 334.985C293.864 325.452 309.338 315.732 312.325 315.732Z" fill="#FA8D1E"/>
<path d="M328.368 288L341.946 291.079C341.946 291.079 344.856 296.212 341.004 299.057L332.247 293.132C332.247 293.132 327.964 291.319 325.839 297.064C325.061 299.833 324.608 301.412 325.458 298.265C325.575 297.832 325.702 297.433 325.839 297.064C326.836 293.512 328.368 288 328.368 288Z" fill="black"/>
<path d="M342.451 297.404L341.004 299.057M341.004 299.057C344.856 296.212 341.946 291.079 341.946 291.079L328.368 288C328.368 288 323.518 305.45 325.458 298.265C327.398 291.079 332.247 293.132 332.247 293.132L341.004 299.057Z" stroke="black" stroke-width="0.2"/>
<ellipse cx="398" cy="312" rx="6" ry="7" fill="#FCD6B1"/>
<path d="M394 322H399L402 325L406 333H388L392 325L394 322Z" fill="#FCD6B1"/>
<path d="M394 317H398.445C399.246 320.956 399.121 323.137 398.445 327H394C394.616 323.096 394.739 320.904 394 317Z" fill="#FCD6B1"/>
<path d="M388 325C369.339 337.602 358.825 350 357.819 352C356.813 354 356.324 361.152 358.825 366L362.849 373L368.886 371L365.868 363C363.557 358.607 364.253 356.901 365.868 354C369.31 348.541 374.922 344 376.934 342C378.946 340 388 335 388 335V325Z" fill="#FCD6B1"/>
<path d="M406 325C424.661 337.602 435.175 350 436.181 352C437.187 354 437.676 361.152 435.175 366L431.151 373L425.114 371L428.132 363C430.443 358.607 429.747 356.901 428.132 354C424.69 348.541 419.078 344 417.066 342C415.054 340 406 335 406 335V325Z" fill="#FCD6B1"/>
<path d="M376 443H388C386.145 459.214 384.611 468.194 381 484H376V443Z" fill="#FCD6B1"/>
<path d="M396 442H407C405.145 457.394 405.611 468.994 402 484H397L396 442Z" fill="#FCD6B1"/>
<path d="M376 486C376 486 384.898 486 387.864 486C390.831 486 389.842 490 389.842 490H376V486Z" fill="black"/>
<path d="M398 486C398 486 406.898 486 409.864 486C412.831 486 411.842 490 411.842 490H398V486Z" fill="black"/>
<path d="M388.581 333C388.581 333 402.785 333 405.829 333C408.872 333 410.428 373.43 413.945 384C417.463 394.57 418 443 418 443L387.562 445C387.562 445 367.274 445 361.187 441C355.099 437 373.677 373.483 388.581 333Z" fill="#FA8D1E"/>
<rect x="388" y="325" width="4" height="10" fill="#FA8D1E"/>
<rect x="402" y="325" width="4" height="10" fill="#FA8D1E"/>
<path d="M391 314C393.546 309.306 396.738 306.637 402 307L395 301L390 309L391 314Z" fill="#F6D20F"/>
<path d="M437.928 354.163L437.926 354.161L434.783 352L429.545 353.081C421.182 358.286 420.941 363.319 423.259 373.613L426.402 376.855C427.1 381.538 428.497 391.119 428.497 391.984C428.497 393.065 432.688 407.113 433.736 409.274C434.574 411.003 442.466 415.758 446.308 417.919L454.69 419C456.785 418.28 460.976 416.623 460.976 415.758C460.976 414.894 462.373 411.075 463.071 409.274C463.77 408.194 465.376 406.032 466.214 406.032C467.262 406.032 467.262 397.387 466.214 396.306C465.167 395.226 462.023 389.823 460.976 388.742C459.928 387.661 454.69 383.339 453.642 383.339C452.804 383.339 450.499 381.177 449.451 380.097C448.403 377.935 446.098 373.397 445.26 372.532C444.422 371.668 444.911 368.57 445.26 367.129C444.911 364.608 442.955 358.484 442.117 358.484C441.279 358.484 439.324 355.964 437.928 354.163Z" fill="#A27756"/>
<path d="M401.045 383.4C401.045 383.4 406.273 386.6 409.409 386.6C412.545 386.6 423 377 423 377L418.818 387.667C418.818 387.667 413.591 393 409.409 393C405.227 393 400 386.6 400 386.6L401.045 383.4Z" fill="#6191C6"/>
<circle cx="431.5" cy="365.5" r="6.5" fill="#DAB38F"/>
<rect x="427" y="370" width="6" height="7" fill="#DAB38F"/>
<path d="M437 377L459 415.775L454.8 419L440.1 391.05L437 377Z" fill="#6191C6"/>
<path d="M421 457H429L424 486H421V457Z" fill="#DAB38F"/>
<path d="M446 457H438L443 486H446V457Z" fill="#DAB38F"/>
<path d="M414.167 487C416.333 487 425 487 425 487V490H412C412 490 412 487 414.167 487Z" fill="black"/>
<path d="M454.833 487C452.667 487 444 487 444 487V490H457C457 490 457 487 454.833 487Z" fill="black"/>
<circle cx="397.5" cy="382.5" r="2.5" fill="#DAB38F"/>
<ellipse cx="459" cy="418.5" rx="2" ry="2.5" fill="#DAB38F"/>
<path d="M424.711 375L437.244 377.1C444.032 390.051 447.964 407.486 455 454.787C438.073 461.876 427.634 461.599 408 454.787C414.234 399.919 417.959 382.835 424.711 375Z" fill="#6191C6"/>
<path d="M389.955 383.4C389.955 383.4 384.727 386.6 381.591 386.6C378.455 386.6 368 377 368 377L372.182 387.667C372.182 387.667 377.409 393 381.591 393C385.773 393 391 386.6 391 386.6L389.955 383.4Z" fill="#6191C6"/>
<circle r="6.5" transform="matrix(-1 0 0 1 359.5 365.5)" fill="#FDE297"/>
<rect width="6" height="7" transform="matrix(-1 0 0 1 364 370)" fill="#FDE297"/>
<path d="M354 377L332 415.775L336.2 419L350.9 391.05L354 377Z" fill="#6191C6"/>
<path d="M345 426L361 428L351 484H345V426Z" fill="#A27756"/>
<path d="M377 426L359 428L370.25 484H377V426Z" fill="#A27756"/>
<path d="M376.833 487C374.667 487 366 487 366 487V490H379C379 490 379 487 376.833 487Z" fill="black"/>
<path d="M336.167 487C338.333 487 347 487 347 487V490H334C334 490 334 487 336.167 487Z" fill="black"/>
<circle r="2.5" transform="matrix(-1 0 0 1 393.5 382.5)" fill="#FDE297"/>
<ellipse rx="2" ry="2.5" transform="matrix(-1 0 0 1 332 418.5)" fill="#FDE297"/>
<path d="M366.288 375L353.755 377.1C346.967 390.051 351.731 378.877 344.695 426.178C361.622 433.267 358.561 432.99 378.195 426.178C371.962 371.31 373.04 382.835 366.288 375Z" fill="#6191C6"/>
<path d="M350.499 361.5L356.999 357C356.999 357 365.36 358.36 364.499 361.5L355.028 362.264C355.028 362.264 351.575 363.208 353.562 367.861C355.548 372.514 350.499 361.5 350.499 361.5Z" fill="#8E7A0E"/>
<circle r="15.2744" transform="matrix(-0.902944 0.429758 0.429758 0.902944 397.098 348.355)" stroke="black" stroke-width="3"/>
<rect width="1.31564" height="5.92036" transform="matrix(-0.999793 -0.0203398 -0.0203398 0.999793 397.191 364.625)" fill="black"/>
<rect width="5.06418" height="16.3394" transform="matrix(-0.999793 -0.0203398 -0.0203398 0.999793 398.789 370.44)" fill="black"/>
<path d="M396.908 369.175L396.795 370.595L398.795 370.463L396.908 369.175Z" fill="black"/>
<path d="M396.908 369.175L396.795 370.595L398.795 370.463L396.908 369.175Z" fill="black"/>
<path d="M396.182 369.007L393.728 370.357L395.934 370.4L396.182 369.007Z" fill="black"/>
<path d="M396.182 369.007L393.728 370.357L395.934 370.4L396.182 369.007Z" fill="black"/>
<rect width="2.66899" height="1.10957" transform="matrix(-0.999743 -0.0226775 -0.0226775 0.999743 397.145 386.562)" fill="black"/>
<path d="M397.1 386.374L397.07 387.663L398.412 386.706L397.1 386.374Z" fill="black"/>
<path d="M395.147 386.386L393.632 386.612L394.495 387.659L395.147 386.386Z" fill="black"/>
<path d="M260 129H254V365H260V129Z" fill="#3F3D56"/>
<path d="M313.785 158.658C314.159 239.802 257.071 305.846 257.071 305.846C257.071 305.846 199.376 240.331 199.002 159.188C198.628 78.0442 255.716 12 255.716 12C255.716 12 313.411 77.5152 313.785 158.658Z" fill="#B9B8C5"/>
<path d="M617.852 317.072C618.433 319.508 621.483 321.841 623.927 322.063H624.94C624.94 322.063 626.965 325.057 625.953 326.055C624.941 327.054 627.978 330.048 627.978 330.048L623.927 339.031L633.041 356H645.192C648.23 356 652.281 354.004 654.306 352.007C656.331 350.011 656.075 347.589 659.369 346.018C659.369 346.018 661.394 345.02 661.394 343.024C661.394 341.028 659.369 340.03 659.369 338.033C659.369 336.037 660.382 335.039 661.394 334.041C662.407 333.042 662.407 326.055 659.369 324.059C656.331 322.063 654.306 324.059 652.281 322.063C650.256 320.066 652.281 318.07 652.281 316.074C652.281 314.077 650.256 311.083 648.23 310.085C646.205 309.087 641.211 310.997 638.104 310.085C636.104 302.297 633.363 301.738 626.589 302.07C621.987 302.957 620.994 307.422 618.488 308.059C615.982 308.697 617.271 314.636 617.852 317.072Z" fill="#301905"/>
<path d="M600.303 281.937C601.918 282.326 601.937 283.715 601.549 285.329C601.161 286.943 599.537 287.937 597.923 287.549C596.309 287.16 595.315 285.537 595.703 283.923C596.091 282.309 598.689 281.549 600.303 281.937Z" fill="#FCD6B1"/>
<path d="M656.303 372.937C657.918 373.326 657.937 374.715 657.549 376.329C657.161 377.943 655.537 378.937 653.923 378.549C652.309 378.16 651.315 376.537 651.703 374.923C652.091 373.309 654.689 372.549 656.303 372.937Z" fill="#FCD6B1"/>
<ellipse cx="627" cy="312" rx="6" ry="7" fill="#FCD6B1"/>
<path d="M623 322H628L631 325L635 333H617L621 325L623 322Z" fill="#FCD6B1"/>
<path d="M623 317H627.445C628.246 320.956 628.121 323.137 627.445 327H623C623.616 323.096 623.739 320.904 623 317Z" fill="#FCD6B1"/>
<path d="M618 337C599.339 324.398 588.825 312 587.819 310C586.813 308 586.324 300.848 588.825 296L592.849 289L598.886 291L595.868 299C593.557 303.393 594.253 305.099 595.868 308C599.31 313.459 604.922 318 606.934 320C608.946 322 618 327 618 327V337Z" fill="#FCD6B1"/>
<path d="M635 325C638 327.5 643.5 331.5 647.5 338.5C651.5 345.5 650.5 344.5 654.114 353L660.151 373L654.114 371L652 364C651 358.5 650.614 358.901 649 356C645.557 350.541 645.512 349.5 643.5 347.5C641.488 345.5 635 335 635 335V325Z" fill="#FCD6B1"/>
<path d="M605 443H617C615.145 459.214 613.611 468.194 610 484H605V443Z" fill="#FCD6B1"/>
<path d="M625 442H636C634.145 457.394 634.611 468.994 631 484H626L625 442Z" fill="#FCD6B1"/>
<path d="M610 486C610 486 601.102 486 598.136 486C595.169 486 596.158 490 596.158 490H610V486Z" fill="black"/>
<path d="M627 486C627 486 635.898 486 638.864 486C641.831 486 640.842 490 640.842 490H627V486Z" fill="black"/>
<path d="M617.581 333C617.581 333 631.785 333 634.829 333C637.872 333 639.428 373.43 642.945 384C646.463 394.57 647 443 647 443L616.562 445C616.562 445 596.274 445 590.187 441C584.099 437 602.677 373.483 617.581 333Z" fill="#1D1F56"/>
<rect x="617" y="325" width="4" height="10" fill="#1D1F56"/>
<rect x="631" y="325" width="4" height="10" fill="#1D1F56"/>
<path d="M393 342C395.21 342 397 343.755 397 345.92C397 343.755 398.79 342 401 342C403.21 342 405 343.755 405 345.92C405 349.183 401.766 350.334 397.392 355.528C397.344 355.585 397.284 355.631 397.216 355.662C397.148 355.694 397.075 355.71 397 355.71C396.925 355.71 396.852 355.694 396.784 355.662C396.716 355.631 396.656 355.585 396.608 355.528C392.234 350.334 389 349.183 389 345.92C389 343.755 390.79 342 393 342Z" fill="#DC0000"/>
<defs>
<linearGradient id="paint0_linear_770_3" x1="610.549" y1="364.431" x2="610.549" y2="105.67" gradientUnits="userSpaceOnUse">
<stop stop-color="#808080" stop-opacity="0.25"/>
<stop offset="0.54" stop-color="#808080" stop-opacity="0.12"/>
<stop offset="1" stop-color="#808080" stop-opacity="0.1"/>
</linearGradient>
<linearGradient id="paint1_linear_770_3" x1="12423.8" y1="8853.6" x2="12423.8" y2="5788.94" gradientUnits="userSpaceOnUse">
<stop stop-color="#808080" stop-opacity="0.25"/>
<stop offset="0.54" stop-color="#808080" stop-opacity="0.12"/>
<stop offset="1" stop-color="#808080" stop-opacity="0.1"/>
</linearGradient>
<linearGradient id="paint2_linear_770_3" x1="48987.4" y1="15685.4" x2="48987.4" y2="11332.8" gradientUnits="userSpaceOnUse">
<stop stop-color="#808080" stop-opacity="0.25"/>
<stop offset="0.54" stop-color="#808080" stop-opacity="0.12"/>
<stop offset="1" stop-color="#808080" stop-opacity="0.1"/>
</linearGradient>
<linearGradient id="paint3_linear_770_3" x1="90060" y1="15863.1" x2="90060" y2="11410" gradientUnits="userSpaceOnUse">
<stop stop-color="#808080" stop-opacity="0.25"/>
<stop offset="0.54" stop-color="#808080" stop-opacity="0.12"/>
<stop offset="1" stop-color="#808080" stop-opacity="0.1"/>
</linearGradient>
<linearGradient id="paint4_linear_770_3" x1="96021.9" y1="15142.3" x2="96021.9" y2="7607.94" gradientUnits="userSpaceOnUse">
<stop stop-color="#808080" stop-opacity="0.25"/>
<stop offset="0.54" stop-color="#808080" stop-opacity="0.12"/>
<stop offset="1" stop-color="#808080" stop-opacity="0.1"/>
</linearGradient>
<linearGradient id="paint5_linear_770_3" x1="82060.8" y1="76550.2" x2="82060.8" y2="32584.2" gradientUnits="userSpaceOnUse">
<stop stop-color="#808080" stop-opacity="0.25"/>
<stop offset="0.54" stop-color="#808080" stop-opacity="0.12"/>
<stop offset="1" stop-color="#808080" stop-opacity="0.1"/>
</linearGradient>
</defs>
</svg>
