<svg width="646" height="453" viewBox="0 0 646 453" fill="none" xmlns="http://www.w3.org/2000/svg">
<ellipse cx="299" cy="226.5" rx="299" ry="226.5" fill="#E6EBFF"/>
<circle cx="357" cy="243" r="2" fill="#F4F8FF"/>
<circle cx="365" cy="234" r="4" fill="#F4F8FF"/>
<circle cx="374" cy="224" r="6" fill="#F4F8FF"/>
<circle cx="319" cy="116" r="48" fill="#F4F8FF"/>
<circle cx="341" cy="133" r="48" fill="#F4F8FF"/>
<circle cx="384" cy="149" r="48" fill="#F4F8FF"/>
<circle cx="416" cy="180" r="48" fill="#F4F8FF"/>
<circle cx="454" cy="179" r="48" fill="#F4F8FF"/>
<circle cx="483" cy="164" r="48" fill="#F4F8FF"/>
<circle cx="478" cy="137" r="48" fill="#F4F8FF"/>
<circle cx="472" cy="119" r="48" fill="#F4F8FF"/>
<circle cx="452" cy="104" r="48" fill="#F4F8FF"/>
<circle cx="438" cy="91" r="48" fill="#F4F8FF"/>
<circle cx="413" cy="77" r="48" fill="#F4F8FF"/>
<circle cx="396" cy="82" r="48" fill="#F4F8FF"/>
<circle cx="356" cy="78" r="48" fill="#F4F8FF"/>
<circle cx="328" cy="83" r="48" fill="#F4F8FF"/>
<path d="M113.5 57C122 29 184 20.5 184 20.5C248.641 160.114 265.233 246.27 261 413.5C261 413.5 177.5 442 73.8916 408.619C76.6939 258.844 105 85 113.5 57Z" fill="#FFFDF1" fill-opacity="0.48"/>
<rect x="292.451" y="196.734" width="48.0558" height="26.4478" transform="rotate(-1.98608 292.451 196.734)" fill="#F0F0F8" stroke="#1E1F6F" stroke-width="4"/>
<path d="M337.058 315.684L350.808 309.791C368.645 304.568 375.408 306.254 388.131 308.318L360.63 335.819L369.963 389.348H360.63C348.516 352.339 332.316 322.99 337.058 315.684Z" fill="#535461"/>
<path d="M320.852 247.422L326.745 243.494L336.075 258.226L345.406 269.522L359.648 270.504L364.559 279.343L351.79 275.415L332.638 274.924L320.852 247.422Z" fill="#9495B7"/>
<rect x="197.588" y="275.415" width="154.203" height="5.89311" fill="#2E3045"/>
<rect x="229.899" y="279.494" width="3.92874" height="132.894" transform="rotate(17.1506 229.899 279.494)" fill="#2E3045"/>
<rect x="242.388" y="279.974" width="3.92874" height="104.094" transform="rotate(11.2268 242.388 279.974)" fill="#2E3045"/>
<rect width="3.92874" height="132.894" transform="matrix(-0.955533 0.294884 0.294884 0.955533 319.023 280.325)" fill="#2E3045"/>
<rect width="3.92874" height="104.094" transform="matrix(-0.980864 0.194694 0.194694 0.980864 306.535 280.805)" fill="#2E3045"/>
<path d="M257.01 240.056H283.038L300.717 274.432H273.707L257.01 240.056Z" fill="black"/>
<path d="M261.685 244.074H282.156L296.061 270.593H274.817L261.685 244.074Z" fill="white"/>
<path d="M267 248H276.528L283 257H273.112L267 248Z" fill="#BDAEAE"/>
<path d="M273 259H282.528L289 268H279.112L273 259Z" fill="#BDAEAE"/>
<rect x="273.216" y="274.432" width="49.1093" height="0.982186" fill="black"/>
<rect x="480.457" y="343.185" width="68.753" height="40.2696" fill="#535461"/>
<rect x="476.457" y="355.685" width="68.753" height="40.2696" fill="#535461"/>
<rect x="550.457" y="346.685" width="68.753" height="40.2696" fill="#535461"/>
<path d="M549 343L558.5 335.5V376L549 383.27V343Z" fill="#39374E"/>
<path d="M545 355.5L554.5 348V388.5L545 395.77V355.5Z" fill="#39374E"/>
<path d="M619 346.5L628.5 339V379.5L619 386.77V346.5Z" fill="#39374E"/>
<path d="M497.5 335.5H558.5L548.753 343.27H480L497.5 335.5Z" fill="#5E5B8D"/>
<path d="M493.5 348H554.5L544.753 355.77H476L493.5 348Z" fill="#5E5B8D"/>
<path d="M567.5 339H628.5L618.753 346.77H550L567.5 339Z" fill="#5E5B8D"/>
<rect x="404.828" y="348.096" width="5.89311" height="26.519" fill="#525252"/>
<path d="M380.662 390.994L404.954 371.67L407.4 374.744L384.2 392.296L382.238 394.259L379.783 394.259L380.662 390.994Z" fill="#525252"/>
<path d="M437.654 391.251L410.359 370.999L407.913 374.074L433.784 392.19L435.81 394.204L439.696 394.258L437.654 391.251Z" fill="#525252"/>
<path d="M408.481 372.651L419.529 396.34L420.544 399.17L417.106 399.17L416.859 397.586L405.811 373.896L408.481 372.651Z" fill="#525252"/>
<circle cx="381.257" cy="397.205" r="2.94656" fill="#0A0C3D"/>
<circle cx="418.579" cy="402.116" r="2.94656" fill="#0A0C3D"/>
<circle cx="438.223" cy="397.205" r="2.94656" fill="#0A0C3D"/>
<path d="M72.9653 342.068C74.6291 349.761 80.3279 354.525 80.3279 354.525C80.3279 354.525 83.3292 346.817 81.6654 339.124C80.0016 331.431 74.3028 326.667 74.3028 326.667C74.3028 326.667 71.3016 334.375 72.9653 342.068Z" fill="#6D69A3"/>
<path d="M75.4098 340.415C79.9752 345.974 80.5329 354.519 80.5329 354.519C80.5329 354.519 73.6885 354.052 69.1231 348.493C64.5577 342.934 64 334.388 64 334.388C64 334.388 70.8444 334.856 75.4098 340.415Z" fill="#34324F"/>
<path d="M86.9526 342.068C85.2888 349.761 79.5901 354.525 79.5901 354.525C79.5901 354.525 76.5888 346.817 78.2526 339.124C79.9163 331.431 85.6151 326.667 85.6151 326.667C85.6151 326.667 88.6164 334.375 86.9526 342.068Z" fill="#6D69A3"/>
<path d="M84.5082 340.415C79.9428 345.974 79.3851 354.519 79.3851 354.519C79.3851 354.519 86.2295 354.052 90.7949 348.493C95.3603 342.934 95.918 334.388 95.918 334.388C95.918 334.388 89.0736 334.856 84.5082 340.415Z" fill="#34324F"/>
<ellipse cx="344.424" cy="263.628" rx="10.313" ry="10.804" fill="#FFDAB0"/>
<rect x="351.791" y="263.628" width="10.804" height="7.85749" fill="#FFDAB0"/>
<path d="M358.666 260.682C358.861 265.92 352.282 266.575 352.282 266.575C352.282 266.575 348.962 259.247 347.371 258.226C345.78 257.205 339.355 258.473 336.076 258.226C332.796 257.979 330.182 254.789 330.182 254.789C330.182 254.789 327.252 250.464 330.182 246.931C333.113 243.399 336.815 250.017 340.986 249.878C345.158 249.738 344.954 244.316 349.335 244.967C353.716 245.617 354.35 251.323 354.35 251.323C354.35 251.323 358.471 255.444 358.666 260.682Z" fill="#433D26"/>
<circle cx="318.887" cy="239.565" r="5.40202" fill="#FFDAB0"/>
<rect x="316.432" y="224.341" width="2.94656" height="23.5725" fill="#1E1F6F"/>
<rect x="299.007" y="205.769" width="1.96437" height="9.82186" fill="#1E1F6F"/>
<rect x="303.918" y="204.786" width="1.96437" height="9.82186" fill="#1E1F6F"/>
<rect x="299.989" y="208.715" width="4.91093" height="1.96437" fill="#1E1F6F"/>
<rect x="307.847" y="205.769" width="1.96437" height="8.83967" fill="#1E1F6F"/>
<rect x="309.811" y="205.769" width="4.91093" height="1.96437" fill="#1E1F6F"/>
<rect x="309.811" y="208.715" width="3.92874" height="1.96437" fill="#1E1F6F"/>
<rect x="309.811" y="212.644" width="3.92874" height="1.96437" fill="#1E1F6F"/>
<rect x="316.687" y="204.786" width="1.96437" height="8.83967" fill="#1E1F6F"/>
<rect x="316.687" y="211.662" width="5.89311" height="1.96437" fill="#1E1F6F"/>
<rect x="323.562" y="204.786" width="1.96437" height="8.83967" fill="#1E1F6F"/>
<path d="M325.525 204.786C327.451 204.492 327.927 204.601 329.454 205.277C330.28 209.545 328.96 210.048 324.289 209.608V208.224C327.808 208.552 327.981 208.715 327.981 207.242C327.914 205.899 327.239 206.082 324.289 206.259L325.525 204.786Z" fill="#1E1F6F"/>
<rect x="331.165" y="203.715" width="1.96437" height="5.89311" fill="#1E1F6F"/>
<rect x="331.165" y="210.59" width="1.96437" height="1.96437" fill="#1E1F6F"/>
<path d="M352.281 392.294C355.719 392.294 373.398 392.294 373.398 392.294V398.188H348.844C348.844 398.188 348.844 392.294 352.281 392.294Z" fill="#0A0C3D"/>
<path d="M297.279 396.223C300.717 396.223 318.396 396.223 318.396 396.223V402.116H293.842C293.842 402.116 293.842 396.223 297.279 396.223Z" fill="#0A0C3D"/>
<rect x="403.847" y="341.221" width="7.85749" height="6.8753" fill="#6D6D6D"/>
<rect x="397.954" y="335.328" width="21.6081" height="5.89311" fill="#6D6D6D"/>
<path d="M446.571 257.735L457.867 255.771L435.767 332.381L426.928 320.595L446.571 257.735Z" fill="#433434"/>
<rect x="457.937" y="255.874" width="2.61807" height="79.4132" transform="rotate(16.2334 457.937 255.874)" fill="#433434"/>
<path d="M378.311 322.56L426.929 320.595L435.768 331.89L438.224 332.873C437.517 335.258 436.649 336.289 433.804 337.292L386.168 335.819C380.972 341.895 379.064 342.321 378.311 335.328V322.56Z" fill="#433434"/>
<path d="M356.7 272.959C355.804 265.275 356.779 261.822 362.102 257.735C369.034 255.729 373.008 255.819 380.274 257.735C387.035 258.881 390.81 260.534 397.462 265.593C404.722 271.993 408.087 276.006 412.686 283.763L416.615 294.567L418.579 302.916L406.793 308.809H394.025L376.345 306.844L367.015 342.203L360.139 341.221C360.7 308.926 360.576 292.12 356.7 272.959Z" fill="#9495B7"/>
<path d="M67.6738 356.043H92.2285L91.2463 386.982C84.0607 389.177 79.7764 389.112 72.0937 386.982L67.6738 356.043Z" fill="#4D4104"/>
<path d="M66.6913 351.132H94.1925C95.1742 352.945 96.6483 355.552 95.1747 356.043C93.7011 356.534 67.1829 357.025 65.7091 356.043C64.2354 355.061 65.2236 352.721 66.6913 351.132Z" fill="#4D4104"/>
<path d="M388.131 308.318L419.069 302.426L420.543 310.774C422.484 319.813 421.704 324.11 414.65 329.435L389.113 330.417C374.497 333.991 366.964 337.167 356.21 347.606L318.396 394.259L310.538 394.259C316.937 373.926 325.469 350.631 337.548 331.891C356.513 319.15 367.946 315.598 388.131 308.318Z" fill="#535461"/>
<rect x="488.457" y="313.685" width="68.753" height="40.2696" fill="#535461"/>
<rect x="497.457" y="302.685" width="68.753" height="40.2696" fill="#535461"/>
<path d="M557 313.5L566.5 306V346.5L557 353.77V313.5Z" fill="#39374E"/>
<path d="M566 302.5L575.5 295V335.5L566 342.77V302.5Z" fill="#39374E"/>
<path d="M505.5 306H566.5L556.753 313.77H488L505.5 306Z" fill="#5E5B8D"/>
<path d="M514.5 295H575.5L565.753 302.77H497L514.5 295Z" fill="#5E5B8D"/>
<path d="M615 355.5L624.5 348V388.5L615 395.77V355.5Z" fill="#39374E"/>
<path d="M563.5 348H624.5L614.753 355.77H546L563.5 348Z" fill="#5E5B8D"/>
<rect x="546.457" y="355.685" width="68.753" height="40.2696" fill="#535461"/>
<rect x="567.457" y="303.685" width="68.753" height="40.2696" fill="#535461"/>
<path d="M636 303.5L645.5 296V336.5L636 343.77V303.5Z" fill="#39374E"/>
<path d="M584.5 296H645.5L635.753 303.77H567L584.5 296Z" fill="#5E5B8D"/>
<ellipse cx="324" cy="134.098" rx="29.5" ry="28.5" transform="rotate(30 324 134.098)" fill="white"/>
<g opacity="0.7">
<path opacity="0.7" d="M332.698 165.135L290.17 140.581L308.782 109.02L322.797 112.835L339.994 122.764L351.265 132.301L332.698 165.135Z" fill="url(#paint0_linear_788_4)"/>
</g>
<path d="M332.235 164.833L290.666 140.833L309.084 109.616L322.637 113.104L340.094 123.182L350.609 132.325L332.235 164.833Z" fill="#EEEEEE"/>
<g opacity="0.7">
<path opacity="0.7" d="M334.675 101.462L331.571 99.6704L328.035 105.795L331.139 107.587L334.675 101.462Z" fill="url(#paint1_linear_788_4)"/>
</g>
<g opacity="0.7">
<path opacity="0.7" d="M320.679 118.537L324.5 111.918L311.02 104.135L304.909 109.432L304.517 110.111L320.371 119.264L320.763 118.585L320.679 118.537Z" fill="url(#paint2_linear_788_4)"/>
</g>
<path d="M320.657 118.889L305.068 109.889L311.331 104.267L324.657 111.96L320.657 118.889Z" fill="#6C63FF"/>
<path opacity="0.1" d="M320.657 118.889L305.068 109.889L311.331 104.267L324.657 111.96L320.657 118.889Z" fill="black"/>
<g opacity="0.7">
<path opacity="0.7" d="M353.487 128.765L339.972 120.962L336.107 127.657L336.021 127.607L335.624 128.295L351.52 137.472L351.917 136.785L353.487 128.765Z" fill="url(#paint3_linear_788_4)"/>
</g>
<path d="M336.245 127.889L351.834 136.889L353.571 128.654L340.245 120.96L336.245 127.889Z" fill="#6C63FF"/>
<path opacity="0.1" d="M336.245 127.889L351.834 136.889L353.571 128.654L340.245 120.96L336.245 127.889Z" fill="black"/>
<path d="M335.746 128.755L351.334 137.755L351.834 136.889L336.246 127.889L335.746 128.755Z" fill="#6C63FF"/>
<path opacity="0.5" d="M307.193 134.209L299.398 129.709L296.398 134.906L304.193 139.406L307.193 134.209Z" fill="#6C63FF"/>
<path opacity="0.1" d="M305.059 139.905L295.532 134.405L295.032 135.271L304.559 140.771L305.059 139.905Z" fill="black"/>
<path d="M305.059 139.905L295.532 134.405L295.032 135.271L304.559 140.771L305.059 139.905Z" fill="#535461"/>
<g opacity="0.1">
<path opacity="0.1" d="M307.396 134.758L298.925 129.867L297.714 131.963L306.186 136.854L307.396 134.758Z" fill="black"/>
</g>
<path opacity="0.5" d="M337.504 151.709L328.844 146.709L325.844 151.906L334.504 156.906L337.504 151.709Z" fill="#6C63FF"/>
<path opacity="0.1" d="M335.37 157.405L325.844 151.905L325.344 152.771L334.87 158.271L335.37 157.405Z" fill="black"/>
<path d="M335.37 157.405L325.844 151.905L325.344 152.771L334.87 158.271L335.37 157.405Z" fill="#535461"/>
<g opacity="0.1">
<path opacity="0.1" d="M337.346 152.049L328.874 147.158L327.664 149.254L336.135 154.145L337.346 152.049Z" fill="black"/>
</g>
<path opacity="0.5" d="M344.504 139.585L335.844 134.585L332.844 139.781L341.504 144.781L344.504 139.585Z" fill="#6C63FF"/>
<path opacity="0.1" d="M342.37 145.281L332.844 139.781L332.344 140.647L341.87 146.147L342.37 145.281Z" fill="black"/>
<path d="M342.37 145.281L332.844 139.781L332.344 140.647L341.87 146.147L342.37 145.281Z" fill="#535461"/>
<g opacity="0.1">
<path opacity="0.1" d="M344.466 139.717L335.994 134.826L334.784 136.923L343.255 141.814L344.466 139.717Z" fill="black"/>
</g>
<path opacity="0.5" d="M315.059 122.585L306.398 117.585L303.398 122.781L312.059 127.781L315.059 122.585Z" fill="#6C63FF"/>
<path opacity="0.1" d="M312.059 127.781L302.532 122.281L302.032 123.147L311.559 128.647L312.059 127.781Z" fill="black"/>
<path d="M312.059 127.781L302.532 122.281L302.032 123.147L311.559 128.647L312.059 127.781Z" fill="#535461"/>
<g opacity="0.1">
<path opacity="0.1" d="M314.77 122.572L306.298 117.681L305.087 119.778L313.559 124.669L314.77 122.572Z" fill="black"/>
</g>
<g opacity="0.7">
<path opacity="0.7" d="M344.61 118.962L338.885 104.988L324.252 107.201L324.034 105.765L339.796 103.38L345.955 118.412L344.61 118.962Z" fill="url(#paint4_linear_788_4)"/>
</g>
<path opacity="0.1" d="M318.924 117.889L307.666 111.389L307.166 112.255L318.424 118.755L318.924 117.889Z" fill="black"/>
<path d="M334.254 101.336L331.656 99.8364L328.156 105.899L330.754 107.399L334.254 101.336Z" fill="#535461"/>
<g opacity="0.7">
<path opacity="0.7" d="M320.806 157.935L302.015 147.086L325.46 106.479L335.151 111.58L344.251 117.328L320.806 157.935Z" fill="url(#paint5_linear_788_4)"/>
</g>
<path d="M320.803 158.233L301.925 147.334L325.456 106.577L338.864 105.152L344.362 117.83L320.803 158.233Z" fill="white"/>
<path d="M317.683 146.04L313.353 143.54L308.853 151.334L313.183 153.834L317.683 146.04Z" fill="#535461"/>
<path opacity="0.1" d="M324.281 140.611L314.755 135.111L314.255 135.977L323.781 141.477L324.281 140.611Z" fill="black"/>
<path opacity="0.5" d="M327.281 135.415L318.621 130.415L315.621 135.611L324.281 140.611L327.281 135.415Z" fill="#6C63FF"/>
<path d="M324.281 140.611L314.755 135.111L314.255 135.977L323.781 141.477L324.281 140.611Z" fill="#535461"/>
<g opacity="0.1">
<path opacity="0.1" d="M326.931 135.411L318.459 130.52L317.249 132.616L325.72 137.508L326.931 135.411Z" fill="black"/>
</g>
<path opacity="0.5" d="M333.281 125.023L324.621 120.023L321.621 125.219L330.281 130.219L333.281 125.023Z" fill="#6C63FF"/>
<path d="M330.281 130.219L320.755 124.719L320.255 125.585L329.781 131.085L330.281 130.219Z" fill="#535461"/>
<g opacity="0.1">
<path opacity="0.1" d="M332.911 125.052L324.439 120.161L323.229 122.257L331.701 127.148L332.911 125.052Z" fill="black"/>
</g>
<path opacity="0.5" d="M339.281 114.63L330.621 109.63L327.621 114.827L336.281 119.827L339.281 114.63Z" fill="#6C63FF"/>
<path d="M336.281 119.827L326.755 114.327L326.255 115.193L335.781 120.693L336.281 119.827Z" fill="#535461"/>
<g opacity="0.1">
<path opacity="0.1" d="M338.894 114.691L330.422 109.8L329.212 111.896L337.683 116.787L338.894 114.691Z" fill="black"/>
</g>
<path d="M344.918 119.04L338.873 104.964L324.004 106.956L323.759 105.515L339.777 103.37L346.28 118.508L344.918 119.04Z" fill="#6C63FF"/>
<path d="M314.75 150.119C314.99 150.258 315.295 150.176 315.433 149.936C315.571 149.697 315.49 149.391 315.25 149.253C315.011 149.115 314.705 149.197 314.567 149.436C314.429 149.676 314.511 149.981 314.75 150.119Z" fill="#E0E0E0"/>
<ellipse cx="412.609" cy="64.5282" rx="12.751" ry="12.3188" transform="rotate(-9.49997 412.609 64.5282)" fill="white"/>
<g opacity="0.7">
<path opacity="0.7" d="M424.045 72.4885L403.109 75.9918L400.64 60.348L406.363 57.7674L414.829 56.3507L421.209 56.4326L424.045 72.4885Z" fill="url(#paint6_linear_788_4)"/>
</g>
<path d="M423.807 72.5148L403.344 75.9391L400.904 60.4634L406.383 57.9006L414.976 56.4626L420.997 56.6208L423.807 72.5148Z" fill="#EEEEEE"/>
<g opacity="0.7">
<path opacity="0.7" d="M407.198 50.7082L405.67 50.9639L406.174 53.9786L407.702 53.723L407.198 50.7082Z" fill="url(#paint7_linear_788_4)"/>
</g>
<g opacity="0.7">
<path opacity="0.7" d="M407.224 60.2513L406.679 56.993L400.043 58.1034L399.461 61.5503L399.517 61.8845L407.321 60.5785L407.266 60.2443L407.224 60.2513Z" fill="url(#paint8_linear_788_4)"/>
</g>
<path d="M407.314 60.3744L399.64 61.6585L400.183 58.0616L406.743 56.9639L407.314 60.3744Z" fill="#6C63FF"/>
<path opacity="0.1" d="M407.314 60.3744L399.64 61.6585L400.183 58.0616L406.743 56.9639L407.314 60.3744Z" fill="black"/>
<g opacity="0.7">
<path opacity="0.7" d="M420.979 54.6423L414.326 55.7556L414.877 59.0511L414.835 59.0581L414.891 59.3967L422.716 58.0872L422.66 57.7487L420.979 54.6423Z" fill="url(#paint9_linear_788_4)"/>
</g>
<path d="M414.987 59.0907L422.66 57.8065L420.976 54.5825L414.416 55.6802L414.987 59.0907Z" fill="#6C63FF"/>
<path opacity="0.1" d="M414.987 59.0907L422.66 57.8065L420.976 54.5825L414.416 55.6802L414.987 59.0907Z" fill="black"/>
<path d="M415.059 59.517L422.732 58.2329L422.661 57.8066L414.987 59.0907L415.059 59.517Z" fill="#6C63FF"/>
<path opacity="0.5" d="M407.035 69.1861L403.198 69.8281L403.626 72.386L407.463 71.7439L407.035 69.1861Z" fill="#6C63FF"/>
<path opacity="0.1" d="M407.89 71.6723L403.2 72.457L403.272 72.8833L407.961 72.0986L407.89 71.6723Z" fill="black"/>
<path d="M407.89 71.6723L403.2 72.457L403.272 72.8833L407.961 72.0986L407.89 71.6723Z" fill="#535461"/>
<g opacity="0.1">
<path opacity="0.1" d="M407.253 69.3129L403.083 70.0107L403.256 71.0427L407.426 70.3449L407.253 69.3129Z" fill="black"/>
</g>
<path opacity="0.5" d="M421.956 66.6889L417.693 67.4023L418.121 69.9602L422.384 69.2468L421.956 66.6889Z" fill="#6C63FF"/>
<path opacity="0.1" d="M422.811 69.1752L418.121 69.96L418.192 70.3863L422.882 69.6015L422.811 69.1752Z" fill="black"/>
<path d="M422.811 69.1752L418.121 69.96L418.192 70.3863L422.882 69.6015L422.811 69.1752Z" fill="#535461"/>
<g opacity="0.1">
<path opacity="0.1" d="M421.996 66.8461L417.826 67.5439L417.999 68.5759L422.169 67.8781L421.996 66.8461Z" fill="black"/>
</g>
<path opacity="0.5" d="M420.957 60.7207L416.694 61.4341L417.122 63.9919L421.385 63.2785L420.957 60.7207Z" fill="#6C63FF"/>
<path opacity="0.1" d="M421.811 63.2075L417.122 63.9922L417.193 64.4185L421.883 63.6338L421.811 63.2075Z" fill="black"/>
<path d="M421.811 63.2075L417.122 63.9922L417.193 64.4185L421.883 63.6338L421.811 63.2075Z" fill="#535461"/>
<g opacity="0.1">
<path opacity="0.1" d="M420.981 60.7748L416.811 61.4727L416.983 62.5046L421.153 61.8068L420.981 60.7748Z" fill="black"/>
</g>
<path opacity="0.5" d="M406.462 63.1465L402.199 63.8599L402.627 66.4177L406.89 65.7043L406.462 63.1465Z" fill="#6C63FF"/>
<path opacity="0.1" d="M406.891 65.704L402.201 66.4888L402.273 66.9151L406.962 66.1303L406.891 65.704Z" fill="black"/>
<path d="M406.891 65.704L402.201 66.4888L402.273 66.9151L406.962 66.1303L406.891 65.704Z" fill="#535461"/>
<g opacity="0.1">
<path opacity="0.1" d="M406.363 63.2216L402.192 63.9194L402.365 64.9514L406.535 64.2536L406.363 63.2216Z" fill="black"/>
</g>
<g opacity="0.7">
<path opacity="0.7" d="M415.323 53.8135L409.571 50.7269L405.299 55.4882L404.832 55.0693L409.433 49.9403L415.62 53.2604L415.323 53.8135Z" fill="url(#paint10_linear_788_4)"/>
</g>
<path opacity="0.1" d="M406.46 60.5174L400.918 61.4448L400.989 61.8711L406.531 60.9437L406.46 60.5174Z" fill="black"/>
<path d="M407.023 50.7816L405.744 50.9956L406.244 53.9798L407.522 53.7658L407.023 50.7816Z" fill="#535461"/>
<g opacity="0.7">
<path opacity="0.7" d="M418.099 73.3562L408.849 74.9041L405.504 54.9146L410.139 53.9518L414.754 53.3667L418.099 73.3562Z" fill="url(#paint11_linear_788_4)"/>
</g>
<path d="M418.18 73.4564L408.887 75.0115L405.529 54.9487L409.61 50.7869L414.929 53.5035L418.18 73.4564Z" fill="white"/>
<path d="M413.786 70.2478L411.654 70.6045L412.296 74.4413L414.428 74.0846L413.786 70.2478Z" fill="#535461"/>
<path opacity="0.1" d="M414.495 66.623L409.806 67.4077L409.877 67.834L414.566 67.0493L414.495 66.623Z" fill="black"/>
<path opacity="0.5" d="M414.067 64.0654L409.804 64.7788L410.232 67.3367L414.495 66.6233L414.067 64.0654Z" fill="#6C63FF"/>
<path d="M414.495 66.623L409.806 67.4077L409.877 67.834L414.566 67.0493L414.495 66.623Z" fill="#535461"/>
<g opacity="0.1">
<path opacity="0.1" d="M413.949 64.1605L409.778 64.8584L409.951 65.8904L414.121 65.1925L413.949 64.1605Z" fill="black"/>
</g>
<path opacity="0.5" d="M413.21 58.9492L408.947 59.6626L409.375 62.2205L413.638 61.5071L413.21 58.9492Z" fill="#6C63FF"/>
<path d="M413.639 61.5068L408.949 62.2915L409.021 62.7178L413.71 61.9331L413.639 61.5068Z" fill="#535461"/>
<g opacity="0.1">
<path opacity="0.1" d="M413.095 59.0604L408.925 59.7583L409.097 60.7903L413.268 60.0924L413.095 59.0604Z" fill="black"/>
</g>
<path opacity="0.5" d="M412.355 53.8335L408.092 54.5469L408.52 57.1047L412.783 56.3913L412.355 53.8335Z" fill="#6C63FF"/>
<path d="M412.782 56.392L408.093 57.1768L408.164 57.6031L412.854 56.8183L412.782 56.392Z" fill="#535461"/>
<g opacity="0.1">
<path opacity="0.1" d="M412.242 53.9608L408.071 54.6587L408.244 55.6907L412.414 54.9928L412.242 53.9608Z" fill="black"/>
</g>
<path d="M415.447 53.7547L409.561 50.7221L405.149 55.4745L404.672 55.0612L409.424 49.9419L415.755 53.203L415.447 53.7547Z" fill="#6C63FF"/>
<path d="M413.93 72.4141C414.048 72.3944 414.127 72.283 414.107 72.1653C414.088 72.0475 413.976 71.9681 413.859 71.9878C413.741 72.0075 413.661 72.1189 413.681 72.2366C413.701 72.3543 413.812 72.4338 413.93 72.4141Z" fill="#E0E0E0"/>
<ellipse cx="423.951" cy="178.139" rx="36.3915" ry="35.3911" transform="rotate(9.93436 423.951 178.139)" fill="white"/>
<g opacity="0.7">
<path opacity="0.7" d="M455.852 208.026L383.259 195.312L389.717 161.397L411.08 161.596L440.432 166.737L461.481 172.933L455.852 208.026Z" fill="url(#paint12_linear_788_4)"/>
</g>
<path d="M454.922 207.421L384.339 195.059L390.647 162.001L411.071 162.036L440.714 167.228L460.4 173.185L454.922 207.421Z" fill="#EEEEEE"/>
<g opacity="0.7">
<path opacity="0.7" d="M420.011 150.617L414.714 149.689L412.883 160.142L418.18 161.07L420.011 150.617Z" fill="url(#paint13_linear_788_4)"/>
</g>
<g opacity="0.7">
<path opacity="0.7" d="M410.552 173.443L412.53 162.145L389.523 158.115L383.636 168.729L383.434 169.887L410.494 174.626L410.697 173.468L410.552 173.443Z" fill="url(#paint14_linear_788_4)"/>
</g>
<path d="M410.552 173.456L383.92 168.791L389.741 158.301L412.508 162.288L410.552 173.456Z" fill="#6C63FF"/>
<path opacity="0.1" d="M410.552 173.456L383.92 168.791L389.741 158.301L412.508 162.288L410.552 173.456Z" fill="black"/>
<path d="M410.695 173.481L383.92 168.792L383.719 169.937L410.494 174.627L410.695 173.481Z" fill="#6C63FF"/>
<g opacity="0.7">
<path opacity="0.7" d="M462.116 170.683L439.047 166.642L437.045 178.068L436.9 178.043L436.695 179.216L463.829 183.968L464.035 182.796L462.116 170.683Z" fill="url(#paint15_linear_788_4)"/>
</g>
<path d="M437.038 178.095L463.67 182.759L461.761 170.915L438.994 166.927L437.038 178.095Z" fill="#6C63FF"/>
<path opacity="0.1" d="M437.038 178.095L463.67 182.759L461.761 170.915L438.994 166.927L437.038 178.095Z" fill="black"/>
<path d="M436.695 179.215L463.47 183.905L463.67 182.759L436.896 178.07L436.695 179.215Z" fill="#6C63FF"/>
<path opacity="0.5" d="M404.55 178.235L390.089 175.702L388.509 184.721L402.971 187.254L404.55 178.235Z" fill="#6C63FF"/>
<path opacity="0.1" d="M403.94 186.761L387.762 183.927L387.486 185.502L403.665 188.335L403.94 186.761Z" fill="black"/>
<path d="M403.966 186.618L387.787 183.785L387.511 185.359L403.69 188.193L403.966 186.618Z" fill="#535461"/>
<g opacity="0.1">
<path opacity="0.1" d="M404.55 178.235L390.089 175.702L389.462 179.281L403.923 181.814L404.55 178.235Z" fill="black"/>
</g>
<path opacity="0.5" d="M455.666 187.187L441.204 184.654L439.624 193.674L454.086 196.207L455.666 187.187Z" fill="#6C63FF"/>
<path opacity="0.1" d="M455.056 195.714L438.877 192.88L438.601 194.454L454.78 197.288L455.056 195.714Z" fill="black"/>
<path d="M455.08 195.571L438.901 192.737L438.626 194.312L454.804 197.145L455.08 195.571Z" fill="#535461"/>
<g opacity="0.1">
<path opacity="0.1" d="M455.666 187.187L441.204 184.654L440.577 188.234L455.039 190.767L455.666 187.187Z" fill="black"/>
</g>
<g opacity="0.7">
<path opacity="0.7" d="M443.341 168.379L428.071 151.627L408.588 162.282L407.541 160.369L428.529 148.894L444.951 166.911L443.341 168.379Z" fill="url(#paint16_linear_788_4)"/>
</g>
<path opacity="0.1" d="M407.988 174.188L388.944 170.852L388.907 171.066L407.951 174.402L407.988 174.188Z" fill="black"/>
<path opacity="0.1" d="M458.819 183.09L439.561 179.717L439.523 179.932L458.781 183.305L458.819 183.09Z" fill="black"/>
<path d="M419.843 150.735L414.832 149.857L413.027 160.165L418.038 161.042L419.843 150.735Z" fill="#535461"/>
<g opacity="0.7">
<path opacity="0.7" d="M435.31 203.987L403.238 198.369L410.109 159.138L426.346 161.614L442.181 164.756L435.31 203.987Z" fill="url(#paint17_linear_788_4)"/>
</g>
<path d="M434.95 203.924L403.738 198.457L410.609 159.226L428.16 150.863L441.821 164.693L434.95 203.924Z" fill="white"/>
<path d="M425.587 188.707L417.713 187.328L415.406 200.501L423.279 201.88L425.587 188.707Z" fill="#535461"/>
<path opacity="0.1" d="M431.809 177.623L415.63 174.79L415.354 176.364L431.533 179.197L431.809 177.623Z" fill="black"/>
<path opacity="0.5" d="M432.419 169.097L417.957 166.564L416.377 175.583L430.839 178.116L432.419 169.097Z" fill="#6C63FF"/>
<path d="M431.834 177.48L415.655 174.646L415.38 176.221L431.558 179.054L431.834 177.48Z" fill="#535461"/>
<g opacity="0.1">
<path opacity="0.1" d="M432.419 169.097L417.957 166.564L417.33 170.144L431.792 172.677L432.419 169.097Z" fill="black"/>
</g>
<path d="M443.316 168.522L428.047 151.77L408.563 162.425L407.517 160.513L428.505 149.037L444.927 167.054L443.316 168.522Z" fill="#6C63FF"/>
<path d="M423.19 195.666C423.505 195.721 423.806 195.51 423.861 195.194C423.917 194.878 423.706 194.578 423.39 194.522C423.074 194.467 422.774 194.678 422.718 194.994C422.663 195.31 422.874 195.61 423.19 195.666Z" fill="#E0E0E0"/>
<ellipse cx="459.319" cy="115.898" rx="13.7129" ry="13.3359" transform="rotate(-14.8985 459.319 115.898)" fill="white"/>
<g opacity="0.7">
<path opacity="0.7" d="M474.959 121.069L448.122 128.209L444.963 115.589L452.3 112.277L463.151 109.39L471.33 108.177L474.959 121.069Z" fill="url(#paint18_linear_788_4)"/>
</g>
<path d="M474.546 121.01L448.452 127.952L445.377 115.649L452.367 112.429L463.326 109.514L471.001 108.435L474.546 121.01Z" fill="#EEEEEE"/>
<g opacity="0.7">
<path opacity="0.7" d="M453.616 107.109L451.658 107.63L452.686 111.495L454.645 110.974L453.616 107.109Z" fill="url(#paint19_linear_788_4)"/>
</g>
<g opacity="0.7">
<path opacity="0.7" d="M453.994 116.412L452.883 112.235L444.377 114.498L444.044 119.059L444.158 119.487L454.162 116.826L454.048 116.398L453.994 116.412Z" fill="url(#paint20_linear_788_4)"/>
</g>
<path d="M453.997 116.416L444.151 119.036L444.482 114.527L452.898 112.288L453.997 116.416Z" fill="#6C63FF"/>
<path opacity="0.1" d="M453.997 116.416L444.151 119.036L444.482 114.527L452.898 112.288L453.997 116.416Z" fill="black"/>
<path d="M454.049 116.402L444.15 119.036L444.263 119.459L454.161 116.826L454.049 116.402Z" fill="#6C63FF"/>
<g opacity="0.7">
<path opacity="0.7" d="M471.192 107.308L462.663 109.577L463.787 113.801L463.733 113.816L463.849 114.249L473.88 111.58L473.765 111.147L471.192 107.308Z" fill="url(#paint21_linear_788_4)"/>
</g>
<path d="M463.788 113.811L473.633 111.192L471.106 107.443L462.689 109.683L463.788 113.811Z" fill="#6C63FF"/>
<path opacity="0.1" d="M463.788 113.811L473.633 111.192L471.106 107.443L462.689 109.683L463.788 113.811Z" fill="black"/>
<path d="M463.848 114.249L473.746 111.615L473.633 111.192L463.735 113.825L463.848 114.249Z" fill="#6C63FF"/>
<path opacity="0.5" d="M452.701 119L447.354 120.423L448.242 123.757L453.588 122.335L452.701 119Z" fill="#6C63FF"/>
<path opacity="0.1" d="M453.841 122.012L447.86 123.604L448.015 124.186L453.996 122.594L453.841 122.012Z" fill="black"/>
<path d="M453.827 121.96L447.846 123.551L448.001 124.133L453.982 122.542L453.827 121.96Z" fill="#535461"/>
<g opacity="0.1">
<path opacity="0.1" d="M452.701 119L447.354 120.423L447.707 121.746L453.053 120.324L452.701 119Z" fill="black"/>
</g>
<path opacity="0.5" d="M471.597 113.973L466.251 115.395L467.138 118.729L472.484 117.307L471.597 113.973Z" fill="#6C63FF"/>
<path opacity="0.1" d="M472.738 116.985L466.757 118.577L466.912 119.159L472.893 117.567L472.738 116.985Z" fill="black"/>
<path d="M472.723 116.933L466.742 118.524L466.897 119.106L472.878 117.515L472.723 116.933Z" fill="#535461"/>
<g opacity="0.1">
<path opacity="0.1" d="M471.597 113.973L466.251 115.395L466.603 116.718L471.949 115.296L471.597 113.973Z" fill="black"/>
</g>
<g opacity="0.7">
<path opacity="0.7" d="M464.406 109.491L456.533 106.179L451.557 112.906L450.896 112.418L456.257 105.172L464.724 108.735L464.406 109.491Z" fill="url(#paint22_linear_788_4)"/>
</g>
<path opacity="0.1" d="M453.236 117.073L446.195 118.946L446.216 119.025L453.257 117.152L453.236 117.073Z" fill="black"/>
<path opacity="0.1" d="M472.027 112.073L464.907 113.967L464.928 114.046L472.048 112.152L472.027 112.073Z" fill="black"/>
<path d="M453.578 107.176L451.726 107.669L452.739 111.48L454.592 110.987L453.578 107.176Z" fill="#535461"/>
<g opacity="0.7">
<path opacity="0.7" d="M467.295 122.939L455.439 126.093L451.58 111.59L457.524 109.867L463.437 108.436L467.295 122.939Z" fill="url(#paint23_linear_788_4)"/>
</g>
<path d="M467.161 122.975L455.622 126.044L451.763 111.541L456.442 105.904L463.302 108.471L467.161 122.975Z" fill="white"/>
<path d="M461.551 119.252L458.641 120.027L459.936 124.897L462.847 124.122L461.551 119.252Z" fill="#535461"/>
<path opacity="0.1" d="M461.925 114.478L455.944 116.069L456.099 116.651L462.08 115.06L461.925 114.478Z" fill="black"/>
<path opacity="0.5" d="M460.785 111.465L455.438 112.888L456.326 116.222L461.672 114.8L460.785 111.465Z" fill="#6C63FF"/>
<path d="M461.911 114.425L455.93 116.016L456.085 116.598L462.066 115.007L461.911 114.425Z" fill="#535461"/>
<g opacity="0.1">
<path opacity="0.1" d="M460.785 111.465L455.438 112.888L455.791 114.211L461.137 112.789L460.785 111.465Z" fill="black"/>
</g>
<path d="M464.42 109.545L456.547 106.232L451.57 112.959L450.91 112.471L456.271 105.225L464.738 108.788L464.42 109.545Z" fill="#6C63FF"/>
<path d="M461.833 122.012C461.949 121.981 462.019 121.861 461.988 121.744C461.957 121.628 461.837 121.558 461.72 121.589C461.603 121.62 461.534 121.74 461.565 121.857C461.596 121.974 461.716 122.043 461.833 122.012Z" fill="#E0E0E0"/>
<ellipse cx="349.04" cy="88.8464" rx="11.815" ry="11.4901" transform="rotate(-20.0656 349.04 88.8464)" fill="white"/>
<g opacity="0.7">
<path opacity="0.7" d="M362.861 92.0714L340.386 100.281L336.697 89.6966L342.736 86.2848L351.823 82.9656L358.747 81.2906L362.861 92.0714Z" fill="url(#paint24_linear_788_4)"/>
</g>
<path d="M362.502 92.0524L340.65 100.034L337.057 89.7157L342.805 86.41L351.982 83.0579L358.485 81.5369L362.502 92.0524Z" fill="#EEEEEE"/>
<g opacity="0.7">
<path opacity="0.7" d="M343.464 81.7477L341.824 82.3467L343.006 85.583L344.646 84.984L343.464 81.7477Z" fill="url(#paint25_linear_788_4)"/>
</g>
<g opacity="0.7">
<path opacity="0.7" d="M344.51 89.7012L343.232 86.2033L336.109 88.8052L336.177 92.745L336.308 93.1035L344.686 90.0433L344.555 89.6848L344.51 89.7012Z" fill="url(#paint26_linear_788_4)"/>
</g>
<path d="M344.512 89.7046L336.267 92.7163L336.201 88.8217L343.249 86.2471L344.512 89.7046Z" fill="#6C63FF"/>
<path opacity="0.1" d="M344.512 89.7046L336.267 92.7163L336.201 88.8217L343.249 86.2471L344.512 89.7046Z" fill="black"/>
<path d="M344.557 89.6889L336.268 92.7168L336.397 93.0715L344.687 90.0436L344.557 89.6889Z" fill="#6C63FF"/>
<g opacity="0.7">
<path opacity="0.7" d="M358.56 80.5549L351.418 83.1637L352.71 86.7013L352.665 86.7177L352.798 87.0808L361.199 84.0123L361.066 83.6492L358.56 80.5549Z" fill="url(#paint27_linear_788_4)"/>
</g>
<path d="M352.712 86.7099L360.957 83.6982L358.498 80.6779L351.449 83.2524L352.712 86.7099Z" fill="#6C63FF"/>
<path opacity="0.1" d="M352.712 86.7099L360.957 83.6982L358.498 80.6779L351.449 83.2524L352.712 86.7099Z" fill="black"/>
<path d="M352.798 87.0806L361.088 84.0527L360.958 83.6981L352.669 86.7259L352.798 87.0806Z" fill="#6C63FF"/>
<path opacity="0.5" d="M343.6 92.0228L339.123 93.6582L340.143 96.4506L344.62 94.8152L343.6 92.0228Z" fill="#6C63FF"/>
<path opacity="0.1" d="M344.814 94.519L339.805 96.3486L339.983 96.836L344.992 95.0064L344.814 94.519Z" fill="black"/>
<path d="M344.797 94.4746L339.788 96.3042L339.966 96.7916L344.975 94.962L344.797 94.4746Z" fill="#535461"/>
<g opacity="0.1">
<path opacity="0.1" d="M343.6 92.0228L339.123 93.6582L339.528 94.7665L344.005 93.1311L343.6 92.0228Z" fill="black"/>
</g>
<path opacity="0.5" d="M359.425 86.2425L354.948 87.8779L355.968 90.6703L360.445 89.0349L359.425 86.2425Z" fill="#6C63FF"/>
<path opacity="0.1" d="M360.639 88.7388L355.63 90.5684L355.808 91.0557L360.817 89.2262L360.639 88.7388Z" fill="black"/>
<path d="M360.622 88.6948L355.613 90.5244L355.791 91.0118L360.8 89.1822L360.622 88.6948Z" fill="#535461"/>
<g opacity="0.1">
<path opacity="0.1" d="M359.425 86.2425L354.948 87.8779L355.353 88.9862L359.83 87.3508L359.425 86.2425Z" fill="black"/>
</g>
<g opacity="0.7">
<path opacity="0.7" d="M352.907 82.9548L345.894 80.7235L342.146 86.882L341.541 86.5141L345.58 79.8806L353.122 82.2808L352.907 82.9548Z" fill="url(#paint28_linear_788_4)"/>
</g>
<path opacity="0.1" d="M343.911 90.3269L338.015 92.4805L338.039 92.5468L343.935 90.3932L343.911 90.3269Z" fill="black"/>
<path opacity="0.1" d="M359.648 84.5785L353.686 86.7563L353.71 86.8227L359.672 84.6449L359.648 84.5785Z" fill="black"/>
<path d="M343.436 81.8083L341.885 82.375L343.05 85.5663L344.602 84.9996L343.436 81.8083Z" fill="#535461"/>
<g opacity="0.7">
<path opacity="0.7" d="M356.43 94.2702L346.5 97.897L342.064 85.7512L347.031 83.8116L351.993 82.1244L356.43 94.2702Z" fill="url(#paint29_linear_788_4)"/>
</g>
<path d="M356.318 94.3108L346.655 97.8404L342.219 85.6946L345.796 80.4943L351.882 82.165L356.318 94.3108Z" fill="white"/>
<path d="M351.215 91.5525L348.777 92.4429L350.267 96.5212L352.705 95.6308L351.215 91.5525Z" fill="#535461"/>
<path opacity="0.1" d="M351.165 87.4258L346.156 89.2554L346.334 89.7428L351.343 87.9132L351.165 87.4258Z" fill="black"/>
<path opacity="0.5" d="M349.953 84.9295L345.476 86.5649L346.496 89.3573L350.973 87.7219L349.953 84.9295Z" fill="#6C63FF"/>
<path d="M351.15 87.3818L346.141 89.2114L346.319 89.6988L351.328 87.8692L351.15 87.3818Z" fill="#535461"/>
<g opacity="0.1">
<path opacity="0.1" d="M349.953 84.9295L345.476 86.5649L345.88 87.6732L350.358 86.0378L349.953 84.9295Z" fill="black"/>
</g>
<path d="M352.924 82.9987L345.911 80.7674L342.163 86.9259L341.558 86.5581L345.596 79.9246L353.138 82.3247L352.924 82.9987Z" fill="#6C63FF"/>
<path d="M351.671 93.8982C351.769 93.8625 351.819 93.7543 351.784 93.6566C351.748 93.5588 351.64 93.5086 351.542 93.5443C351.444 93.5799 351.394 93.6881 351.43 93.7858C351.466 93.8836 351.574 93.9339 351.671 93.8982Z" fill="#E0E0E0"/>
<ellipse cx="398.5" cy="110.822" rx="30.3791" ry="29.569" transform="rotate(-8.69592 398.5 110.822)" fill="white"/>
<g opacity="0.7">
<path opacity="0.7" d="M410.766 100.803L383.766 104.933L387.364 128.46L414.364 124.33L410.766 100.803Z" fill="url(#paint30_linear_788_4)"/>
</g>
<path d="M410.551 101.193L384.125 105.235L387.677 128.458L414.103 124.417L410.551 101.193Z" fill="#EEEEEE"/>
<g opacity="0.7">
<path opacity="0.7" d="M391.41 96.6521L388.155 97.1499L389.137 103.571L392.392 103.073L391.41 96.6521Z" fill="url(#paint31_linear_788_4)"/>
</g>
<path d="M391.03 96.803L388.628 97.1704L389.608 103.577L392.01 103.209L391.03 96.803Z" fill="#535461"/>
<g opacity="0.7">
<path opacity="0.7" d="M410.718 124.618L391.018 127.631L387.333 103.532L397.234 101.792L407.033 100.519L410.718 124.618Z" fill="url(#paint32_linear_788_4)"/>
</g>
<path d="M410.899 124.906L391.68 127.846L387.957 103.501L396.513 95.145L407.176 100.562L410.899 124.906Z" fill="white"/>
<path d="M402.467 118L397.662 118.735L398.887 126.743L403.692 126.008L402.467 118Z" fill="#535461"/>
<path opacity="0.5" d="M402.109 104.943L393.3 106.29L394.157 111.896L402.966 110.548L402.109 104.943Z" fill="#6C63FF"/>
<path d="M403.645 109.625L393.234 111.217L393.479 112.819L403.89 111.227L403.645 109.625Z" fill="#535461"/>
<g opacity="0.1">
<path opacity="0.1" d="M402.22 104.946L393.337 106.304L393.673 108.502L402.556 107.144L402.22 104.946Z" fill="black"/>
</g>
<g opacity="0.7">
<path opacity="0.7" d="M408.413 102.395L396.281 95.664L387.065 105.653L386.083 104.747L396.012 93.9879L409.06 101.227L408.413 102.395Z" fill="url(#paint33_linear_788_4)"/>
</g>
<path d="M408.256 102.364L396.068 96.0325L386.68 105.658L385.697 104.802L395.81 94.4328L408.92 101.244L408.256 102.364Z" fill="#6C63FF"/>
<path d="M401.878 122.188C402.099 122.154 402.251 121.948 402.218 121.727C402.184 121.506 401.977 121.354 401.756 121.387C401.535 121.421 401.383 121.628 401.417 121.849C401.451 122.07 401.657 122.222 401.878 122.188Z" fill="#E0E0E0"/>
<ellipse cx="488.499" cy="173.148" rx="18.5206" ry="18.0267" transform="rotate(14.7481 488.499 173.148)" fill="white"/>
<g opacity="0.7">
<path opacity="0.7" d="M497.79 170.519L481.687 166.28L477.993 180.312L494.096 184.551L497.79 170.519Z" fill="url(#paint34_linear_788_4)"/>
</g>
<path d="M497.575 170.685L481.813 166.536L478.167 180.387L493.929 184.536L497.575 170.685Z" fill="#EEEEEE"/>
<g opacity="0.7">
<path opacity="0.7" d="M487.971 163.502L486.029 162.991L485.021 166.821L486.962 167.332L487.971 163.502Z" fill="url(#paint35_linear_788_4)"/>
</g>
<path d="M487.722 163.495L486.289 163.118L485.283 166.939L486.716 167.316L487.722 163.495Z" fill="#535461"/>
<g opacity="0.7">
<path opacity="0.7" d="M491.987 183.827L480.238 180.734L484.021 166.362L489.981 167.79L495.77 169.455L491.987 183.827Z" fill="url(#paint36_linear_788_4)"/>
</g>
<path d="M492.018 184.033L480.556 181.015L484.378 166.496L491.19 163.897L495.84 169.514L492.018 184.033Z" fill="white"/>
<path d="M488.977 178.125L486.111 177.371L484.854 182.147L487.72 182.901L488.977 178.125Z" fill="#535461"/>
<path opacity="0.5" d="M491.944 170.735L486.69 169.352L485.81 172.695L491.064 174.078L491.944 170.735Z" fill="#6C63FF"/>
<path d="M491.667 173.726L485.458 172.091L485.207 173.047L491.415 174.681L491.667 173.726Z" fill="#535461"/>
<g opacity="0.1">
<path opacity="0.1" d="M492.005 170.763L486.707 169.369L486.362 170.68L491.66 172.074L492.005 170.763Z" fill="black"/>
</g>
<g opacity="0.7">
<path opacity="0.7" d="M496.088 170.838L490.935 164.131L483.357 167.483L483.028 166.738L491.191 163.129L496.733 170.342L496.088 170.838Z" fill="url(#paint37_linear_788_4)"/>
</g>
<path d="M496.007 170.783L490.725 164.286L483.14 167.392L482.798 166.675L490.969 163.328L496.65 170.318L496.007 170.783Z" fill="#6C63FF"/>
<path d="M487.632 180.325C487.764 180.359 487.899 180.281 487.933 180.149C487.968 180.017 487.889 179.882 487.757 179.847C487.625 179.812 487.49 179.891 487.456 180.023C487.421 180.155 487.5 180.29 487.632 180.325Z" fill="#E0E0E0"/>
<path d="M100.13 259.834H198.957V309.247V348.258L188.554 405.474H180.752L172.95 357.36L146.943 311.848L113.134 405.474H105.332L92.3281 322.251L100.13 259.834Z" fill="#3F3D56"/>
<path d="M146.943 259.834V311.848L167.749 349.558L180.753 405.474H188.555L198.957 345.657V309.247V259.834H146.943Z" fill="#39374E"/>
<path d="M116 186C133.714 167.404 125.5 176.5 143.044 170.109L145.645 163.607H165.15V170.109C165.15 170.109 190.295 169.491 208.5 202C226.705 234.509 225.5 226.5 225.5 226.5L227.5 234L221.5 236.427L205 226.5L197.659 236.427V259.834H101.433V245.53C104.5 226.5 106 219.5 109 206C112 192.5 116 186 116 186Z" fill="#4F728C"/>
<path d="M92.8415 408.652C99.3433 407.352 112.347 408.652 112.347 408.652V413.854H88.9405C88.9405 413.854 86.3398 409.953 92.8415 408.652Z" fill="#0A0C3D"/>
<path d="M201.557 408.652C195.055 407.352 182.052 408.652 182.052 408.652V413.854H205.458C205.458 413.854 208.059 409.953 201.557 408.652Z" fill="#0A0C3D"/>
<circle cx="165.201" cy="244.201" r="5.20141" fill="#FFDAB0"/>
<circle cx="227.201" cy="234.201" r="5.20141" fill="#FFDAB0"/>
<path d="M166.447 148.004C166.447 155.185 160.49 161.007 154.744 161.007C148.999 161.007 143.041 155.185 143.041 148.004C143.041 140.822 148.999 135 154.744 135C160.49 135 166.447 140.822 166.447 148.004Z" fill="#FFDAB0"/>
<path d="M145.642 161.007L143.041 148.003H166.447L163.847 161.007H145.642Z" fill="#FFDAB0"/>
<path d="M145.644 161.006H163.282L162.964 163.607H145.983L145.644 161.006Z" fill="#EEDCC0"/>
<rect width="11.0328" height="22.0656" transform="matrix(-0.866025 -0.5 -0.5 0.866025 256.499 203.357)" fill="#DC0000"/>
<path d="M233.819 188.31L225.596 195.33L252.181 210.782L256.534 203.293L233.819 188.31Z" fill="#DC0000"/>
<rect width="11.0328" height="22.0656" transform="matrix(-0.866025 -0.5 -0.5 0.866025 238.579 192.246)" fill="#DC0000"/>
<path d="M248.272 186.716L229.054 186.716L256.5 203.356L248.272 186.716Z" fill="#DC0000"/>
<circle r="35.5116" transform="matrix(-0.866025 -0.5 -0.5 0.866025 239.074 202.639)" stroke="black" stroke-width="4"/>
<rect width="2.94208" height="13.2394" transform="matrix(-0.550223 -0.835018 -0.835018 0.550223 209.225 223.447)" fill="black"/>
<rect width="11.3248" height="36.5389" transform="matrix(-0.550223 -0.835018 -0.835018 0.550223 200.54 233.761)" fill="black"/>
<path d="M200.483 228.692L197.725 230.285L200.506 233.801L200.483 228.692Z" fill="black"/>
<path d="M200.483 228.692L197.725 230.285L200.506 233.801L200.483 228.692Z" fill="black"/>
<path d="M199.874 227.143L194.276 224.335L196.994 228.453L199.874 227.143Z" fill="black"/>
<path d="M199.874 227.143L194.276 224.335L196.994 228.453L199.874 227.143Z" fill="black"/>
<rect width="5.96852" height="2.48127" transform="matrix(-0.548269 -0.836302 -0.836302 0.548269 168.762 251.177)" fill="black"/>
<path d="M169.052 250.857L166.638 252.436L170.103 253.695L169.052 250.857Z" fill="black"/>
<path d="M166.55 247.278L164.213 244.775L163.379 247.691L166.55 247.278Z" fill="black"/>
<circle cx="148.242" cy="145.403" r="4.95141" stroke="black" stroke-width="0.5"/>
<circle cx="161.247" cy="145.403" r="4.95141" stroke="black" stroke-width="0.5"/>
<path d="M153.445 145.403H156.046" stroke="#010101" stroke-width="0.3"/>
<defs>
<linearGradient id="paint0_linear_788_4" x1="25901" y1="27995" x2="29918.1" y2="21037.2" gradientUnits="userSpaceOnUse">
<stop stop-color="#808080" stop-opacity="0.25"/>
<stop offset="0.54" stop-color="#808080" stop-opacity="0.12"/>
<stop offset="1" stop-color="#808080" stop-opacity="0.1"/>
</linearGradient>
<linearGradient id="paint1_linear_788_4" x1="2361.47" y1="1592.96" x2="2484.9" y2="1379.15" gradientUnits="userSpaceOnUse">
<stop stop-color="#808080" stop-opacity="0.25"/>
<stop offset="0.54" stop-color="#808080" stop-opacity="0.12"/>
<stop offset="1" stop-color="#808080" stop-opacity="0.1"/>
</linearGradient>
<linearGradient id="paint2_linear_788_4" x1="10052.2" y1="6855.51" x2="10227.5" y2="6551.91" gradientUnits="userSpaceOnUse">
<stop stop-color="#808080" stop-opacity="0.25"/>
<stop offset="0.54" stop-color="#808080" stop-opacity="0.12"/>
<stop offset="1" stop-color="#808080" stop-opacity="0.1"/>
</linearGradient>
<linearGradient id="paint3_linear_788_4" x1="12930.1" y1="8539.65" x2="13109.5" y2="8229" gradientUnits="userSpaceOnUse">
<stop stop-color="#808080" stop-opacity="0.25"/>
<stop offset="0.54" stop-color="#808080" stop-opacity="0.12"/>
<stop offset="1" stop-color="#808080" stop-opacity="0.1"/>
</linearGradient>
<linearGradient id="paint4_linear_788_4" x1="16142.4" y1="9927.65" x2="16445.8" y2="9402.16" gradientUnits="userSpaceOnUse">
<stop stop-color="#808080" stop-opacity="0.25"/>
<stop offset="0.54" stop-color="#808080" stop-opacity="0.12"/>
<stop offset="1" stop-color="#808080" stop-opacity="0.1"/>
</linearGradient>
<linearGradient id="paint5_linear_788_4" x1="7496.89" y1="19550.2" x2="13023" y2="9978.63" gradientUnits="userSpaceOnUse">
<stop stop-color="#808080" stop-opacity="0.25"/>
<stop offset="0.54" stop-color="#808080" stop-opacity="0.12"/>
<stop offset="1" stop-color="#808080" stop-opacity="0.1"/>
</linearGradient>
<linearGradient id="paint6_linear_788_4" x1="16603.2" y1="2324.79" x2="16030" y2="-1100.26" gradientUnits="userSpaceOnUse">
<stop stop-color="#808080" stop-opacity="0.25"/>
<stop offset="0.54" stop-color="#808080" stop-opacity="0.12"/>
<stop offset="1" stop-color="#808080" stop-opacity="0.1"/>
</linearGradient>
<linearGradient id="paint7_linear_788_4" x1="1493.25" y1="-9.08063" x2="1475.64" y2="-114.327" gradientUnits="userSpaceOnUse">
<stop stop-color="#808080" stop-opacity="0.25"/>
<stop offset="0.54" stop-color="#808080" stop-opacity="0.12"/>
<stop offset="1" stop-color="#808080" stop-opacity="0.1"/>
</linearGradient>
<linearGradient id="paint8_linear_788_4" x1="5505.18" y1="-368.353" x2="5480.17" y2="-517.802" gradientUnits="userSpaceOnUse">
<stop stop-color="#808080" stop-opacity="0.25"/>
<stop offset="0.54" stop-color="#808080" stop-opacity="0.12"/>
<stop offset="1" stop-color="#808080" stop-opacity="0.1"/>
</linearGradient>
<linearGradient id="paint9_linear_788_4" x1="6928.08" y1="-597.898" x2="6902.49" y2="-750.815" gradientUnits="userSpaceOnUse">
<stop stop-color="#808080" stop-opacity="0.25"/>
<stop offset="0.54" stop-color="#808080" stop-opacity="0.12"/>
<stop offset="1" stop-color="#808080" stop-opacity="0.1"/>
</linearGradient>
<linearGradient id="paint10_linear_788_4" x1="8381.05" y1="-1018.13" x2="8337.77" y2="-1276.8" gradientUnits="userSpaceOnUse">
<stop stop-color="#808080" stop-opacity="0.25"/>
<stop offset="0.54" stop-color="#808080" stop-opacity="0.12"/>
<stop offset="1" stop-color="#808080" stop-opacity="0.1"/>
</linearGradient>
<linearGradient id="paint11_linear_788_4" x1="8143.15" y1="4568.2" x2="7354.69" y2="-143.5" gradientUnits="userSpaceOnUse">
<stop stop-color="#808080" stop-opacity="0.25"/>
<stop offset="0.54" stop-color="#808080" stop-opacity="0.12"/>
<stop offset="1" stop-color="#808080" stop-opacity="0.1"/>
</linearGradient>
<linearGradient id="paint12_linear_788_4" x1="419.556" y1="201.669" x2="426.113" y2="164.229" gradientUnits="userSpaceOnUse">
<stop stop-color="#808080" stop-opacity="0.25"/>
<stop offset="0.54" stop-color="#808080" stop-opacity="0.12"/>
<stop offset="1" stop-color="#808080" stop-opacity="0.1"/>
</linearGradient>
<linearGradient id="paint13_linear_788_4" x1="1913.68" y1="1729.33" x2="1991.35" y2="1285.91" gradientUnits="userSpaceOnUse">
<stop stop-color="#808080" stop-opacity="0.25"/>
<stop offset="0.54" stop-color="#808080" stop-opacity="0.12"/>
<stop offset="1" stop-color="#808080" stop-opacity="0.1"/>
</linearGradient>
<linearGradient id="paint14_linear_788_4" x1="7030.92" y1="3644.41" x2="7141.22" y2="3014.63" gradientUnits="userSpaceOnUse">
<stop stop-color="#808080" stop-opacity="0.25"/>
<stop offset="0.54" stop-color="#808080" stop-opacity="0.12"/>
<stop offset="1" stop-color="#808080" stop-opacity="0.1"/>
</linearGradient>
<linearGradient id="paint15_linear_788_4" x1="12969.2" y1="4710.97" x2="13082" y2="4066.66" gradientUnits="userSpaceOnUse">
<stop stop-color="#808080" stop-opacity="0.25"/>
<stop offset="0.54" stop-color="#808080" stop-opacity="0.12"/>
<stop offset="1" stop-color="#808080" stop-opacity="0.1"/>
</linearGradient>
<linearGradient id="paint16_linear_788_4" x1="13850.1" y1="4757.76" x2="14041" y2="3667.62" gradientUnits="userSpaceOnUse">
<stop stop-color="#808080" stop-opacity="0.25"/>
<stop offset="0.54" stop-color="#808080" stop-opacity="0.12"/>
<stop offset="1" stop-color="#808080" stop-opacity="0.1"/>
</linearGradient>
<linearGradient id="paint17_linear_788_4" x1="10273.9" y1="13289" x2="11388" y2="6927.63" gradientUnits="userSpaceOnUse">
<stop stop-color="#808080" stop-opacity="0.25"/>
<stop offset="0.54" stop-color="#808080" stop-opacity="0.12"/>
<stop offset="1" stop-color="#808080" stop-opacity="0.1"/>
</linearGradient>
<linearGradient id="paint18_linear_788_4" x1="461.54" y1="124.639" x2="457.858" y2="110.798" gradientUnits="userSpaceOnUse">
<stop stop-color="#808080" stop-opacity="0.25"/>
<stop offset="0.54" stop-color="#808080" stop-opacity="0.12"/>
<stop offset="1" stop-color="#808080" stop-opacity="0.1"/>
</linearGradient>
<linearGradient id="paint19_linear_788_4" x1="1214.25" y1="410.612" x2="1170.63" y2="246.682" gradientUnits="userSpaceOnUse">
<stop stop-color="#808080" stop-opacity="0.25"/>
<stop offset="0.54" stop-color="#808080" stop-opacity="0.12"/>
<stop offset="1" stop-color="#808080" stop-opacity="0.1"/>
</linearGradient>
<linearGradient id="paint20_linear_788_4" x1="3267.27" y1="255.703" x2="3205.33" y2="22.8788" gradientUnits="userSpaceOnUse">
<stop stop-color="#808080" stop-opacity="0.25"/>
<stop offset="0.54" stop-color="#808080" stop-opacity="0.12"/>
<stop offset="1" stop-color="#808080" stop-opacity="0.1"/>
</linearGradient>
<linearGradient id="paint21_linear_788_4" x1="5466.79" y1="-319.301" x2="5403.41" y2="-557.498" gradientUnits="userSpaceOnUse">
<stop stop-color="#808080" stop-opacity="0.25"/>
<stop offset="0.54" stop-color="#808080" stop-opacity="0.12"/>
<stop offset="1" stop-color="#808080" stop-opacity="0.1"/>
</linearGradient>
<linearGradient id="paint22_linear_788_4" x1="5775.43" y1="-442.705" x2="5668.21" y2="-845.719" gradientUnits="userSpaceOnUse">
<stop stop-color="#808080" stop-opacity="0.25"/>
<stop offset="0.54" stop-color="#808080" stop-opacity="0.12"/>
<stop offset="1" stop-color="#808080" stop-opacity="0.1"/>
</linearGradient>
<linearGradient id="paint23_linear_788_4" x1="5902.56" y1="3040.71" x2="5276.87" y2="688.955" gradientUnits="userSpaceOnUse">
<stop stop-color="#808080" stop-opacity="0.25"/>
<stop offset="0.54" stop-color="#808080" stop-opacity="0.12"/>
<stop offset="1" stop-color="#808080" stop-opacity="0.1"/>
</linearGradient>
<linearGradient id="paint24_linear_788_4" x1="351.624" y1="96.1761" x2="347.39" y2="84.5848" gradientUnits="userSpaceOnUse">
<stop stop-color="#808080" stop-opacity="0.25"/>
<stop offset="0.54" stop-color="#808080" stop-opacity="0.12"/>
<stop offset="1" stop-color="#808080" stop-opacity="0.1"/>
</linearGradient>
<linearGradient id="paint25_linear_788_4" x1="1019.71" y1="283.159" x2="969.563" y2="145.876" gradientUnits="userSpaceOnUse">
<stop stop-color="#808080" stop-opacity="0.25"/>
<stop offset="0.54" stop-color="#808080" stop-opacity="0.12"/>
<stop offset="1" stop-color="#808080" stop-opacity="0.1"/>
</linearGradient>
<linearGradient id="paint26_linear_788_4" x1="2769.38" y1="-9.07409" x2="2698.16" y2="-204.053" gradientUnits="userSpaceOnUse">
<stop stop-color="#808080" stop-opacity="0.25"/>
<stop offset="0.54" stop-color="#808080" stop-opacity="0.12"/>
<stop offset="1" stop-color="#808080" stop-opacity="0.1"/>
</linearGradient>
<linearGradient id="paint27_linear_788_4" x1="4612.15" y1="-673.156" x2="4539.28" y2="-872.634" gradientUnits="userSpaceOnUse">
<stop stop-color="#808080" stop-opacity="0.25"/>
<stop offset="0.54" stop-color="#808080" stop-opacity="0.12"/>
<stop offset="1" stop-color="#808080" stop-opacity="0.1"/>
</linearGradient>
<linearGradient id="paint28_linear_788_4" x1="4867.42" y1="-802.999" x2="4744.14" y2="-1140.5" gradientUnits="userSpaceOnUse">
<stop stop-color="#808080" stop-opacity="0.25"/>
<stop offset="0.54" stop-color="#808080" stop-opacity="0.12"/>
<stop offset="1" stop-color="#808080" stop-opacity="0.1"/>
</linearGradient>
<linearGradient id="paint29_linear_788_4" x1="5246.8" y1="2176.24" x2="4527.42" y2="206.759" gradientUnits="userSpaceOnUse">
<stop stop-color="#808080" stop-opacity="0.25"/>
<stop offset="0.54" stop-color="#808080" stop-opacity="0.12"/>
<stop offset="1" stop-color="#808080" stop-opacity="0.1"/>
</linearGradient>
<linearGradient id="paint30_linear_788_4" x1="3166.2" y1="6479.88" x2="2756.02" y2="3798.09" gradientUnits="userSpaceOnUse">
<stop stop-color="#808080" stop-opacity="0.25"/>
<stop offset="0.54" stop-color="#808080" stop-opacity="0.12"/>
<stop offset="1" stop-color="#808080" stop-opacity="0.1"/>
</linearGradient>
<linearGradient id="paint31_linear_788_4" x1="662.718" y1="1145.29" x2="632.166" y2="945.538" gradientUnits="userSpaceOnUse">
<stop stop-color="#808080" stop-opacity="0.25"/>
<stop offset="0.54" stop-color="#808080" stop-opacity="0.12"/>
<stop offset="1" stop-color="#808080" stop-opacity="0.1"/>
</linearGradient>
<linearGradient id="paint32_linear_788_4" x1="2725.85" y1="6743.39" x2="2287.57" y2="3877.87" gradientUnits="userSpaceOnUse">
<stop stop-color="#808080" stop-opacity="0.25"/>
<stop offset="0.54" stop-color="#808080" stop-opacity="0.12"/>
<stop offset="1" stop-color="#808080" stop-opacity="0.1"/>
</linearGradient>
<linearGradient id="paint33_linear_788_4" x1="2187.52" y1="1615.74" x2="2112.41" y2="1124.63" gradientUnits="userSpaceOnUse">
<stop stop-color="#808080" stop-opacity="0.25"/>
<stop offset="0.54" stop-color="#808080" stop-opacity="0.12"/>
<stop offset="1" stop-color="#808080" stop-opacity="0.1"/>
</linearGradient>
<linearGradient id="paint34_linear_788_4" x1="491.712" y1="4406.8" x2="912.761" y2="2807.33" gradientUnits="userSpaceOnUse">
<stop stop-color="#808080" stop-opacity="0.25"/>
<stop offset="0.54" stop-color="#808080" stop-opacity="0.12"/>
<stop offset="1" stop-color="#808080" stop-opacity="0.1"/>
</linearGradient>
<linearGradient id="paint35_linear_788_4" x1="385.371" y1="815.833" x2="416.733" y2="696.697" gradientUnits="userSpaceOnUse">
<stop stop-color="#808080" stop-opacity="0.25"/>
<stop offset="0.54" stop-color="#808080" stop-opacity="0.12"/>
<stop offset="1" stop-color="#808080" stop-opacity="0.1"/>
</linearGradient>
<linearGradient id="paint36_linear_788_4" x1="181.502" y1="4447.38" x2="631.397" y2="2738.33" gradientUnits="userSpaceOnUse">
<stop stop-color="#808080" stop-opacity="0.25"/>
<stop offset="0.54" stop-color="#808080" stop-opacity="0.12"/>
<stop offset="1" stop-color="#808080" stop-opacity="0.1"/>
</linearGradient>
<linearGradient id="paint37_linear_788_4" x1="1124.12" y1="1448.81" x2="1201.22" y2="1155.9" gradientUnits="userSpaceOnUse">
<stop stop-color="#808080" stop-opacity="0.25"/>
<stop offset="0.54" stop-color="#808080" stop-opacity="0.12"/>
<stop offset="1" stop-color="#808080" stop-opacity="0.1"/>
</linearGradient>
</defs>
</svg>
