<svg width="178" height="457" viewBox="0 0 178 457" fill="none" xmlns="http://www.w3.org/2000/svg">
<path d="M15.212 256.267H143.674V320.498V371.206L130.151 445.579H120.01L109.868 383.038L76.0622 323.878L32.1148 445.579H21.9731L5.07031 337.401L15.212 256.267Z" fill="#3F3D56"/>
<path d="M76.0664 256.267V323.878L103.111 372.897L120.014 445.579H130.155L143.678 367.826V320.498V256.267H76.0664Z" fill="#39374E"/>
<path d="M22.6424 159C45.668 134.828 35.8972 148.336 70.9967 139.636L74.3773 131.185H99.7315V139.636C99.7315 139.636 122.083 138 136.643 164C151.203 190 144.643 195.5 144.643 195.5L141.989 203V225.841V256.266H16.9076V237.673C15.6425 221.5 21.5965 204 16.9076 190.5C12.2187 177 22.6424 159 22.6424 159Z" fill="#4F728C"/>
<path d="M5.73862 449.711C14.19 448.021 31.0929 449.711 31.0929 449.711V456.472H0.667766C0.667766 456.472 -2.7128 451.401 5.73862 449.711Z" fill="#0A0C3D"/>
<path d="M147.058 449.711C138.607 448.021 121.704 449.711 121.704 449.711V456.472H152.129C152.129 456.472 155.51 451.401 147.058 449.711Z" fill="#0A0C3D"/>
<circle cx="71.9037" cy="173.761" r="6.76113" fill="#FFDAB0"/>
<circle cx="96.9037" cy="174.761" r="6.76113" fill="#FFDAB0"/>
<path d="M101.421 110.903C101.421 120.238 93.6768 127.806 86.2086 127.806C78.7405 127.806 70.9961 120.238 70.9961 110.903C70.9961 101.568 78.7405 94 86.2086 94C93.6768 94 101.421 101.568 101.421 110.903Z" fill="#FFDAB0"/>
<path d="M74.3767 127.805L70.9961 110.902H101.421L98.0406 127.805H74.3767Z" fill="#FFDAB0"/>
<path d="M74.375 127.805H97.3028L96.8898 131.185H74.8158L74.375 127.805Z" fill="#EEDCC0"/>
<rect width="14.3412" height="28.6823" transform="matrix(-0.99998 0.00634324 0.00634324 0.99998 108.557 54.5342)" fill="#DC0000"/>
<path d="M73.2347 52.5591L68.6256 65.8354L108.595 65.6982L108.556 54.4383L73.2347 52.5591Z" fill="#DC0000"/>
<rect width="14.3412" height="28.6823" transform="matrix(-0.99998 0.00634324 0.00634324 0.99998 81.1582 53.8467)" fill="#DC0000"/>
<path d="M88.3935 41.2753L66.8398 53.9023L108.556 54.5328L88.3935 41.2753Z" fill="#DC0000"/>
<circle r="46.76" transform="matrix(-0.90922 0.416316 0.416316 0.90922 89.8078 64.6331)" stroke="black" stroke-width="4"/>
<rect width="3.82431" height="17.2094" transform="matrix(-0.999381 -0.0351693 -0.0351693 0.999381 89.3809 111.929)" fill="black"/>
<rect width="14.7207" height="47.4957" transform="matrix(-0.999381 -0.0351693 -0.0351693 0.999381 93.7676 128.898)" fill="black"/>
<path d="M88.3559 125.139L87.9665 129.261L93.7866 128.962L88.3559 125.139Z" fill="black"/>
<path d="M88.3559 125.139L87.9665 129.261L93.7866 128.962L88.3559 125.139Z" fill="black"/>
<path d="M86.2539 124.621L79.064 128.439L85.4738 128.659L86.2539 124.621Z" fill="black"/>
<path d="M86.2539 124.621L79.064 128.439L85.4738 128.659L86.2539 124.621Z" fill="black"/>
<rect width="7.75827" height="3.22531" transform="matrix(-0.999296 -0.0375059 -0.0375059 0.999296 88.2949 175.683)" fill="black"/>
<path d="M88.1743 175.135L88.0304 178.882L91.9734 176.158L88.1743 175.135Z" fill="black"/>
<path d="M82.5009 175.088L78.0885 175.68L80.5501 178.759L82.5009 175.088Z" fill="black"/>
<circle cx="77.7572" cy="107.522" r="6.51113" stroke="black" stroke-width="0.5"/>
<circle cx="94.6576" cy="107.522" r="6.51113" stroke="black" stroke-width="0.5"/>
<path d="M84.5176 107.523H87.8981" stroke="#010101" stroke-width="0.3"/>
</svg>
