<svg width="14" height="14" viewBox="0 0 14 14" fill="none" xmlns="http://www.w3.org/2000/svg">
<path d="M12.4151 4.82735L8.94385 4.32286L7.39209 1.17696C7.34971 1.09083 7.27998 1.0211 7.19385 0.978716C6.97783 0.872075 6.71533 0.960943 6.60732 1.17696L5.05556 4.32286L1.58428 4.82735C1.48857 4.84102 1.40107 4.88614 1.33408 4.9545C1.25309 5.03774 1.20846 5.14973 1.21 5.26586C1.21154 5.38199 1.25912 5.49276 1.34228 5.57383L3.85381 8.02247L3.26045 11.4801C3.24653 11.5605 3.25543 11.6432 3.28614 11.7189C3.31685 11.7945 3.36813 11.86 3.43417 11.908C3.50022 11.9559 3.57838 11.9845 3.6598 11.9903C3.74122 11.9961 3.82264 11.9789 3.89482 11.9408L6.9997 10.3084L10.1046 11.9408C10.1894 11.9859 10.2878 12.001 10.3821 11.9846C10.62 11.9436 10.78 11.718 10.739 11.4801L10.1456 8.02247L12.6571 5.57383C12.7255 5.50684 12.7706 5.41934 12.7843 5.32364C12.8212 5.08438 12.6544 4.8629 12.4151 4.82735Z" fill="#DEE6FF"/>
</svg>
