<svg width="10" height="15" viewBox="0 0 10 15" fill="none" xmlns="http://www.w3.org/2000/svg">
<rect width="0.944523" height="3.97681" transform="matrix(0.958494 -0.285112 0.255088 0.966918 5.64111 10.2207)" fill="white"/>
<path d="M9.40171 2.55413L4.03803 8.25452L2.04487 6.13809L2.70769 5.43428L4.03803 6.84689L8.73889 1.8553L9.40171 2.55413ZM8.36282 5.06989C8.42393 5.35441 8.46154 5.6539 8.46154 5.95839C8.46154 8.16468 6.77863 9.95166 4.70085 9.95166C2.62308 9.95166 0.940171 8.16468 0.940171 5.95839C0.940171 3.75211 2.62308 1.96512 4.70085 1.96512C5.44359 1.96512 6.12991 2.19473 6.71282 2.58907L7.38974 1.87028C6.60303 1.28105 5.66358 0.965389 4.70085 0.966802C2.10598 0.966802 0 3.20303 0 5.95839C0 8.71375 2.10598 10.95 4.70085 10.95C7.29573 10.95 9.40171 8.71375 9.40171 5.95839C9.40171 5.36439 9.29829 4.79535 9.11966 4.26624L8.36282 5.06989Z" fill="white"/>
</svg>
