<svg width="41" height="39" viewBox="0 0 41 39" fill="none" xmlns="http://www.w3.org/2000/svg">
<path d="M37.3174 10.8104C37.276 10.7185 37.2059 10.6399 37.116 10.5846C37.0261 10.5293 36.9204 10.4998 36.8122 10.4997H32.3281C31.8288 9.60248 31.073 8.84736 30.1422 8.31558C29.2113 7.78379 28.1405 7.49545 27.0449 7.48153C25.4398 7.47346 23.8968 8.05163 22.7546 9.08913C21.6124 10.1266 20.9644 11.5386 20.9528 13.0152L20.9515 14.4202C14.9252 13.2399 9.90678 8.68205 9.85496 8.63451C9.78437 8.56962 9.69582 8.52373 9.59891 8.50182C9.502 8.47992 9.40042 8.48282 9.30518 8.51022C9.20994 8.53762 9.12466 8.58848 9.05858 8.65728C8.99251 8.72607 8.94816 8.81019 8.93033 8.90052C7.76549 14.7945 9.67887 18.7258 11.4892 20.986C12.5109 22.2725 13.7807 23.3754 15.2354 24.24C13.087 26.7988 9.31615 28.1265 9.2765 28.1403C9.19937 28.1669 9.12976 28.2092 9.07288 28.264C9.01601 28.3189 8.97333 28.3848 8.94804 28.4569C8.92275 28.529 8.91549 28.6055 8.92682 28.6806C8.93815 28.7556 8.96776 28.8274 9.01346 28.8904C9.04969 28.9404 9.39408 29.3911 10.3176 29.816C11.4829 30.3519 13.0372 30.6237 14.9372 30.6237C24.3636 30.6237 32.228 23.9008 32.9327 15.2833L37.1988 11.3587C37.2754 11.2883 37.3274 11.1986 37.3485 11.101C37.3696 11.0034 37.3588 10.9022 37.3174 10.8103V10.8104ZM32.0146 14.7049C31.9206 14.7915 31.8641 14.9065 31.8556 15.0287C31.289 23.2093 23.8576 29.6175 14.9372 29.6175C12.4973 29.6175 11.1601 29.1286 10.4933 28.7538C11.9116 28.1466 14.7938 26.6977 16.486 24.3625C16.529 24.3032 16.5578 24.2361 16.5705 24.1657C16.5832 24.0953 16.5794 24.0233 16.5595 23.9543C16.5396 23.8854 16.504 23.8211 16.4551 23.7658C16.4061 23.7104 16.3449 23.6653 16.2755 23.6334C16.2549 23.624 14.1847 22.6551 12.3696 20.389C10.0927 17.5463 9.24601 14.055 9.84717 9.99979C11.5961 11.4223 16.1182 14.7126 21.4078 15.5238C21.4861 15.5358 21.5663 15.532 21.6429 15.5126C21.7194 15.4933 21.7905 15.4588 21.8511 15.4116C21.9117 15.3644 21.9604 15.3057 21.9938 15.2394C22.0272 15.1732 22.0446 15.1011 22.0447 15.028L22.0466 13.016V13.0155C22.0581 11.8079 22.589 10.6537 23.5231 9.80515C24.4572 8.95665 25.7185 8.48293 27.0312 8.4876C27.9781 8.49966 28.9013 8.76225 29.6904 9.24401C30.4794 9.72576 31.1011 10.4063 31.481 11.2043C31.5236 11.294 31.5936 11.3702 31.6826 11.4238C31.7716 11.4774 31.8756 11.5059 31.9819 11.5059H35.4918L32.0146 14.7049Z" fill="#B0C0CF"/>
<path d="M39.3696 11.3179V27.8264C39.3696 30.5629 38.2467 33.1873 36.2478 35.1223C34.249 37.0572 31.5381 38.1443 28.7114 38.1443H11.6582C8.83148 38.1443 6.12052 37.0572 4.12172 35.1223C2.12292 33.1873 1 30.5629 1 27.8264V11.3179C1 8.58139 2.12292 5.957 4.12172 4.02203C6.12052 2.08706 8.83148 1 11.6582 1H28.7114C31.5381 1 34.249 2.08706 36.2478 4.02203C38.2467 5.957 39.3696 8.58139 39.3696 11.3179Z" stroke="#B0C0CF" stroke-width="1.5" stroke-linecap="round" stroke-linejoin="round"/>
</svg>
