<svg width="84" height="84" viewBox="0 0 84 84" fill="none" xmlns="http://www.w3.org/2000/svg">
<path d="M0 73.5C0 76.2848 1.10625 78.9555 3.07538 80.9246C5.04451 82.8938 7.71523 84 10.5 84H73.5C76.2848 84 78.9555 82.8938 80.9246 80.9246C82.8938 78.9555 84 76.2848 84 73.5V10.5C84 7.71523 82.8938 5.04451 80.9246 3.07538C78.9555 1.10625 76.2848 0 73.5 0L10.5 0C7.71523 0 5.04451 1.10625 3.07538 3.07538C1.10625 5.04451 0 7.71523 0 10.5L0 73.5ZM23.625 39.375H54.0383L42.7665 28.1085C42.2736 27.6156 41.9967 26.9471 41.9967 26.25C41.9967 25.5529 42.2736 24.8844 42.7665 24.3915C43.2594 23.8986 43.9279 23.6217 44.625 23.6217C45.3221 23.6217 45.9906 23.8986 46.4835 24.3915L62.2335 40.1415C62.478 40.3853 62.6719 40.675 62.8042 40.9939C62.9366 41.3128 63.0047 41.6547 63.0047 42C63.0047 42.3453 62.9366 42.6872 62.8042 43.0061C62.6719 43.325 62.478 43.6147 62.2335 43.8585L46.4835 59.6085C45.9906 60.1014 45.3221 60.3783 44.625 60.3783C43.9279 60.3783 43.2594 60.1014 42.7665 59.6085C42.2736 59.1156 41.9967 58.4471 41.9967 57.75C41.9967 57.0529 42.2736 56.3844 42.7665 55.8915L54.0383 44.625H23.625C22.9288 44.625 22.2611 44.3484 21.7688 43.8562C21.2766 43.3639 21 42.6962 21 42C21 41.3038 21.2766 40.6361 21.7688 40.1438C22.2611 39.6516 22.9288 39.375 23.625 39.375V39.375Z" fill="#CFE0C9"/>
</svg>
