<svg width="33" height="44" viewBox="0 0 33 44" fill="none" xmlns="http://www.w3.org/2000/svg">
<rect x="8.96777" y="11.2002" width="4.43649" height="8.27188" fill="#DC0000"/>
<rect width="3.19581" height="12.3646" transform="matrix(0.00312241 0.999995 -0.999996 0.00271368 21.3379 11.1885)" fill="#DC0000"/>
<rect x="17.4424" y="10.9473" width="4.43649" height="8.27188" fill="#DC0000"/>
<path d="M15.1789 7.33008L21.39 11.1903H8.96777L15.1789 7.33008Z" fill="#DC0000"/>
<path d="M30.0187 14.2282C30.0187 21.8402 23.3941 28.0404 15.1847 28.0404C6.97522 28.0404 0.350586 21.8402 0.350586 14.2282C0.350586 6.61617 6.97522 0.416016 15.1847 0.416016C23.3941 0.416016 30.0187 6.61617 30.0187 14.2282Z" stroke="#080E21" stroke-width="0.5"/>
<rect width="1.16742" height="5.0376" transform="matrix(0.905999 -0.42328 0.473489 0.8808 21.4014 26.5801)" fill="#080E21"/>
<rect width="4.49366" height="13.9031" transform="matrix(0.905999 -0.42328 0.473489 0.8808 22.3447 31.5557)" fill="#080E21"/>
<path d="M23.3799 29.9229L24.0203 30.9568L22.3447 31.5772L23.3799 29.9229Z" fill="#080E21"/>
<path d="M23.3799 29.9229L24.0203 30.9568L22.3447 31.5772L23.3799 29.9229Z" fill="#080E21"/>
<path d="M23.9053 29.5332L26.4193 29.6711L24.6447 30.4983L23.9053 29.5332Z" fill="#080E21"/>
<path d="M23.9053 29.5332L26.4193 29.6711L24.6447 30.4983L23.9053 29.5332Z" fill="#080E21"/>
<rect width="2.36801" height="0.944253" transform="matrix(0.905049 -0.425308 0.475631 0.879645 29.915 43.1621)" fill="#080E21"/>
<path d="M29.8704 43.0088L30.3934 43.9738L28.9336 43.7331L29.8704 43.0088Z" fill="#080E21"/>
<path d="M31.4692 42.3099L32.7864 41.9352L32.4906 43.0382L31.4692 42.3099Z" fill="#080E21"/>
</svg>
