<svg width="183" height="447" viewBox="0 0 183 447" fill="none" xmlns="http://www.w3.org/2000/svg">
<path d="M81.9231 130.786V108.255C81.9231 106.68 83.5192 105.073 85.1154 105.073H97.8846C99.4808 105.073 101.077 106.68 101.077 108.287V130.786C101.077 131.638 101.413 132.456 102.012 133.059C102.611 133.661 103.423 134 104.269 134H129.808C130.654 134 131.466 133.661 132.065 133.059C132.664 132.456 133 131.638 133 130.786V85.7888C133.001 85.3664 132.919 84.9481 132.759 84.5576C132.599 84.1671 132.364 83.8123 132.068 83.5132L123.423 74.8159V53.648C123.423 52.7956 123.087 51.978 122.488 51.3753C121.889 50.7725 121.077 50.4339 120.231 50.4339H113.846C112.999 50.4339 112.188 50.7725 111.589 51.3753C110.99 51.978 110.654 52.7956 110.654 53.648V61.9596L93.7602 44.9443C93.4636 44.6449 93.1113 44.4075 92.7235 44.2454C92.3357 44.0834 91.9199 44 91.5 44C91.0801 44 90.6643 44.0834 90.2765 44.2454C89.8887 44.4075 89.5364 44.6449 89.2398 44.9443L50.9322 83.5132C50.6359 83.8123 50.4011 84.1671 50.2411 84.5576C50.0812 84.9481 49.9993 85.3664 50 85.7888V130.786C50 131.638 50.3363 132.456 50.935 133.059C51.5337 133.661 52.3457 134 53.1923 134H78.7308C79.5774 134 80.3894 133.661 80.9881 133.059C81.5867 132.456 81.9231 131.638 81.9231 130.786Z" fill="black"/>
<path d="M80.9231 265.786V243.255C80.9231 241.68 82.5192 240.073 84.1154 240.073H96.8846C98.4808 240.073 100.077 241.68 100.077 243.287V265.786C100.077 266.638 100.413 267.456 101.012 268.059C101.611 268.661 102.423 269 103.269 269H128.808C129.654 269 130.466 268.661 131.065 268.059C131.664 267.456 132 266.638 132 265.786V220.789C132.001 220.366 131.919 219.948 131.759 219.558C131.599 219.167 131.364 218.812 131.068 218.513L122.423 209.816V188.648C122.423 187.796 122.087 186.978 121.488 186.375C120.889 185.773 120.077 185.434 119.231 185.434H112.846C111.999 185.434 111.188 185.773 110.589 186.375C109.99 186.978 109.654 187.796 109.654 188.648V196.96L92.7602 179.944C92.4636 179.645 92.1113 179.407 91.7235 179.245C91.3357 179.083 90.9199 179 90.5 179C90.0801 179 89.6643 179.083 89.2765 179.245C88.8887 179.407 88.5364 179.645 88.2398 179.944L49.9322 218.513C49.6359 218.812 49.4011 219.167 49.2411 219.558C49.0812 219.948 48.9993 220.366 49 220.789V265.786C49 266.638 49.3363 267.456 49.935 268.059C50.5337 268.661 51.3457 269 52.1923 269H77.7308C78.5774 269 79.3894 268.661 79.9881 268.059C80.5867 267.456 80.9231 266.638 80.9231 265.786Z" fill="#FFB931"/>
<path d="M80.9231 400.786V378.255C80.9231 376.68 82.5192 375.073 84.1154 375.073H96.8846C98.4808 375.073 100.077 376.68 100.077 378.287V400.786C100.077 401.638 100.413 402.456 101.012 403.059C101.611 403.661 102.423 404 103.269 404H128.808C129.654 404 130.466 403.661 131.065 403.059C131.664 402.456 132 401.638 132 400.786V355.789C132.001 355.366 131.919 354.948 131.759 354.558C131.599 354.167 131.364 353.812 131.068 353.513L122.423 344.816V323.648C122.423 322.796 122.087 321.978 121.488 321.375C120.889 320.773 120.077 320.434 119.231 320.434H112.846C111.999 320.434 111.188 320.773 110.589 321.375C109.99 321.978 109.654 322.796 109.654 323.648V331.96L92.7602 314.944C92.4636 314.645 92.1113 314.407 91.7235 314.245C91.3357 314.083 90.9199 314 90.5 314C90.0801 314 89.6643 314.083 89.2765 314.245C88.8887 314.407 88.5364 314.645 88.2398 314.944L49.9322 353.513C49.6359 353.812 49.4011 354.167 49.2411 354.558C49.0812 354.948 48.9993 355.366 49 355.789V400.786C49 401.638 49.3363 402.456 49.935 403.059C50.5337 403.661 51.3457 404 52.1923 404H77.7308C78.5774 404 79.3894 403.661 79.9881 403.059C80.5867 402.456 80.9231 401.638 80.9231 400.786Z" fill="black"/>
<rect x="3" y="3" width="177" height="441" stroke="black" stroke-width="6"/>
<path d="M25.9965 73.4987C61.9995 9.99976 122.501 10.4998 154.996 74.4987" stroke="black" stroke-width="4" stroke-linecap="round"/>
<path d="M26.0004 209.819C62.0034 146.32 122.504 146.82 155 210.819" stroke="black" stroke-width="4" stroke-linecap="round"/>
<path d="M27.0004 343.819C63.0034 280.32 123.504 280.82 156 344.819" stroke="black" stroke-width="4" stroke-linecap="round"/>
</svg>
