<svg width="64" height="12" viewBox="0 0 64 12" fill="none" xmlns="http://www.w3.org/2000/svg">
<path d="M58.1173 2.27783H56.4693V11.0405H54.8507V2.27783H53.2053V0.933825H58.1173V2.27783ZM58.4773 0.933825H60.208L60.7467 5.47516C60.8987 6.77649 61.04 7.89649 61.2053 9.43249H61.2747C61.4267 7.89649 61.5787 6.80316 61.728 5.47516L62.2827 0.933825H64L62.3387 11.0245H60.152L58.4773 0.933825ZM16.456 1.94716C16.3606 1.59066 16.174 1.26519 15.9144 1.00285C15.6549 0.740502 15.3315 0.550353 14.976 0.451159C13.6613 0.104493 8.40267 0.104492 8.40267 0.104492C8.40267 0.104492 3.14133 0.104493 1.82667 0.451159C1.47043 0.547924 1.14603 0.736938 0.886177 0.999128C0.626329 1.26132 0.440232 1.58741 0.346667 1.94449C0 3.25916 0 5.98716 0 5.98716C0 5.98716 0 8.72849 0.346667 10.0298C0.443117 10.3877 0.631801 10.7139 0.893858 10.976C1.15592 11.238 1.48217 11.4267 1.84 11.5232C3.14133 11.8698 8.4 11.8698 8.4 11.8698C8.4 11.8698 13.6613 11.8698 14.976 11.5232C15.3308 11.425 15.6545 11.2374 15.916 10.9782C16.1775 10.7191 16.368 10.3971 16.4693 10.0432C16.816 8.72849 16.816 6.00049 16.816 6.00049C16.816 6.00049 16.8027 3.25916 16.456 1.94716ZM6.72533 8.50716V3.46716L11.0987 5.98716L6.72533 8.50716ZM24.4027 10.8192C24.0429 10.5696 23.7905 10.1934 23.696 9.76583C23.5442 9.15015 23.4742 8.51713 23.488 7.88316V6.81649C23.4732 6.17115 23.5568 5.52731 23.736 4.90716C23.8572 4.48174 24.1208 4.11084 24.4827 3.85649C24.8906 3.62179 25.3563 3.5063 25.8267 3.52316C26.368 3.52316 26.8107 3.63516 27.1413 3.85649C27.488 4.11783 27.752 4.47783 27.8613 4.90716C28.0267 5.53116 28.112 6.16583 28.0827 6.81649V7.88316C28.096 8.52049 28.0293 9.15783 27.8613 9.77916C27.7525 10.2039 27.4976 10.5768 27.1413 10.8325C26.8107 11.0538 26.352 11.1632 25.7867 11.1632C25.2053 11.1498 24.7333 11.0405 24.4 10.8165L24.4027 10.8192ZM26.2693 9.65649C26.368 9.41916 26.408 9.01649 26.408 8.47783V6.19516C26.4243 5.80268 26.3775 5.41013 26.2693 5.03249C26.2408 4.92605 26.1781 4.83191 26.0909 4.76448C26.0037 4.69705 25.8969 4.66006 25.7867 4.65916C25.6776 4.65968 25.5718 4.69674 25.4863 4.76441C25.4007 4.83208 25.3403 4.92646 25.3147 5.03249C25.2053 5.40583 25.1627 5.80583 25.176 6.19516V8.49116C25.176 9.03249 25.2187 9.43249 25.3147 9.66983C25.368 9.89116 25.5653 10.0432 25.8 10.0298C25.9086 10.0287 26.0138 9.99139 26.0988 9.92376C26.1838 9.85614 26.2438 9.76208 26.2693 9.65649ZM49.9493 7.89649V8.26983C49.9493 8.62983 49.9653 8.97649 49.992 9.33649C50.0038 9.52068 50.0666 9.69796 50.1733 9.84849C50.2266 9.90455 50.2913 9.94837 50.3632 9.97692C50.435 10.0055 50.5122 10.0181 50.5893 10.0138C50.6938 10.021 50.798 9.99723 50.8891 9.94554C50.9801 9.89386 51.0539 9.81651 51.1013 9.72316C51.1973 9.53116 51.24 9.21116 51.2533 8.75516L52.6773 8.85116C52.6906 8.93939 52.696 9.02864 52.6933 9.11783C52.6933 9.79249 52.512 10.3045 52.1387 10.6378C51.7653 10.9712 51.24 11.1365 50.56 11.1365C49.744 11.1365 49.176 10.8725 48.8453 10.3632C48.5147 9.85383 48.3467 9.05916 48.3467 7.97916V6.69383C48.3467 5.58449 48.512 4.78183 48.8587 4.26983C49.2053 3.75783 49.7867 3.50983 50.6027 3.50983C51.1707 3.50983 51.6133 3.61916 51.9173 3.82983C52.2373 4.06449 52.4693 4.40849 52.568 4.79783C52.7067 5.39249 52.776 6.01383 52.7467 6.62449V7.88316L49.952 7.89649H49.9493ZM50.16 4.79783C50.0572 4.94941 49.999 5.1268 49.992 5.30983C49.9654 5.66921 49.952 6.02946 49.952 6.38983V6.91516H51.1707V6.38983C51.1707 6.02983 51.1547 5.66983 51.1147 5.30983C51.1029 5.12564 51.0401 4.94836 50.9333 4.79783C50.8851 4.74418 50.8251 4.70251 50.758 4.67613C50.6908 4.64974 50.6185 4.63937 50.5467 4.64583C50.4748 4.63828 50.4021 4.64816 50.3348 4.67461C50.2675 4.70107 50.2075 4.74333 50.16 4.79783ZM20.36 7.75783L18.4773 0.933825H20.1253L20.7893 4.02183C20.9547 4.78183 21.08 5.43516 21.1627 5.97383H21.216C21.2747 5.58449 21.3973 4.94983 21.5893 4.03516L22.2827 0.933825H23.9307L22.0213 7.76049V11.0405H20.3733V7.76049H20.36V7.75783ZM33.44 3.66183V11.0405H32.1387L32 10.1392H31.9573C31.6107 10.8192 31.072 11.1632 30.368 11.1632C29.8827 11.1632 29.5227 10.9978 29.288 10.6805C29.0507 10.3605 28.9413 9.86183 28.9413 9.17116V3.66183H30.6027V9.07516C30.5907 9.31483 30.6279 9.55442 30.712 9.77916C30.7437 9.84632 30.7952 9.9022 30.8595 9.93937C30.9238 9.97653 30.998 9.9932 31.072 9.98716C31.2214 9.98362 31.3663 9.93531 31.488 9.84849C31.6158 9.76986 31.7171 9.65467 31.7787 9.51783V3.66183H33.44ZM41.952 3.66183V11.0405H40.6507L40.512 10.1392H40.4693C40.1227 10.8192 39.584 11.1632 38.88 11.1632C38.3947 11.1632 38.0347 10.9978 37.8 10.6805C37.5627 10.3605 37.4533 9.86183 37.4533 9.17116V3.66183H39.1147V9.07516C39.1027 9.31483 39.1399 9.55442 39.224 9.77916C39.2557 9.84632 39.3072 9.9022 39.3715 9.93937C39.4358 9.97653 39.51 9.9932 39.584 9.98716C39.7334 9.98362 39.8783 9.93531 40 9.84849C40.1278 9.76986 40.2291 9.65467 40.2907 9.51783V3.66183H41.952ZM37.952 2.27516H36.304V11.0405H34.6853V2.27783H33.0373V0.933825H37.952V2.27783V2.27516ZM47.4453 4.83783C47.3493 4.38183 47.184 4.03783 46.9627 3.82716C46.7042 3.60823 46.3731 3.49406 46.0347 3.50716C45.7278 3.50573 45.428 3.59884 45.176 3.77383C44.9153 3.93988 44.7051 4.17412 44.568 4.45116H44.5547V0.560493H42.9627V11.0405H44.3333L44.4987 10.3472H44.5387C44.6686 10.5991 44.8711 10.8063 45.12 10.9418C45.3839 11.0845 45.6787 11.1605 45.9787 11.1632C46.239 11.1693 46.4954 11.0995 46.7166 10.9621C46.9378 10.8247 47.1141 10.6259 47.224 10.3898C47.488 9.87783 47.624 9.05916 47.624 7.96583V6.80316C47.6145 6.14446 47.5547 5.48745 47.4453 4.83783ZM45.9253 7.84316C45.9253 8.25649 45.9093 8.68583 45.856 9.10183C45.8386 9.33438 45.7614 9.5585 45.632 9.75249C45.5822 9.81378 45.5191 9.86292 45.4475 9.89619C45.3759 9.92945 45.2976 9.94598 45.2187 9.94449C45.0876 9.94887 44.958 9.91555 44.8453 9.84849C44.7297 9.77677 44.6342 9.67673 44.568 9.55783V5.37916C44.6202 5.19064 44.7204 5.01884 44.8587 4.88049C44.9148 4.81898 44.9832 4.76989 45.0594 4.73636C45.1357 4.70284 45.2181 4.68562 45.3013 4.68583C45.4533 4.68583 45.6053 4.75516 45.688 4.88049C45.8 5.08849 45.8693 5.30716 45.8827 5.54449C45.9227 5.98716 45.936 6.42983 45.936 6.87249L45.9227 7.84316H45.9253Z" fill="#2EA153"/>
</svg>
